M48
; DRILL file KiCad 10.0.3 date 2026-09-13T20:11:41
; FORMAT={-:-/ absolute / metric / decimal}
; #@! TF.CreationDate,2026-09-13T20:11:41-04:00
; #@! TF.GenerationSoftware,Kicad,Pcbnew,10.0.3
; #@! TF.FileFunction,Plated,1,2,PTH
FMAT,2
METRIC
; #@! TA.AperFunction,Plated,PTH,ViaDrill
T1C0.300
; #@! TA.AperFunction,Plated,PTH,ComponentDrill
T2C0.750
; #@! TA.AperFunction,Plated,PTH,ComponentDrill
T3C0.800
; #@! TA.AperFunction,Plated,PTH,ComponentDrill
T4C0.900
; #@! TA.AperFunction,Plated,PTH,ComponentDrill
T5C1.100
%
G90
G05
T1
X94.5Y-112.5
X101.081Y-70.169
X102.0Y-112.25
X103.75Y-98.25
X106.25Y-97.75
X106.75Y-94.75
X107.5Y-82.5
X108.25Y-87.0
X108.75Y-89.5
X109.0Y-74.5
X109.0Y-87.5
X110.0Y-85.75
X112.5Y-91.5
X114.25Y-88.0
X114.25Y-88.8
X116.5Y-80.0
X117.247Y-97.009
X117.5Y-96.25
X121.5Y-96.9
X125.0Y-82.0
X125.25Y-86.75
X126.25Y-86.75
X126.25Y-98.1
X127.5Y-86.0
X127.5Y-98.1
X128.5Y-85.7
X128.5Y-86.5
X128.75Y-97.5
X129.0Y-82.5
X130.75Y-95.0
X132.25Y-90.75
X136.0Y-98.75
X136.078Y-85.835
X136.257Y-84.312
X136.75Y-98.25
X137.5Y-97.5
X137.75Y-74.25
X140.5Y-91.5
X145.5Y-65.75
X145.5Y-67.25
X146.115Y-67.762
X151.75Y-67.75
X152.75Y-66.0
T2
X107.73Y-103.61
X109.0Y-103.61
X110.27Y-103.61
T3
X88.8Y-66.75
X92.2Y-66.75
X92.44Y-114.75
X92.63Y-94.0
X100.06Y-114.75
X100.25Y-94.0
X137.097Y-104.75
X142.097Y-104.75
X142.94Y-97.75
X144.63Y-64.0
X150.56Y-97.75
X152.25Y-64.0
T4
X100.71Y-108.75
X103.25Y-108.75
X112.48Y-96.25
X114.75Y-111.5
X115.02Y-96.25
X117.29Y-111.5
X130.73Y-99.75
X133.27Y-99.75
X137.21Y-114.5
X139.75Y-114.5
X146.0Y-108.0
X148.54Y-108.0
T5
X116.75Y-81.75
X116.75Y-86.25
X123.25Y-81.75
X123.25Y-86.25
M30
