%TF.GenerationSoftware,KiCad,Pcbnew,10.0.3*%
%TF.CreationDate,2026-09-13T20:11:41-04:00*%
%TF.ProjectId,Keychain,4b657963-6861-4696-9e2e-6b696361645f,rev?*%
%TF.SameCoordinates,Original*%
%TF.FileFunction,Drillmap*%
%TF.FilePolarity,Positive*%
%FSLAX45Y45*%
G04 Gerber Fmt 4.5, Leading zero omitted, Abs format (unit mm)*
G04 Created by KiCad (PCBNEW 10.0.3) date 2026-09-13 20:11:41*
%MOMM*%
%LPD*%
G01*
G04 APERTURE LIST*
%ADD10C,0.136642*%
%ADD11C,0.023641*%
%ADD12C,0.200000*%
G04 APERTURE END LIST*
D10*
X8155695Y-7600800D02*
X8182462Y-8202008D01*
X8167201Y-7035248D02*
X8155695Y-7600800D01*
X8167201Y-7035248D02*
G75*
G02*
X8219208Y-6571119I4006979J-214012D01*
G01*
X8182462Y-8202008D02*
X8247189Y-8777913D01*
X8219208Y-6571119D02*
G75*
G02*
X8296729Y-6247426I2515512J-431311D01*
G01*
X8247189Y-8777913D02*
X8290968Y-9036017D01*
X8296728Y-6247426D02*
G75*
G02*
X8407822Y-5993105I1191142J-368894D01*
G01*
X8335359Y-9211228D02*
G75*
G02*
X8290968Y-9036017I1445541J459468D01*
G01*
X8387823Y-9337388D02*
G75*
G02*
X8335359Y-9211228I702457J366108D01*
G01*
X8407822Y-5993105D02*
G75*
G02*
X8549214Y-5811880I717398J-413945D01*
G01*
X8455992Y-9434831D02*
G75*
G02*
X8387823Y-9337389I338508J309381D01*
G01*
X8532014Y-9503956D02*
G75*
G02*
X8455992Y-9434831I334986J444776D01*
G01*
X8549214Y-5811880D02*
G75*
G02*
X8717770Y-5707074I326846J-337710D01*
G01*
X8611100Y-9548416D02*
G75*
G02*
X8532015Y-9503956I126130J316926D01*
G01*
X8717771Y-5707075D02*
G75*
G02*
X8789285Y-5690262I110090J-307755D01*
G01*
X8718645Y-9579990D02*
G75*
G02*
X8611100Y-9548416I115185J591290D01*
G01*
X8718645Y-9579990D02*
X8896723Y-9610228D01*
X8789285Y-5690262D02*
G75*
G02*
X8869597Y-5687690I55025J-462928D01*
G01*
X8841990Y-11476183D02*
G75*
G02*
X8850925Y-11423470I199300J-6667D01*
G01*
X8847915Y-11527555D02*
G75*
G02*
X8841990Y-11476183I169135J45535D01*
G01*
X8850925Y-11423470D02*
G75*
G02*
X8879010Y-11352586I485945J-151530D01*
G01*
X8864401Y-11566991D02*
G75*
G02*
X8847915Y-11527555I139099J81311D01*
G01*
X8869597Y-5687690D02*
G75*
G02*
X8949219Y-5698963I-25327J-465700D01*
G01*
X8892496Y-11606154D02*
G75*
G02*
X8864401Y-11566992I195264J169744D01*
G01*
X8896723Y-9610228D02*
X9224859Y-9650334D01*
X8927601Y-11639675D02*
G75*
G02*
X8892496Y-11606154I162519J205335D01*
G01*
X8940515Y-11230598D02*
X8879010Y-11352586D01*
X8940515Y-11230598D02*
G75*
G02*
X9117108Y-10933520I2813745J-1471552D01*
G01*
X8949219Y-5698964D02*
G75*
G02*
X9018681Y-5723445I-74169J-321226D01*
G01*
X8965044Y-11662286D02*
G75*
G02*
X8927600Y-11639675I70356J158816D01*
G01*
X8986838Y-11667195D02*
G75*
G02*
X8965044Y-11662285I1492J57445D01*
G01*
X8986838Y-11667195D02*
X9144898Y-11670983D01*
X9018680Y-5723446D02*
G75*
G02*
X9050367Y-5742211I-95820J-197944D01*
G01*
X9097791Y-5777551D02*
X9050367Y-5742210D01*
X9144898Y-11670983D02*
X9327476Y-11673825D01*
X9150215Y-5820334D02*
X9097791Y-5777551D01*
X9200609Y-5865328D02*
X9150215Y-5820334D01*
X9224859Y-9650334D02*
X9540176Y-9673593D01*
X9312918Y-5966007D02*
X9200609Y-5865328D01*
X9327476Y-11673825D02*
X9538940Y-11674887D01*
X9348830Y-10613988D02*
X9117108Y-10933520D01*
X9414710Y-6048267D02*
X9312918Y-5966007D01*
X9525862Y-6127560D02*
X9414710Y-6048267D01*
X9538940Y-11674887D02*
X9919421Y-11677401D01*
X9540176Y-9673593D02*
X9832813Y-9679632D01*
X9634757Y-10272202D02*
X9348830Y-10613988D01*
X9667891Y-6219640D02*
X9525862Y-6127560D01*
X9832813Y-9679632D02*
X10092266Y-9667709D01*
X9919421Y-11677401D02*
X10123285Y-11686399D01*
X9934529Y-6373633D02*
X9667891Y-6219640D01*
X9976121Y-9907470D02*
X9634757Y-10272202D01*
X10092266Y-9667709D02*
X10222005Y-9656643D01*
X10123285Y-11686399D02*
G75*
G02*
X10297079Y-11707291I-151815J-1996201D01*
G01*
X10222005Y-9656643D02*
X9976121Y-9907470D01*
X10265934Y-6540723D02*
X9934529Y-6373633D01*
X10297079Y-11707291D02*
X10534193Y-11750584D01*
X10534193Y-11750584D02*
X10801634Y-11816047D01*
X10670720Y-6725892D02*
X10265934Y-6540723D01*
X10801634Y-11816047D02*
X11090344Y-11909751D01*
X11090344Y-11909751D02*
X11395246Y-12029676D01*
X11164975Y-6935963D02*
X10670720Y-6725892D01*
X11395246Y-12029676D02*
X11711539Y-12174212D01*
X11629095Y-7130524D02*
X11164975Y-6935963D01*
X11711539Y-12174212D02*
X11904008Y-12270634D01*
D11*
X11857904Y-7657962D02*
X11858936Y-7682121D01*
X11858936Y-7633806D02*
X11857904Y-7657962D01*
X11858936Y-7633806D02*
G75*
G02*
X11862215Y-7615410I102644J-8804D01*
G01*
X11862215Y-7615410D02*
G75*
G02*
X11879602Y-7573903I168195J-46060D01*
G01*
X11862215Y-7700515D02*
G75*
G02*
X11858936Y-7682121I99375J27205D01*
G01*
D10*
X11867658Y-7240322D02*
X11629095Y-7130524D01*
X11867658Y-7240322D02*
G75*
G02*
X12015707Y-7324687I-663108J-1335748D01*
G01*
D11*
X11879601Y-7573902D02*
G75*
G02*
X11906893Y-7538707I144639J-83978D01*
G01*
X11885202Y-7750921D02*
G75*
G02*
X11862216Y-7700515I144108J96161D01*
G01*
D10*
X11904008Y-12270634D02*
X12103558Y-12375901D01*
D11*
X11906893Y-7538707D02*
G75*
G02*
X11942563Y-7511883I118097J-119913D01*
G01*
X11922790Y-7791070D02*
G75*
G02*
X11885202Y-7750921I102490J133620D01*
G01*
X11942563Y-7511883D02*
G75*
G02*
X11984526Y-7494931I86997J-154937D01*
G01*
X11971210Y-7816889D02*
G75*
G02*
X11922790Y-7791069I53530J158699D01*
G01*
X11993360Y-7492996D02*
X11984526Y-7494932D01*
X12003302Y-7491535D02*
X11993360Y-7492996D01*
X12013869Y-7490599D02*
X12003302Y-7491535D01*
D10*
X12015707Y-7324687D02*
G75*
G02*
X12124105Y-7412107I-366347J-565173D01*
G01*
D11*
X12024592Y-7490247D02*
X12013869Y-7490599D01*
X12024592Y-7490247D02*
G75*
G02*
X12079339Y-7498900I988J-171273D01*
G01*
X12025561Y-7825810D02*
G75*
G02*
X11971210Y-7816890I-1J170040D01*
G01*
X12079338Y-7498901D02*
G75*
G02*
X12128027Y-7524566I-52308J-158249D01*
G01*
X12079913Y-7816889D02*
G75*
G02*
X12025561Y-7825809I-54333J160999D01*
G01*
D10*
X12103558Y-12375901D02*
X12279589Y-12473084D01*
D11*
X12128027Y-7524566D02*
G75*
G02*
X12165789Y-7564748I-101417J-133144D01*
G01*
X12128333Y-7791070D02*
G75*
G02*
X12079912Y-7816888I-101993J132970D01*
G01*
D10*
X12140857Y-9947524D02*
G75*
G02*
X12161586Y-9936861I12513J1154D01*
G01*
X12161583Y-9936865D02*
G75*
G02*
X12205173Y-9990034I-131393J-152175D01*
G01*
X12162004Y-10138213D02*
X12140857Y-9947524D01*
D11*
X12165789Y-7564748D02*
G75*
G02*
X12188906Y-7615411I-144589J-96582D01*
G01*
X12165920Y-7750921D02*
G75*
G02*
X12128334Y-7791071I-140030J93421D01*
G01*
X12188907Y-7615410D02*
G75*
G02*
X12192186Y-7633806I-99307J-27190D01*
G01*
X12188907Y-7700515D02*
G75*
G02*
X12165919Y-7750920I-167077J45755D01*
G01*
D10*
X12190944Y-10318075D02*
X12162004Y-10138213D01*
D11*
X12192186Y-7682121D02*
G75*
G02*
X12188906Y-7700515I-102696J8821D01*
G01*
X12192186Y-7682121D02*
X12193219Y-7657962D01*
X12193219Y-7657962D02*
X12192186Y-7633806D01*
D10*
X12205175Y-9990033D02*
X12407898Y-10350486D01*
X12208728Y-7496199D02*
X12124105Y-7412107D01*
X12229966Y-10490310D02*
X12190944Y-10318075D01*
X12279589Y-12473084D02*
X12381084Y-12535822D01*
X12290662Y-10701778D02*
X12229966Y-10490310D01*
X12309112Y-7446998D02*
X12208728Y-7496199D01*
X12355031Y-7424886D02*
X12309112Y-7446998D01*
X12381084Y-12535822D02*
X12449839Y-12578365D01*
X12392971Y-11020968D02*
X12290662Y-10701778D01*
X12407898Y-10350486D02*
X12616024Y-10727493D01*
X12410417Y-7398960D02*
X12355031Y-7424886D01*
X12466113Y-7373439D02*
X12410417Y-7398960D01*
X12508078Y-12605568D02*
G75*
G02*
X12449839Y-12578365I145702J387878D01*
G01*
X12508975Y-11376593D02*
X12392971Y-11020968D01*
X12513019Y-7352556D02*
X12466113Y-7373439D01*
X12557875Y-12618799D02*
G75*
G02*
X12508078Y-12605568I41305J255799D01*
G01*
X12566391Y-7325777D02*
G75*
G02*
X12513019Y-7352555I-279441J490397D01*
G01*
X12574368Y-11584636D02*
X12508975Y-11376593D01*
X12600533Y-12618258D02*
G75*
G02*
X12557875Y-12618797I-22873J121948D01*
G01*
X12616024Y-10727493D02*
X12777856Y-11032046D01*
X12619667Y-11741262D02*
X12574368Y-11584636D01*
X12633322Y-7285472D02*
X12566391Y-7325777D01*
X12660341Y-12595189D02*
G75*
G02*
X12600533Y-12618257I-92341J150349D01*
G01*
X12660822Y-11900141D02*
X12619667Y-11741262D01*
X12694584Y-12049366D02*
X12660822Y-11900141D01*
X12706976Y-7236322D02*
X12633322Y-7285472D01*
X12711014Y-12551465D02*
G75*
G02*
X12660342Y-12595190I-159834J134005D01*
G01*
X12726238Y-12212136D02*
X12694584Y-12049366D01*
X12745055Y-12494146D02*
G75*
G02*
X12711015Y-12551465I-192575J75596D01*
G01*
X12751176Y-12359518D02*
X12726238Y-12212136D01*
X12751176Y-12359518D02*
G75*
G02*
X12756850Y-12431825I-458246J-72332D01*
G01*
X12756849Y-12431825D02*
G75*
G02*
X12745056Y-12494146I-170539J-5D01*
G01*
X12777856Y-11032046D02*
X12898039Y-11271318D01*
X12781777Y-7181754D02*
X12706976Y-7236322D01*
X12898039Y-11271318D02*
X12967752Y-11431367D01*
X12938337Y-12702466D02*
G75*
G02*
X12950121Y-12638069I216513J-6344D01*
G01*
X12948210Y-12752981D02*
G75*
G02*
X12938336Y-12702466I106820J47101D01*
G01*
X12950121Y-12638069D02*
G75*
G02*
X12986559Y-12547045I964899J-333451D01*
G01*
X12967752Y-11431367D02*
G75*
G02*
X13070313Y-11754925I-2571992J-993303D01*
G01*
X12979203Y-12798250D02*
G75*
G02*
X12948211Y-12752980I105427J105420D01*
G01*
X13032988Y-12831866D02*
G75*
G02*
X12979203Y-12798250I45932J133326D01*
G01*
X13070313Y-11754925D02*
G75*
G02*
X13106269Y-12027611I-1170033J-292995D01*
G01*
X13078240Y-12281712D02*
G75*
G02*
X12986559Y-12547045I-1422021J342852D01*
G01*
X13092278Y-12835366D02*
G75*
G02*
X13032988Y-12831865I-23388J107706D01*
G01*
X13106268Y-12027611D02*
G75*
G02*
X13078240Y-12281712I-1011359J-17039D01*
G01*
X13181952Y-12805076D02*
G75*
G02*
X13092278Y-12835366I-179592J383796D01*
G01*
X13181952Y-12805076D02*
X13372560Y-12712826D01*
X13372560Y-12712826D02*
X14003682Y-12381382D01*
X13381939Y-6727629D02*
X12781777Y-7181754D01*
X13671879Y-6515897D02*
X13381939Y-6727629D01*
X13862470Y-6389902D02*
X13671879Y-6515897D01*
X13862470Y-6389902D02*
G75*
G02*
X14032101Y-6297107I977730J-1585858D01*
G01*
X14003682Y-12381382D02*
X14870210Y-11895731D01*
X14032101Y-6297107D02*
G75*
G02*
X14289505Y-6196891I775159J-1610303D01*
G01*
X14289505Y-6196891D02*
G75*
G02*
X14542905Y-6145598I398165J-1315469D01*
G01*
X14542905Y-6145599D02*
G75*
G02*
X14812891Y-6141142I159965J-1510261D01*
G01*
X14812891Y-6141142D02*
G75*
G02*
X15120749Y-6181800I-191371J-2634868D01*
G01*
X14870210Y-11895731D02*
X15749220Y-11390560D01*
X15036481Y-10062312D02*
X15170848Y-10047357D01*
X15129828Y-10130633D02*
X15036481Y-10062312D01*
X15338869Y-10290141D02*
X15129828Y-10130633D01*
X15348433Y-6229042D02*
X15120749Y-6181800D01*
X15395779Y-10005232D02*
G75*
G02*
X15170848Y-10047356I-395449J1489982D01*
G01*
X15518366Y-6272800D02*
X15348433Y-6229042D01*
X15520149Y-10442546D02*
X15338869Y-10290141D01*
X15551265Y-9933687D02*
G75*
G02*
X15395779Y-10005234I-283895J412237D01*
G01*
X15656646Y-6319687D02*
X15518366Y-6272800D01*
X15656646Y-6319687D02*
G75*
G02*
X15783460Y-6375966I-511956J-1324603D01*
G01*
X15672399Y-9814561D02*
G75*
G02*
X15551265Y-9933687I-399509J285091D01*
G01*
X15681145Y-10594299D02*
X15520149Y-10442546D01*
X15783460Y-6375966D02*
G75*
G02*
X15986905Y-6490518I-1134300J-2252454D01*
G01*
X15788349Y-9622109D02*
G75*
G02*
X15672399Y-9814561I-1295909J649609D01*
G01*
X15828940Y-10751745D02*
X15681145Y-10594299D01*
X15935266Y-11251095D02*
G75*
G02*
X15749220Y-11390560I-679327J712395D01*
G01*
X15938540Y-10884110D02*
X15828940Y-10751745D01*
X15938540Y-10884110D02*
G75*
G02*
X15995013Y-10976545I-380250J-295780D01*
G01*
X15961152Y-11223624D02*
G75*
G02*
X15935266Y-11251095I-269712J228214D01*
G01*
X15982104Y-11195286D02*
G75*
G02*
X15961152Y-11223624I-225844J145066D01*
G01*
X15986905Y-6490518D02*
G75*
G02*
X16119424Y-6596731I-387555J-619322D01*
G01*
X15995012Y-10976546D02*
G75*
G02*
X16015818Y-11055220I-209242J-97424D01*
G01*
X15997915Y-11166384D02*
G75*
G02*
X15982104Y-11195286I-212945J97714D01*
G01*
X16008418Y-11137220D02*
G75*
G02*
X15997915Y-11166384I-177668J47510D01*
G01*
X16009823Y-9114109D02*
G75*
G02*
X15788349Y-9622109I-4850023J1812199D01*
G01*
X16015818Y-11055220D02*
G75*
G02*
X16008418Y-11137220I-240628J-19620D01*
G01*
X16119424Y-6596731D02*
G75*
G02*
X16210492Y-6718898I-394014J-388739D01*
G01*
X16179731Y-8577280D02*
G75*
G02*
X16009823Y-9114108I-5337521J1394050D01*
G01*
X16210492Y-6718897D02*
G75*
G02*
X16281299Y-6880548I-863722J-474663D01*
G01*
X16281299Y-6880548D02*
G75*
G02*
X16317119Y-7011334I-1151109J-385572D01*
G01*
X16292929Y-8030194D02*
G75*
G02*
X16179732Y-8577280I-5370399J825934D01*
G01*
X16317119Y-7011333D02*
G75*
G02*
X16338643Y-7146825I-1244099J-267087D01*
G01*
X16338643Y-7146825D02*
G75*
G02*
X16347513Y-7301435I-1665543J-173115D01*
G01*
X16344811Y-7491528D02*
G75*
G02*
X16292929Y-8030194I-4781141J188669D01*
G01*
X16344811Y-7491528D02*
X16347513Y-7301435D01*
D12*
X8409640Y-13156192D02*
X8409640Y-12956192D01*
X8409640Y-12956192D02*
X8457259Y-12956192D01*
X8457259Y-12956192D02*
X8485831Y-12965716D01*
X8485831Y-12965716D02*
X8504878Y-12984764D01*
X8504878Y-12984764D02*
X8514402Y-13003811D01*
X8514402Y-13003811D02*
X8523926Y-13041907D01*
X8523926Y-13041907D02*
X8523926Y-13070478D01*
X8523926Y-13070478D02*
X8514402Y-13108573D01*
X8514402Y-13108573D02*
X8504878Y-13127621D01*
X8504878Y-13127621D02*
X8485831Y-13146669D01*
X8485831Y-13146669D02*
X8457259Y-13156192D01*
X8457259Y-13156192D02*
X8409640Y-13156192D01*
X8609640Y-13156192D02*
X8609640Y-13022859D01*
X8609640Y-13060954D02*
X8619164Y-13041907D01*
X8619164Y-13041907D02*
X8628688Y-13032383D01*
X8628688Y-13032383D02*
X8647735Y-13022859D01*
X8647735Y-13022859D02*
X8666783Y-13022859D01*
X8733450Y-13156192D02*
X8733450Y-13022859D01*
X8733450Y-12956192D02*
X8723926Y-12965716D01*
X8723926Y-12965716D02*
X8733450Y-12975240D01*
X8733450Y-12975240D02*
X8742973Y-12965716D01*
X8742973Y-12965716D02*
X8733450Y-12956192D01*
X8733450Y-12956192D02*
X8733450Y-12975240D01*
X8857259Y-13156192D02*
X8838211Y-13146669D01*
X8838211Y-13146669D02*
X8828688Y-13127621D01*
X8828688Y-13127621D02*
X8828688Y-12956192D01*
X8962021Y-13156192D02*
X8942973Y-13146669D01*
X8942973Y-13146669D02*
X8933450Y-13127621D01*
X8933450Y-13127621D02*
X8933450Y-12956192D01*
X9190592Y-13156192D02*
X9190592Y-12956192D01*
X9190592Y-12956192D02*
X9257259Y-13099049D01*
X9257259Y-13099049D02*
X9323926Y-12956192D01*
X9323926Y-12956192D02*
X9323926Y-13156192D01*
X9504878Y-13156192D02*
X9504878Y-13051430D01*
X9504878Y-13051430D02*
X9495354Y-13032383D01*
X9495354Y-13032383D02*
X9476307Y-13022859D01*
X9476307Y-13022859D02*
X9438211Y-13022859D01*
X9438211Y-13022859D02*
X9419164Y-13032383D01*
X9504878Y-13146669D02*
X9485831Y-13156192D01*
X9485831Y-13156192D02*
X9438211Y-13156192D01*
X9438211Y-13156192D02*
X9419164Y-13146669D01*
X9419164Y-13146669D02*
X9409640Y-13127621D01*
X9409640Y-13127621D02*
X9409640Y-13108573D01*
X9409640Y-13108573D02*
X9419164Y-13089526D01*
X9419164Y-13089526D02*
X9438211Y-13080002D01*
X9438211Y-13080002D02*
X9485831Y-13080002D01*
X9485831Y-13080002D02*
X9504878Y-13070478D01*
X9600116Y-13022859D02*
X9600116Y-13222859D01*
X9600116Y-13032383D02*
X9619164Y-13022859D01*
X9619164Y-13022859D02*
X9657259Y-13022859D01*
X9657259Y-13022859D02*
X9676307Y-13032383D01*
X9676307Y-13032383D02*
X9685831Y-13041907D01*
X9685831Y-13041907D02*
X9695354Y-13060954D01*
X9695354Y-13060954D02*
X9695354Y-13118097D01*
X9695354Y-13118097D02*
X9685831Y-13137145D01*
X9685831Y-13137145D02*
X9676307Y-13146669D01*
X9676307Y-13146669D02*
X9657259Y-13156192D01*
X9657259Y-13156192D02*
X9619164Y-13156192D01*
X9619164Y-13156192D02*
X9600116Y-13146669D01*
X9781069Y-13137145D02*
X9790592Y-13146669D01*
X9790592Y-13146669D02*
X9781069Y-13156192D01*
X9781069Y-13156192D02*
X9771545Y-13146669D01*
X9771545Y-13146669D02*
X9781069Y-13137145D01*
X9781069Y-13137145D02*
X9781069Y-13156192D01*
X9781069Y-13032383D02*
X9790592Y-13041907D01*
X9790592Y-13041907D02*
X9781069Y-13051430D01*
X9781069Y-13051430D02*
X9771545Y-13041907D01*
X9771545Y-13041907D02*
X9781069Y-13032383D01*
X9781069Y-13032383D02*
X9781069Y-13051430D01*
M02*
