G04 #@! TF.GenerationSoftware,KiCad,Pcbnew,10.0.3*
G04 #@! TF.CreationDate,2026-09-13T20:11:41-04:00*
G04 #@! TF.ProjectId,Keychain,4b657963-6861-4696-9e2e-6b696361645f,rev?*
G04 #@! TF.SameCoordinates,Original*
G04 #@! TF.FileFunction,Profile,NP*
%FSLAX46Y46*%
G04 Gerber Fmt 4.6, Leading zero omitted, Abs format (unit mm)*
G04 Created by KiCad (PCBNEW 10.0.3) date 2026-09-13 20:11:41*
%MOMM*%
%LPD*%
G01*
G04 APERTURE LIST*
G04 #@! TA.AperFunction,Profile*
%ADD10C,0.136642*%
G04 #@! TD*
G04 #@! TA.AperFunction,Profile*
%ADD11C,0.023641*%
G04 #@! TD*
G04 APERTURE END LIST*
D10*
X81556953Y-76008004D02*
X81824621Y-82020078D01*
X81672012Y-70352485D02*
X81556953Y-76008004D01*
X81672012Y-70352485D02*
G75*
G02*
X82192079Y-65711188I40069788J-2140115D01*
G01*
X81824621Y-82020078D02*
X82471893Y-87779132D01*
X82192076Y-65711188D02*
G75*
G02*
X82967289Y-62474258I25155124J-4313112D01*
G01*
X82471893Y-87779132D02*
X82909683Y-90360166D01*
X82967284Y-62474257D02*
G75*
G02*
X84078217Y-59931050I11911416J-3688943D01*
G01*
X83353590Y-92112281D02*
G75*
G02*
X82909678Y-90360167I14455410J4594681D01*
G01*
X83878229Y-93373884D02*
G75*
G02*
X83353587Y-92112282I7024571J3661084D01*
G01*
X84078216Y-59931049D02*
G75*
G02*
X85492136Y-58118798I7173984J-4139451D01*
G01*
X84559922Y-94348313D02*
G75*
G02*
X83878227Y-93373885I3385078J3093813D01*
G01*
X85320144Y-95039563D02*
G75*
G02*
X84559922Y-94348313I3349856J4447763D01*
G01*
X85492138Y-58118800D02*
G75*
G02*
X87177699Y-57070736I3268462J-3377100D01*
G01*
X86111000Y-95484157D02*
G75*
G02*
X85320150Y-95039555I1261300J3169257D01*
G01*
X87177705Y-57070753D02*
G75*
G02*
X87892850Y-56902616I1100895J-3077547D01*
G01*
X87186453Y-95799897D02*
G75*
G02*
X86110998Y-95484162I1151847J5912897D01*
G01*
X87186453Y-95799897D02*
X88967232Y-96102277D01*
X87892850Y-56902620D02*
G75*
G02*
X88695974Y-56876896I550250J-4629280D01*
G01*
X88419902Y-114761829D02*
G75*
G02*
X88509249Y-114234699I1992998J-66671D01*
G01*
X88479151Y-115275551D02*
G75*
G02*
X88419900Y-114761829I1691349J455351D01*
G01*
X88509252Y-114234700D02*
G75*
G02*
X88790102Y-113525858I4859448J-1515300D01*
G01*
X88644010Y-115669914D02*
G75*
G02*
X88479154Y-115275550I1390990J813114D01*
G01*
X88695974Y-56876902D02*
G75*
G02*
X89492189Y-56989634I-253274J-4656998D01*
G01*
X88924963Y-116061539D02*
G75*
G02*
X88644007Y-115669916I1952637J1697439D01*
G01*
X88967232Y-96102277D02*
X92248594Y-96503335D01*
X89276006Y-116396751D02*
G75*
G02*
X88924964Y-116061538I1625194J2053351D01*
G01*
X89405154Y-112305979D02*
X88790097Y-113525856D01*
X89405154Y-112305979D02*
G75*
G02*
X91171077Y-109335200I28137446J-14715521D01*
G01*
X89492188Y-56989639D02*
G75*
G02*
X90186807Y-57234453I-741688J-3212261D01*
G01*
X89650436Y-116622863D02*
G75*
G02*
X89276004Y-116396753I703564J1588163D01*
G01*
X89868377Y-116671951D02*
G75*
G02*
X89650441Y-116622851I14923J574451D01*
G01*
X89868377Y-116671951D02*
X91448984Y-116709829D01*
X90186802Y-57234463D02*
G75*
G02*
X90503667Y-57422106I-958202J-1979437D01*
G01*
X90977911Y-57775511D02*
X90503667Y-57422105D01*
X91448984Y-116709829D02*
X93274758Y-116738247D01*
X91502150Y-58203337D02*
X90977911Y-57775511D01*
X92006087Y-58653285D02*
X91502150Y-58203337D01*
X92248594Y-96503335D02*
X95401761Y-96735929D01*
X93129178Y-59660072D02*
X92006087Y-58653285D01*
X93274758Y-116738247D02*
X95389402Y-116748875D01*
X93488303Y-106139877D02*
X91171079Y-109335201D01*
X94147104Y-60482666D02*
X93129178Y-59660072D01*
X95258616Y-61275596D02*
X94147104Y-60482666D01*
X95389402Y-116748875D02*
X99194211Y-116774013D01*
X95401761Y-96735929D02*
X98328127Y-96796315D01*
X96347573Y-102722024D02*
X93488303Y-106139877D01*
X96678910Y-62196400D02*
X95258616Y-61275596D01*
X98328127Y-96796315D02*
X100922659Y-96677090D01*
X99194211Y-116774013D02*
X101232854Y-116863988D01*
X99345293Y-63736334D02*
X96678910Y-62196400D01*
X99761208Y-99074696D02*
X96347573Y-102722024D01*
X100922659Y-96677090D02*
X102220053Y-96566434D01*
X101232854Y-116863988D02*
G75*
G02*
X102970793Y-117072910I-1518154J-19962012D01*
G01*
X102220053Y-96566434D02*
X99761208Y-99074696D01*
X102659335Y-65407233D02*
X99345293Y-63736334D01*
X102970792Y-117072914D02*
X105341934Y-117505844D01*
X105341934Y-117505844D02*
X108016335Y-118160472D01*
X106707196Y-67258923D02*
X102659335Y-65407233D01*
X108016335Y-118160472D02*
X110903444Y-119097515D01*
X110903444Y-119097515D02*
X113952461Y-120296763D01*
X111649748Y-69359629D02*
X106707196Y-67258923D01*
X113952461Y-120296763D02*
X117115394Y-121742121D01*
X116290947Y-71305245D02*
X111649748Y-69359629D01*
X117115394Y-121742121D02*
X119040085Y-122706337D01*
D11*
X118579039Y-76579623D02*
X118589365Y-76821210D01*
X118589365Y-76338062D02*
X118579039Y-76579623D01*
X118589365Y-76338062D02*
G75*
G02*
X118622151Y-76154105I1026435J-88038D01*
G01*
X118622152Y-76154105D02*
G75*
G02*
X118796022Y-75739029I1681948J-460595D01*
G01*
X118622152Y-77005153D02*
G75*
G02*
X118589360Y-76821210I993748J272053D01*
G01*
D10*
X118676582Y-72403217D02*
X116290947Y-71305245D01*
X118676582Y-72403217D02*
G75*
G02*
X120157072Y-73246868I-6631082J-13357483D01*
G01*
D11*
X118796015Y-75739025D02*
G75*
G02*
X119068934Y-75387066I1446385J-839775D01*
G01*
X118852022Y-77509208D02*
G75*
G02*
X118622159Y-77005151I1441078J961608D01*
G01*
D10*
X119040085Y-122706337D02*
X121035584Y-123759006D01*
D11*
X119068934Y-75387066D02*
G75*
G02*
X119425629Y-75118828I1180966J-1199134D01*
G01*
X119227898Y-77910697D02*
G75*
G02*
X118852025Y-77509206I1024902J1336197D01*
G01*
X119425632Y-75118833D02*
G75*
G02*
X119845258Y-74949312I869968J-1549367D01*
G01*
X119712100Y-78168888D02*
G75*
G02*
X119227900Y-77910695I535300J1586988D01*
G01*
X119933597Y-74929961D02*
X119845259Y-74949316D01*
X120033020Y-74915351D02*
X119933597Y-74929961D01*
X120138694Y-74905988D02*
X120033020Y-74915351D01*
D10*
X120157071Y-73246869D02*
G75*
G02*
X121241049Y-74121068I-3663471J-5651731D01*
G01*
D11*
X120245920Y-74902474D02*
X120138694Y-74905988D01*
X120245920Y-74902474D02*
G75*
G02*
X120793387Y-74989000I9880J-1712726D01*
G01*
X120255613Y-78258098D02*
G75*
G02*
X119712097Y-78168898I-13J1700398D01*
G01*
X120793384Y-74989009D02*
G75*
G02*
X121280268Y-75245657I-523084J-1582491D01*
G01*
X120799126Y-78168888D02*
G75*
G02*
X120255613Y-78258095I-543326J1609988D01*
G01*
D10*
X121035584Y-123759006D02*
X122795894Y-124730840D01*
D11*
X121280267Y-75245658D02*
G75*
G02*
X121657892Y-75647484I-1014167J-1331442D01*
G01*
X121283328Y-77910697D02*
G75*
G02*
X120799122Y-78168876I-1019928J1329697D01*
G01*
D10*
X121408568Y-99475238D02*
G75*
G02*
X121615856Y-99368613I125132J11538D01*
G01*
X121615827Y-99368647D02*
G75*
G02*
X122051735Y-99900342I-1313927J-1521753D01*
G01*
X121620037Y-101382125D02*
X121408568Y-99475238D01*
D11*
X121657892Y-75647484D02*
G75*
G02*
X121889065Y-76154108I-1445892J-965816D01*
G01*
X121659204Y-77509208D02*
G75*
G02*
X121283338Y-77910710I-1400304J934208D01*
G01*
X121889074Y-76154105D02*
G75*
G02*
X121921861Y-76338062I-993074J-271895D01*
G01*
X121889074Y-77005153D02*
G75*
G02*
X121659191Y-77509199I-1670774J457553D01*
G01*
D10*
X121909442Y-103180754D02*
X121620037Y-101382125D01*
D11*
X121921861Y-76821210D02*
G75*
G02*
X121889065Y-77005151I-1026961J88210D01*
G01*
X121921861Y-76821210D02*
X121932187Y-76579623D01*
X121932187Y-76579623D02*
X121921861Y-76338062D01*
D10*
X122051749Y-99900334D02*
X124078980Y-103504857D01*
X122087285Y-74961987D02*
X121241047Y-74121070D01*
X122299662Y-104903101D02*
X121909442Y-103180754D01*
X122795894Y-124730840D02*
X123810839Y-125358220D01*
X122906618Y-107017782D02*
X122299662Y-104903101D01*
X123091121Y-74469977D02*
X122087285Y-74961987D01*
X123550313Y-74248865D02*
X123091121Y-74469977D01*
X123810839Y-125358220D02*
X124498391Y-125783651D01*
X123929709Y-110209680D02*
X122906618Y-107017782D01*
X124078980Y-103504857D02*
X126160236Y-107274930D01*
X124104171Y-73989605D02*
X123550313Y-74248865D01*
X124661134Y-73734393D02*
X124104171Y-73989605D01*
X125080777Y-126055680D02*
G75*
G02*
X124498390Y-125783652I1457023J3878780D01*
G01*
X125089748Y-113765927D02*
X123929709Y-110209680D01*
X125130188Y-73525556D02*
X124661134Y-73734393D01*
X125578752Y-126187986D02*
G75*
G02*
X125080776Y-126055683I413048J2557986D01*
G01*
X125663914Y-73257774D02*
G75*
G02*
X125130186Y-73525551I-2794414J4903974D01*
G01*
X125743681Y-115846364D02*
X125089748Y-113765927D01*
X126005334Y-126182579D02*
G75*
G02*
X125578755Y-126187970I-228734J1219479D01*
G01*
X126160236Y-107274930D02*
X127778560Y-110320455D01*
X126196674Y-117412624D02*
X125743681Y-115846364D01*
X126333217Y-72854721D02*
X125663914Y-73257774D01*
X126603414Y-125951889D02*
G75*
G02*
X126005332Y-126182566I-923414J1503489D01*
G01*
X126608223Y-119001415D02*
X126196674Y-117412624D01*
X126945838Y-120493664D02*
X126608223Y-119001415D01*
X127069761Y-72363216D02*
X126333217Y-72854721D01*
X127110144Y-125514648D02*
G75*
G02*
X126603421Y-125951900I-1598344J1340048D01*
G01*
X127262382Y-122121365D02*
X126945838Y-120493664D01*
X127450550Y-124941461D02*
G75*
G02*
X127110151Y-125514654I-1925750J755961D01*
G01*
X127511761Y-123595183D02*
X127262382Y-122121365D01*
X127511761Y-123595183D02*
G75*
G02*
X127568496Y-124318249I-4582461J-723317D01*
G01*
X127568493Y-124318249D02*
G75*
G02*
X127450560Y-124941465I-1705393J-51D01*
G01*
X127778560Y-110320455D02*
X128980388Y-112713182D01*
X127817767Y-71817542D02*
X127069761Y-72363216D01*
X128980388Y-112713182D02*
X129677519Y-114313671D01*
X129383368Y-127024658D02*
G75*
G02*
X129501212Y-126380686I2165132J-63442D01*
G01*
X129482096Y-127529807D02*
G75*
G02*
X129383363Y-127024658I1068204J471007D01*
G01*
X129501214Y-126380687D02*
G75*
G02*
X129865587Y-125470453I9648986J-3334513D01*
G01*
X129677519Y-114313671D02*
G75*
G02*
X130703132Y-117549250I-25719919J-9933029D01*
G01*
X129792029Y-127982497D02*
G75*
G02*
X129482110Y-127529801I1054271J1054197D01*
G01*
X130329883Y-128318660D02*
G75*
G02*
X129792029Y-127982497I459317J1333260D01*
G01*
X130703126Y-117549251D02*
G75*
G02*
X131062692Y-120276114I-11700326J-2929949D01*
G01*
X130782405Y-122817124D02*
G75*
G02*
X129865586Y-125470453I-14220205J3428524D01*
G01*
X130922780Y-128353664D02*
G75*
G02*
X130329885Y-128318653I-233880J1077064D01*
G01*
X131062685Y-120276114D02*
G75*
G02*
X130782400Y-122817123I-10113585J-170386D01*
G01*
X131819523Y-128050757D02*
G75*
G02*
X130922779Y-128353661I-1795923J3837957D01*
G01*
X131819523Y-128050757D02*
X133725602Y-127128256D01*
X133725602Y-127128256D02*
X140036824Y-123813825D01*
X133819394Y-67276289D02*
X127817767Y-71817542D01*
X136718795Y-65158967D02*
X133819394Y-67276289D01*
X138624705Y-63899022D02*
X136718795Y-65158967D01*
X138624705Y-63899022D02*
G75*
G02*
X140321012Y-62971069I9777295J-15858578D01*
G01*
X140036824Y-123813825D02*
X148702105Y-118957311D01*
X140321014Y-62971072D02*
G75*
G02*
X142895052Y-61968908I7751586J-16103028D01*
G01*
X142895053Y-61968910D02*
G75*
G02*
X145429051Y-61455985I3981647J-13154690D01*
G01*
X145429052Y-61455994D02*
G75*
G02*
X148128913Y-61411418I1599648J-15102606D01*
G01*
X148128913Y-61411417D02*
G75*
G02*
X151207490Y-61818002I-1913713J-26348683D01*
G01*
X148702105Y-118957311D02*
X157492202Y-113905596D01*
X150364807Y-100623120D02*
X151708477Y-100473570D01*
X151298279Y-101306328D02*
X150364807Y-100623120D01*
X153388695Y-102901405D02*
X151298279Y-101306328D01*
X153484332Y-62290417D02*
X151207491Y-61817997D01*
X153957791Y-100052318D02*
G75*
G02*
X151708476Y-100473562I-3954491J14899818D01*
G01*
X155183662Y-62727996D02*
X153484332Y-62290417D01*
X155201489Y-104425461D02*
X153388695Y-102901405D01*
X155512651Y-99336866D02*
G75*
G02*
X153957795Y-100052335I-2838951J4122366D01*
G01*
X156566464Y-63196868D02*
X155183662Y-62727996D01*
X156566464Y-63196868D02*
G75*
G02*
X157834599Y-63759659I-5119564J-13246032D01*
G01*
X156723991Y-98145606D02*
G75*
G02*
X155512653Y-99336869I-3995091J2850906D01*
G01*
X156811454Y-105942994D02*
X155201489Y-104425461D01*
X157834598Y-63759660D02*
G75*
G02*
X159869048Y-64905182I-11342998J-22524540D01*
G01*
X157883488Y-96221085D02*
G75*
G02*
X156723995Y-98145609I-12959088J6496085D01*
G01*
X158289396Y-107517445D02*
X156811454Y-105942994D01*
X159352665Y-112510951D02*
G75*
G02*
X157492205Y-113905601I-6793265J7123951D01*
G01*
X159385403Y-108841103D02*
X158289396Y-107517445D01*
X159385403Y-108841103D02*
G75*
G02*
X159950129Y-109765454I-3802503J-2957797D01*
G01*
X159611518Y-112236241D02*
G75*
G02*
X159352664Y-112510950I-2697118J2282141D01*
G01*
X159821043Y-111952857D02*
G75*
G02*
X159611519Y-112236242I-2258443J1450657D01*
G01*
X159869047Y-64905184D02*
G75*
G02*
X161194240Y-65967309I-3875547J-6193216D01*
G01*
X159950121Y-109765458D02*
G75*
G02*
X160158182Y-110552202I-2092421J-974242D01*
G01*
X159979147Y-111663838D02*
G75*
G02*
X159821042Y-111952857I-2129447J977138D01*
G01*
X160084178Y-111372196D02*
G75*
G02*
X159979149Y-111663839I-1776678J475096D01*
G01*
X160098231Y-91141085D02*
G75*
G02*
X157883490Y-96221086I-48500231J18121985D01*
G01*
X160158178Y-110552202D02*
G75*
G02*
X160084183Y-111372197I-2406278J-196198D01*
G01*
X161194239Y-65967310D02*
G75*
G02*
X162104916Y-67188976I-3940139J-3887390D01*
G01*
X161797315Y-85772802D02*
G75*
G02*
X160098227Y-91141083I-53375215J13940502D01*
G01*
X162104924Y-67188972D02*
G75*
G02*
X162812991Y-68805480I-8637224J-4746628D01*
G01*
X162812987Y-68805481D02*
G75*
G02*
X163171191Y-70113336I-11511087J-3855719D01*
G01*
X162929294Y-80301939D02*
G75*
G02*
X161797319Y-85772803I-53703994J8259339D01*
G01*
X163171194Y-70113335D02*
G75*
G02*
X163386429Y-71468248I-12440994J-2670865D01*
G01*
X163386427Y-71468248D02*
G75*
G02*
X163475130Y-73014347I-16655427J-1731152D01*
G01*
X163448109Y-74915285D02*
G75*
G02*
X162929289Y-80301938I-47811409J1886685D01*
G01*
X163448109Y-74915285D02*
X163475133Y-73014347D01*
M02*
