G04 #@! TF.GenerationSoftware,KiCad,Pcbnew,10.0.3*
G04 #@! TF.CreationDate,2026-09-13T20:11:41-04:00*
G04 #@! TF.ProjectId,Keychain,4b657963-6861-4696-9e2e-6b696361645f,rev?*
G04 #@! TF.SameCoordinates,Original*
G04 #@! TF.FileFunction,Copper,L2,Bot*
G04 #@! TF.FilePolarity,Positive*
%FSLAX46Y46*%
G04 Gerber Fmt 4.6, Leading zero omitted, Abs format (unit mm)*
G04 Created by KiCad (PCBNEW 10.0.3) date 2026-09-13 20:11:41*
%MOMM*%
%LPD*%
G01*
G04 APERTURE LIST*
G04 Aperture macros list*
%AMRoundRect*
0 Rectangle with rounded corners*
0 $1 Rounding radius*
0 $2 $3 $4 $5 $6 $7 $8 $9 X,Y pos of 4 corners*
0 Add a 4 corners polygon primitive as box body*
4,1,4,$2,$3,$4,$5,$6,$7,$8,$9,$2,$3,0*
0 Add four circle primitives for the rounded corners*
1,1,$1+$1,$2,$3*
1,1,$1+$1,$4,$5*
1,1,$1+$1,$6,$7*
1,1,$1+$1,$8,$9*
0 Add four rect primitives between the rounded corners*
20,1,$1+$1,$2,$3,$4,$5,0*
20,1,$1+$1,$4,$5,$6,$7,0*
20,1,$1+$1,$6,$7,$8,$9,0*
20,1,$1+$1,$8,$9,$2,$3,0*%
G04 Aperture macros list end*
G04 #@! TA.AperFunction,ComponentPad*
%ADD10C,2.000000*%
G04 #@! TD*
G04 #@! TA.AperFunction,ComponentPad*
%ADD11R,1.050000X1.500000*%
G04 #@! TD*
G04 #@! TA.AperFunction,ComponentPad*
%ADD12O,1.050000X1.500000*%
G04 #@! TD*
G04 #@! TA.AperFunction,ComponentPad*
%ADD13C,1.500000*%
G04 #@! TD*
G04 #@! TA.AperFunction,ComponentPad*
%ADD14C,1.600000*%
G04 #@! TD*
G04 #@! TA.AperFunction,ComponentPad*
%ADD15RoundRect,0.250000X-0.550000X-0.550000X0.550000X-0.550000X0.550000X0.550000X-0.550000X0.550000X0*%
G04 #@! TD*
G04 #@! TA.AperFunction,ComponentPad*
%ADD16R,1.800000X1.800000*%
G04 #@! TD*
G04 #@! TA.AperFunction,ComponentPad*
%ADD17C,1.800000*%
G04 #@! TD*
G04 #@! TA.AperFunction,ViaPad*
%ADD18C,0.600000*%
G04 #@! TD*
G04 #@! TA.AperFunction,Conductor*
%ADD19C,0.200000*%
G04 #@! TD*
G04 APERTURE END LIST*
D10*
G04 #@! TO.P,SW2,2,2_2*
G04 #@! TO.N,Net-(U1-THRES)*
X123250000Y-86250000D03*
X116750000Y-86250000D03*
G04 #@! TO.P,SW2,1,1_1*
G04 #@! TO.N,GND*
X123250000Y-81750000D03*
X116750000Y-81750000D03*
G04 #@! TD*
D11*
G04 #@! TO.P,Q1,1,E_1*
G04 #@! TO.N,GND*
X107730000Y-103610000D03*
D12*
G04 #@! TO.P,Q1,2,B_2*
G04 #@! TO.N,Net-(Q1-B)*
X109000000Y-103610000D03*
G04 #@! TO.P,Q1,3,C_3*
G04 #@! TO.N,Net-(Q1-C)*
X110270000Y-103610000D03*
G04 #@! TD*
D13*
G04 #@! TO.P,R3,1*
G04 #@! TO.N,+6V*
X88800000Y-66750000D03*
G04 #@! TO.P,R3,2*
G04 #@! TO.N,Net-(U1-THRES)*
X92200000Y-66750000D03*
G04 #@! TD*
D14*
G04 #@! TO.P,R4,1*
G04 #@! TO.N,Net-(U1-THRES)*
X152250000Y-64000000D03*
G04 #@! TO.P,R4,2*
G04 #@! TO.N,GND*
X144630000Y-64000000D03*
G04 #@! TD*
G04 #@! TO.P,R2,1*
G04 #@! TO.N,Net-(D6-K)*
X100060000Y-114750000D03*
G04 #@! TO.P,R2,2*
G04 #@! TO.N,Net-(Q1-C)*
X92440000Y-114750000D03*
G04 #@! TD*
D15*
G04 #@! TO.P,C1,1*
G04 #@! TO.N,+6V*
X137097349Y-104750000D03*
D14*
G04 #@! TO.P,C1,2*
G04 #@! TO.N,GND*
X142097349Y-104750000D03*
G04 #@! TD*
D16*
G04 #@! TO.P,D6,1,K_1*
G04 #@! TO.N,Net-(D6-K)*
X100710000Y-108750000D03*
D17*
G04 #@! TO.P,D6,2,A_2*
G04 #@! TO.N,Net-(D5-K)*
X103250000Y-108750000D03*
G04 #@! TD*
D16*
G04 #@! TO.P,D5,1,K_1*
G04 #@! TO.N,Net-(D5-K)*
X114750000Y-111500000D03*
D17*
G04 #@! TO.P,D5,2,A_2*
G04 #@! TO.N,Net-(D4-K)*
X117290000Y-111500000D03*
G04 #@! TD*
D16*
G04 #@! TO.P,D4,1,K_1*
G04 #@! TO.N,Net-(D4-K)*
X112480000Y-96250000D03*
D17*
G04 #@! TO.P,D4,2,A_2*
G04 #@! TO.N,+6V*
X115020000Y-96250000D03*
G04 #@! TD*
D14*
G04 #@! TO.P,R1,1*
G04 #@! TO.N,Net-(D3-K)*
X142940000Y-97750000D03*
G04 #@! TO.P,R1,2*
G04 #@! TO.N,Net-(Q1-C)*
X150560000Y-97750000D03*
G04 #@! TD*
D16*
G04 #@! TO.P,D1,1,K_1*
G04 #@! TO.N,Net-(D1-K)*
X146000000Y-108000000D03*
D17*
G04 #@! TO.P,D1,2,A_2*
G04 #@! TO.N,Net-(D1-A)*
X148540000Y-108000000D03*
G04 #@! TD*
D16*
G04 #@! TO.P,D3,1,K_1*
G04 #@! TO.N,Net-(D3-K)*
X130730000Y-99750000D03*
D17*
G04 #@! TO.P,D3,2,A_2*
G04 #@! TO.N,Net-(D1-K)*
X133270000Y-99750000D03*
G04 #@! TD*
D16*
G04 #@! TO.P,D2,1,K_1*
G04 #@! TO.N,Net-(D1-A)*
X137210000Y-114500000D03*
D17*
G04 #@! TO.P,D2,2,A_2*
G04 #@! TO.N,+6V*
X139750000Y-114500000D03*
G04 #@! TD*
D14*
G04 #@! TO.P,R5,1*
G04 #@! TO.N,Net-(U1-OUT)*
X92630000Y-94000000D03*
G04 #@! TO.P,R5,2*
G04 #@! TO.N,Net-(Q1-B)*
X100250000Y-94000000D03*
G04 #@! TD*
D18*
G04 #@! TO.N,+6V*
X136256580Y-84312499D03*
X136077747Y-85835209D03*
X112500000Y-91500000D03*
X110000000Y-85750000D03*
X137750000Y-74250000D03*
X146114579Y-67762149D03*
X127500000Y-98100000D03*
X126250000Y-98100000D03*
X121500000Y-96900000D03*
X117247017Y-97008949D03*
G04 #@! TO.N,GND*
X145500000Y-67250000D03*
X145500000Y-65750000D03*
G04 #@! TO.N,Net-(U1-THRES)*
X127500000Y-86000000D03*
X128500000Y-85699997D03*
X126250000Y-86750000D03*
X125250000Y-86750000D03*
G04 #@! TO.N,GND*
X125000000Y-82000000D03*
X129000000Y-82500000D03*
X108750000Y-89500000D03*
X106750000Y-94750000D03*
X106250000Y-97750000D03*
G04 #@! TO.N,+6V*
X132250000Y-90750000D03*
X130750000Y-95000000D03*
G04 #@! TO.N,GND*
X140500000Y-91500000D03*
X136750000Y-98250000D03*
G04 #@! TO.N,Net-(D3-K)*
X137500000Y-97500000D03*
G04 #@! TO.N,Net-(Q1-C)*
X117500000Y-96250000D03*
X136000000Y-98750000D03*
X128750000Y-97500000D03*
X94500000Y-112500000D03*
G04 #@! TO.N,Net-(D6-K)*
X102000000Y-112250000D03*
G04 #@! TO.N,GND*
X116500000Y-80000000D03*
X107500000Y-82500000D03*
G04 #@! TO.N,+6V*
X109000000Y-74500000D03*
X101081118Y-70168882D03*
G04 #@! TO.N,Net-(U1-OUT)*
X128500000Y-86500000D03*
X114250000Y-88800003D03*
G04 #@! TO.N,Net-(Q1-B)*
X103750000Y-98250000D03*
G04 #@! TO.N,Net-(U1-THRES)*
X114250000Y-88000000D03*
X109000000Y-87500000D03*
X108250000Y-87000000D03*
X152750000Y-66000000D03*
X151750000Y-67750000D03*
G04 #@! TD*
G04 #@! TO.N,+6V*
D19*
X136077747Y-85835209D02*
X136077747Y-84491332D01*
X136077747Y-84491332D02*
X136256580Y-84312499D01*
X112250000Y-91250000D02*
X112500000Y-91500000D01*
X112250000Y-91000000D02*
X112250000Y-91250000D01*
X110000000Y-85750000D02*
X110000000Y-88750000D01*
X110000000Y-88750000D02*
X112250000Y-91000000D01*
X139626728Y-74250000D02*
X137750000Y-74250000D01*
X146114579Y-67762149D02*
X139626728Y-74250000D01*
X126250000Y-98100000D02*
X127500000Y-98100000D01*
X117247017Y-97008949D02*
X116900000Y-96661932D01*
X116900000Y-96001471D02*
X117251471Y-95650000D01*
X116900000Y-96661932D02*
X116900000Y-96001471D01*
X120250000Y-95650000D02*
X121500000Y-96900000D01*
X117251471Y-95650000D02*
X120250000Y-95650000D01*
G04 #@! TO.N,GND*
X145500000Y-65750000D02*
X145500000Y-67250000D01*
G04 #@! TO.N,Net-(U1-THRES)*
X128499716Y-85700281D02*
X127799719Y-85700281D01*
X128500000Y-85699997D02*
X128499716Y-85700281D01*
X127799719Y-85700281D02*
X127500000Y-86000000D01*
X125250000Y-86750000D02*
X126250000Y-86750000D01*
G04 #@! TO.N,GND*
X128500000Y-82000000D02*
X129000000Y-82500000D01*
X125000000Y-82000000D02*
X128500000Y-82000000D01*
X107500000Y-88250000D02*
X107500000Y-82500000D01*
X108750000Y-89500000D02*
X107500000Y-88250000D01*
X106250000Y-95250000D02*
X106750000Y-94750000D01*
X106250000Y-97750000D02*
X106250000Y-95250000D01*
G04 #@! TO.N,+6V*
X132250000Y-93500000D02*
X132250000Y-90750000D01*
X130750000Y-95000000D02*
X132250000Y-93500000D01*
G04 #@! TO.N,GND*
X137598529Y-98250000D02*
X140500000Y-95348529D01*
X136750000Y-98250000D02*
X137598529Y-98250000D01*
X140500000Y-95348529D02*
X140500000Y-91500000D01*
G04 #@! TO.N,Net-(D3-K)*
X132980000Y-97500000D02*
X130730000Y-99750000D01*
X137500000Y-97500000D02*
X132980000Y-97500000D01*
G04 #@! TO.N,Net-(Q1-C)*
X136100000Y-98850000D02*
X149460000Y-98850000D01*
X136000000Y-98750000D02*
X136100000Y-98850000D01*
X149460000Y-98850000D02*
X150560000Y-97750000D01*
X118750000Y-97500000D02*
X128750000Y-97500000D01*
X117500000Y-96250000D02*
X118750000Y-97500000D01*
X109341726Y-104660000D02*
X110270000Y-103731726D01*
X110270000Y-103731726D02*
X110270000Y-103610000D01*
X94500000Y-112500000D02*
X102340000Y-104660000D01*
X102340000Y-104660000D02*
X109341726Y-104660000D01*
G04 #@! TO.N,Net-(D6-K)*
X102000000Y-112250000D02*
X102000000Y-112810000D01*
X102000000Y-112810000D02*
X100060000Y-114750000D01*
G04 #@! TO.N,GND*
X107500000Y-82500000D02*
X110000000Y-80000000D01*
X110000000Y-80000000D02*
X116500000Y-80000000D01*
G04 #@! TO.N,+6V*
X101081118Y-70168882D02*
X105412236Y-74500000D01*
X105412236Y-74500000D02*
X109000000Y-74500000D01*
G04 #@! TO.N,Net-(U1-OUT)*
X125949997Y-88800003D02*
X114250000Y-88800003D01*
X128250000Y-86500000D02*
X125949997Y-88800003D01*
X128500000Y-86500000D02*
X128250000Y-86500000D01*
G04 #@! TO.N,Net-(Q1-B)*
X109000000Y-103005000D02*
X109000000Y-103610000D01*
X104245000Y-98250000D02*
X109000000Y-103005000D01*
X103750000Y-98250000D02*
X104245000Y-98250000D01*
G04 #@! TO.N,Net-(U1-THRES)*
X115250000Y-87750000D02*
X116750000Y-86250000D01*
X114500000Y-87750000D02*
X115250000Y-87750000D01*
X114250000Y-88000000D02*
X114500000Y-87750000D01*
X108500000Y-87000000D02*
X109000000Y-87500000D01*
X108250000Y-87000000D02*
X108500000Y-87000000D01*
X152750000Y-66000000D02*
X152750000Y-66750000D01*
X152750000Y-66750000D02*
X151750000Y-67750000D01*
G04 #@! TD*
M02*
