%TF.GenerationSoftware,KiCad,Pcbnew,10.0.3*%
%TF.CreationDate,2026-09-13T20:11:41-04:00*%
%TF.ProjectId,Keychain,4b657963-6861-4696-9e2e-6b696361645f,rev?*%
%TF.SameCoordinates,Original*%
%TF.FileFunction,Drillmap*%
%TF.FilePolarity,Positive*%
%FSLAX45Y45*%
G04 Gerber Fmt 4.5, Leading zero omitted, Abs format (unit mm)*
G04 Created by KiCad (PCBNEW 10.0.3) date 2026-09-13 20:11:41*
%MOMM*%
%LPD*%
G01*
G04 APERTURE LIST*
%ADD10C,0.136642*%
%ADD11C,0.023641*%
%ADD12C,0.200000*%
%ADD13C,0.100000*%
%ADD14C,0.110000*%
G04 APERTURE END LIST*
D10*
X8155695Y-7600800D02*
X8182462Y-8202008D01*
X8167201Y-7035248D02*
X8155695Y-7600800D01*
X8167201Y-7035248D02*
G75*
G02*
X8219208Y-6571119I4006979J-214012D01*
G01*
X8182462Y-8202008D02*
X8247189Y-8777913D01*
X8219208Y-6571119D02*
G75*
G02*
X8296729Y-6247426I2515512J-431311D01*
G01*
X8247189Y-8777913D02*
X8290968Y-9036017D01*
X8296728Y-6247426D02*
G75*
G02*
X8407822Y-5993105I1191142J-368894D01*
G01*
X8335359Y-9211228D02*
G75*
G02*
X8290968Y-9036017I1445541J459468D01*
G01*
X8387823Y-9337388D02*
G75*
G02*
X8335359Y-9211228I702457J366108D01*
G01*
X8407822Y-5993105D02*
G75*
G02*
X8549214Y-5811880I717398J-413945D01*
G01*
X8455992Y-9434831D02*
G75*
G02*
X8387823Y-9337389I338508J309381D01*
G01*
X8532014Y-9503956D02*
G75*
G02*
X8455992Y-9434831I334986J444776D01*
G01*
X8549214Y-5811880D02*
G75*
G02*
X8717770Y-5707074I326846J-337710D01*
G01*
X8611100Y-9548416D02*
G75*
G02*
X8532015Y-9503956I126130J316926D01*
G01*
X8717771Y-5707075D02*
G75*
G02*
X8789285Y-5690262I110090J-307755D01*
G01*
X8718645Y-9579990D02*
G75*
G02*
X8611100Y-9548416I115185J591290D01*
G01*
X8718645Y-9579990D02*
X8896723Y-9610228D01*
X8789285Y-5690262D02*
G75*
G02*
X8869597Y-5687690I55025J-462928D01*
G01*
X8841990Y-11476183D02*
G75*
G02*
X8850925Y-11423470I199300J-6667D01*
G01*
X8847915Y-11527555D02*
G75*
G02*
X8841990Y-11476183I169135J45535D01*
G01*
X8850925Y-11423470D02*
G75*
G02*
X8879010Y-11352586I485945J-151530D01*
G01*
X8864401Y-11566991D02*
G75*
G02*
X8847915Y-11527555I139099J81311D01*
G01*
X8869597Y-5687690D02*
G75*
G02*
X8949219Y-5698963I-25327J-465700D01*
G01*
X8892496Y-11606154D02*
G75*
G02*
X8864401Y-11566992I195264J169744D01*
G01*
X8896723Y-9610228D02*
X9224859Y-9650334D01*
X8927601Y-11639675D02*
G75*
G02*
X8892496Y-11606154I162519J205335D01*
G01*
X8940515Y-11230598D02*
X8879010Y-11352586D01*
X8940515Y-11230598D02*
G75*
G02*
X9117108Y-10933520I2813745J-1471552D01*
G01*
X8949219Y-5698964D02*
G75*
G02*
X9018681Y-5723445I-74169J-321226D01*
G01*
X8965044Y-11662286D02*
G75*
G02*
X8927600Y-11639675I70356J158816D01*
G01*
X8986838Y-11667195D02*
G75*
G02*
X8965044Y-11662285I1492J57445D01*
G01*
X8986838Y-11667195D02*
X9144898Y-11670983D01*
X9018680Y-5723446D02*
G75*
G02*
X9050367Y-5742211I-95820J-197944D01*
G01*
X9097791Y-5777551D02*
X9050367Y-5742210D01*
X9144898Y-11670983D02*
X9327476Y-11673825D01*
X9150215Y-5820334D02*
X9097791Y-5777551D01*
X9200609Y-5865328D02*
X9150215Y-5820334D01*
X9224859Y-9650334D02*
X9540176Y-9673593D01*
X9312918Y-5966007D02*
X9200609Y-5865328D01*
X9327476Y-11673825D02*
X9538940Y-11674887D01*
X9348830Y-10613988D02*
X9117108Y-10933520D01*
X9414710Y-6048267D02*
X9312918Y-5966007D01*
X9525862Y-6127560D02*
X9414710Y-6048267D01*
X9538940Y-11674887D02*
X9919421Y-11677401D01*
X9540176Y-9673593D02*
X9832813Y-9679632D01*
X9634757Y-10272202D02*
X9348830Y-10613988D01*
X9667891Y-6219640D02*
X9525862Y-6127560D01*
X9832813Y-9679632D02*
X10092266Y-9667709D01*
X9919421Y-11677401D02*
X10123285Y-11686399D01*
X9934529Y-6373633D02*
X9667891Y-6219640D01*
X9976121Y-9907470D02*
X9634757Y-10272202D01*
X10092266Y-9667709D02*
X10222005Y-9656643D01*
X10123285Y-11686399D02*
G75*
G02*
X10297079Y-11707291I-151815J-1996201D01*
G01*
X10222005Y-9656643D02*
X9976121Y-9907470D01*
X10265934Y-6540723D02*
X9934529Y-6373633D01*
X10297079Y-11707291D02*
X10534193Y-11750584D01*
X10534193Y-11750584D02*
X10801634Y-11816047D01*
X10670720Y-6725892D02*
X10265934Y-6540723D01*
X10801634Y-11816047D02*
X11090344Y-11909751D01*
X11090344Y-11909751D02*
X11395246Y-12029676D01*
X11164975Y-6935963D02*
X10670720Y-6725892D01*
X11395246Y-12029676D02*
X11711539Y-12174212D01*
X11629095Y-7130524D02*
X11164975Y-6935963D01*
X11711539Y-12174212D02*
X11904008Y-12270634D01*
D11*
X11857904Y-7657962D02*
X11858936Y-7682121D01*
X11858936Y-7633806D02*
X11857904Y-7657962D01*
X11858936Y-7633806D02*
G75*
G02*
X11862215Y-7615410I102644J-8804D01*
G01*
X11862215Y-7615410D02*
G75*
G02*
X11879602Y-7573903I168195J-46060D01*
G01*
X11862215Y-7700515D02*
G75*
G02*
X11858936Y-7682121I99375J27205D01*
G01*
D10*
X11867658Y-7240322D02*
X11629095Y-7130524D01*
X11867658Y-7240322D02*
G75*
G02*
X12015707Y-7324687I-663108J-1335748D01*
G01*
D11*
X11879601Y-7573902D02*
G75*
G02*
X11906893Y-7538707I144639J-83978D01*
G01*
X11885202Y-7750921D02*
G75*
G02*
X11862216Y-7700515I144108J96161D01*
G01*
D10*
X11904008Y-12270634D02*
X12103558Y-12375901D01*
D11*
X11906893Y-7538707D02*
G75*
G02*
X11942563Y-7511883I118097J-119913D01*
G01*
X11922790Y-7791070D02*
G75*
G02*
X11885202Y-7750921I102490J133620D01*
G01*
X11942563Y-7511883D02*
G75*
G02*
X11984526Y-7494931I86997J-154937D01*
G01*
X11971210Y-7816889D02*
G75*
G02*
X11922790Y-7791069I53530J158699D01*
G01*
X11993360Y-7492996D02*
X11984526Y-7494932D01*
X12003302Y-7491535D02*
X11993360Y-7492996D01*
X12013869Y-7490599D02*
X12003302Y-7491535D01*
D10*
X12015707Y-7324687D02*
G75*
G02*
X12124105Y-7412107I-366347J-565173D01*
G01*
D11*
X12024592Y-7490247D02*
X12013869Y-7490599D01*
X12024592Y-7490247D02*
G75*
G02*
X12079339Y-7498900I988J-171273D01*
G01*
X12025561Y-7825810D02*
G75*
G02*
X11971210Y-7816890I-1J170040D01*
G01*
X12079338Y-7498901D02*
G75*
G02*
X12128027Y-7524566I-52308J-158249D01*
G01*
X12079913Y-7816889D02*
G75*
G02*
X12025561Y-7825809I-54333J160999D01*
G01*
D10*
X12103558Y-12375901D02*
X12279589Y-12473084D01*
D11*
X12128027Y-7524566D02*
G75*
G02*
X12165789Y-7564748I-101417J-133144D01*
G01*
X12128333Y-7791070D02*
G75*
G02*
X12079912Y-7816888I-101993J132970D01*
G01*
D10*
X12140857Y-9947524D02*
G75*
G02*
X12161586Y-9936861I12513J1154D01*
G01*
X12161583Y-9936865D02*
G75*
G02*
X12205173Y-9990034I-131393J-152175D01*
G01*
X12162004Y-10138213D02*
X12140857Y-9947524D01*
D11*
X12165789Y-7564748D02*
G75*
G02*
X12188906Y-7615411I-144589J-96582D01*
G01*
X12165920Y-7750921D02*
G75*
G02*
X12128334Y-7791071I-140030J93421D01*
G01*
X12188907Y-7615410D02*
G75*
G02*
X12192186Y-7633806I-99307J-27190D01*
G01*
X12188907Y-7700515D02*
G75*
G02*
X12165919Y-7750920I-167077J45755D01*
G01*
D10*
X12190944Y-10318075D02*
X12162004Y-10138213D01*
D11*
X12192186Y-7682121D02*
G75*
G02*
X12188906Y-7700515I-102696J8821D01*
G01*
X12192186Y-7682121D02*
X12193219Y-7657962D01*
X12193219Y-7657962D02*
X12192186Y-7633806D01*
D10*
X12205175Y-9990033D02*
X12407898Y-10350486D01*
X12208728Y-7496199D02*
X12124105Y-7412107D01*
X12229966Y-10490310D02*
X12190944Y-10318075D01*
X12279589Y-12473084D02*
X12381084Y-12535822D01*
X12290662Y-10701778D02*
X12229966Y-10490310D01*
X12309112Y-7446998D02*
X12208728Y-7496199D01*
X12355031Y-7424886D02*
X12309112Y-7446998D01*
X12381084Y-12535822D02*
X12449839Y-12578365D01*
X12392971Y-11020968D02*
X12290662Y-10701778D01*
X12407898Y-10350486D02*
X12616024Y-10727493D01*
X12410417Y-7398960D02*
X12355031Y-7424886D01*
X12466113Y-7373439D02*
X12410417Y-7398960D01*
X12508078Y-12605568D02*
G75*
G02*
X12449839Y-12578365I145702J387878D01*
G01*
X12508975Y-11376593D02*
X12392971Y-11020968D01*
X12513019Y-7352556D02*
X12466113Y-7373439D01*
X12557875Y-12618799D02*
G75*
G02*
X12508078Y-12605568I41305J255799D01*
G01*
X12566391Y-7325777D02*
G75*
G02*
X12513019Y-7352555I-279441J490397D01*
G01*
X12574368Y-11584636D02*
X12508975Y-11376593D01*
X12600533Y-12618258D02*
G75*
G02*
X12557875Y-12618797I-22873J121948D01*
G01*
X12616024Y-10727493D02*
X12777856Y-11032046D01*
X12619667Y-11741262D02*
X12574368Y-11584636D01*
X12633322Y-7285472D02*
X12566391Y-7325777D01*
X12660341Y-12595189D02*
G75*
G02*
X12600533Y-12618257I-92341J150349D01*
G01*
X12660822Y-11900141D02*
X12619667Y-11741262D01*
X12694584Y-12049366D02*
X12660822Y-11900141D01*
X12706976Y-7236322D02*
X12633322Y-7285472D01*
X12711014Y-12551465D02*
G75*
G02*
X12660342Y-12595190I-159834J134005D01*
G01*
X12726238Y-12212136D02*
X12694584Y-12049366D01*
X12745055Y-12494146D02*
G75*
G02*
X12711015Y-12551465I-192575J75596D01*
G01*
X12751176Y-12359518D02*
X12726238Y-12212136D01*
X12751176Y-12359518D02*
G75*
G02*
X12756850Y-12431825I-458246J-72332D01*
G01*
X12756849Y-12431825D02*
G75*
G02*
X12745056Y-12494146I-170539J-5D01*
G01*
X12777856Y-11032046D02*
X12898039Y-11271318D01*
X12781777Y-7181754D02*
X12706976Y-7236322D01*
X12898039Y-11271318D02*
X12967752Y-11431367D01*
X12938337Y-12702466D02*
G75*
G02*
X12950121Y-12638069I216513J-6344D01*
G01*
X12948210Y-12752981D02*
G75*
G02*
X12938336Y-12702466I106820J47101D01*
G01*
X12950121Y-12638069D02*
G75*
G02*
X12986559Y-12547045I964899J-333451D01*
G01*
X12967752Y-11431367D02*
G75*
G02*
X13070313Y-11754925I-2571992J-993303D01*
G01*
X12979203Y-12798250D02*
G75*
G02*
X12948211Y-12752980I105427J105420D01*
G01*
X13032988Y-12831866D02*
G75*
G02*
X12979203Y-12798250I45932J133326D01*
G01*
X13070313Y-11754925D02*
G75*
G02*
X13106269Y-12027611I-1170033J-292995D01*
G01*
X13078240Y-12281712D02*
G75*
G02*
X12986559Y-12547045I-1422021J342852D01*
G01*
X13092278Y-12835366D02*
G75*
G02*
X13032988Y-12831865I-23388J107706D01*
G01*
X13106268Y-12027611D02*
G75*
G02*
X13078240Y-12281712I-1011359J-17039D01*
G01*
X13181952Y-12805076D02*
G75*
G02*
X13092278Y-12835366I-179592J383796D01*
G01*
X13181952Y-12805076D02*
X13372560Y-12712826D01*
X13372560Y-12712826D02*
X14003682Y-12381382D01*
X13381939Y-6727629D02*
X12781777Y-7181754D01*
X13671879Y-6515897D02*
X13381939Y-6727629D01*
X13862470Y-6389902D02*
X13671879Y-6515897D01*
X13862470Y-6389902D02*
G75*
G02*
X14032101Y-6297107I977730J-1585858D01*
G01*
X14003682Y-12381382D02*
X14870210Y-11895731D01*
X14032101Y-6297107D02*
G75*
G02*
X14289505Y-6196891I775159J-1610303D01*
G01*
X14289505Y-6196891D02*
G75*
G02*
X14542905Y-6145598I398165J-1315469D01*
G01*
X14542905Y-6145599D02*
G75*
G02*
X14812891Y-6141142I159965J-1510261D01*
G01*
X14812891Y-6141142D02*
G75*
G02*
X15120749Y-6181800I-191371J-2634868D01*
G01*
X14870210Y-11895731D02*
X15749220Y-11390560D01*
X15036481Y-10062312D02*
X15170848Y-10047357D01*
X15129828Y-10130633D02*
X15036481Y-10062312D01*
X15338869Y-10290141D02*
X15129828Y-10130633D01*
X15348433Y-6229042D02*
X15120749Y-6181800D01*
X15395779Y-10005232D02*
G75*
G02*
X15170848Y-10047356I-395449J1489982D01*
G01*
X15518366Y-6272800D02*
X15348433Y-6229042D01*
X15520149Y-10442546D02*
X15338869Y-10290141D01*
X15551265Y-9933687D02*
G75*
G02*
X15395779Y-10005234I-283895J412237D01*
G01*
X15656646Y-6319687D02*
X15518366Y-6272800D01*
X15656646Y-6319687D02*
G75*
G02*
X15783460Y-6375966I-511956J-1324603D01*
G01*
X15672399Y-9814561D02*
G75*
G02*
X15551265Y-9933687I-399509J285091D01*
G01*
X15681145Y-10594299D02*
X15520149Y-10442546D01*
X15783460Y-6375966D02*
G75*
G02*
X15986905Y-6490518I-1134300J-2252454D01*
G01*
X15788349Y-9622109D02*
G75*
G02*
X15672399Y-9814561I-1295909J649609D01*
G01*
X15828940Y-10751745D02*
X15681145Y-10594299D01*
X15935266Y-11251095D02*
G75*
G02*
X15749220Y-11390560I-679327J712395D01*
G01*
X15938540Y-10884110D02*
X15828940Y-10751745D01*
X15938540Y-10884110D02*
G75*
G02*
X15995013Y-10976545I-380250J-295780D01*
G01*
X15961152Y-11223624D02*
G75*
G02*
X15935266Y-11251095I-269712J228214D01*
G01*
X15982104Y-11195286D02*
G75*
G02*
X15961152Y-11223624I-225844J145066D01*
G01*
X15986905Y-6490518D02*
G75*
G02*
X16119424Y-6596731I-387555J-619322D01*
G01*
X15995012Y-10976546D02*
G75*
G02*
X16015818Y-11055220I-209242J-97424D01*
G01*
X15997915Y-11166384D02*
G75*
G02*
X15982104Y-11195286I-212945J97714D01*
G01*
X16008418Y-11137220D02*
G75*
G02*
X15997915Y-11166384I-177668J47510D01*
G01*
X16009823Y-9114109D02*
G75*
G02*
X15788349Y-9622109I-4850023J1812199D01*
G01*
X16015818Y-11055220D02*
G75*
G02*
X16008418Y-11137220I-240628J-19620D01*
G01*
X16119424Y-6596731D02*
G75*
G02*
X16210492Y-6718898I-394014J-388739D01*
G01*
X16179731Y-8577280D02*
G75*
G02*
X16009823Y-9114108I-5337521J1394050D01*
G01*
X16210492Y-6718897D02*
G75*
G02*
X16281299Y-6880548I-863722J-474663D01*
G01*
X16281299Y-6880548D02*
G75*
G02*
X16317119Y-7011334I-1151109J-385572D01*
G01*
X16292929Y-8030194D02*
G75*
G02*
X16179732Y-8577280I-5370399J825934D01*
G01*
X16317119Y-7011333D02*
G75*
G02*
X16338643Y-7146825I-1244099J-267087D01*
G01*
X16338643Y-7146825D02*
G75*
G02*
X16347513Y-7301435I-1665543J-173115D01*
G01*
X16344811Y-7491528D02*
G75*
G02*
X16292929Y-8030194I-4781141J188669D01*
G01*
X16344811Y-7491528D02*
X16347513Y-7301435D01*
D12*
D13*
X9435000Y-11235000D02*
X9465000Y-11265000D01*
X9465000Y-11235000D02*
X9435000Y-11265000D01*
X10093112Y-7001888D02*
X10123112Y-7031888D01*
X10123112Y-7001888D02*
X10093112Y-7031888D01*
X10185000Y-11210000D02*
X10215000Y-11240000D01*
X10215000Y-11210000D02*
X10185000Y-11240000D01*
X10360000Y-9810000D02*
X10390000Y-9840000D01*
X10390000Y-9810000D02*
X10360000Y-9840000D01*
X10610000Y-9760000D02*
X10640000Y-9790000D01*
X10640000Y-9760000D02*
X10610000Y-9790000D01*
X10660000Y-9460000D02*
X10690000Y-9490000D01*
X10690000Y-9460000D02*
X10660000Y-9490000D01*
X10735000Y-8235000D02*
X10765000Y-8265000D01*
X10765000Y-8235000D02*
X10735000Y-8265000D01*
X10810000Y-8685000D02*
X10840000Y-8715000D01*
X10840000Y-8685000D02*
X10810000Y-8715000D01*
X10860000Y-8935000D02*
X10890000Y-8965000D01*
X10890000Y-8935000D02*
X10860000Y-8965000D01*
X10885000Y-7435000D02*
X10915000Y-7465000D01*
X10915000Y-7435000D02*
X10885000Y-7465000D01*
X10885000Y-8735000D02*
X10915000Y-8765000D01*
X10915000Y-8735000D02*
X10885000Y-8765000D01*
X10985000Y-8560000D02*
X11015000Y-8590000D01*
X11015000Y-8560000D02*
X10985000Y-8590000D01*
X11235000Y-9135000D02*
X11265000Y-9165000D01*
X11265000Y-9135000D02*
X11235000Y-9165000D01*
X11410000Y-8785000D02*
X11440000Y-8815000D01*
X11440000Y-8785000D02*
X11410000Y-8815000D01*
X11410000Y-8865000D02*
X11440000Y-8895000D01*
X11440000Y-8865000D02*
X11410000Y-8895000D01*
X11635000Y-7985000D02*
X11665000Y-8015000D01*
X11665000Y-7985000D02*
X11635000Y-8015000D01*
X11709702Y-9685895D02*
X11739702Y-9715895D01*
X11739702Y-9685895D02*
X11709702Y-9715895D01*
X11735000Y-9610000D02*
X11765000Y-9640000D01*
X11765000Y-9610000D02*
X11735000Y-9640000D01*
X12135000Y-9675000D02*
X12165000Y-9705000D01*
X12165000Y-9675000D02*
X12135000Y-9705000D01*
X12485000Y-8185000D02*
X12515000Y-8215000D01*
X12515000Y-8185000D02*
X12485000Y-8215000D01*
X12510000Y-8660000D02*
X12540000Y-8690000D01*
X12540000Y-8660000D02*
X12510000Y-8690000D01*
X12610000Y-8660000D02*
X12640000Y-8690000D01*
X12640000Y-8660000D02*
X12610000Y-8690000D01*
X12610000Y-9795000D02*
X12640000Y-9825000D01*
X12640000Y-9795000D02*
X12610000Y-9825000D01*
X12735000Y-8585000D02*
X12765000Y-8615000D01*
X12765000Y-8585000D02*
X12735000Y-8615000D01*
X12735000Y-9795000D02*
X12765000Y-9825000D01*
X12765000Y-9795000D02*
X12735000Y-9825000D01*
X12835000Y-8555000D02*
X12865000Y-8585000D01*
X12865000Y-8555000D02*
X12835000Y-8585000D01*
X12835000Y-8635000D02*
X12865000Y-8665000D01*
X12865000Y-8635000D02*
X12835000Y-8665000D01*
X12860000Y-9735000D02*
X12890000Y-9765000D01*
X12890000Y-9735000D02*
X12860000Y-9765000D01*
X12885000Y-8235000D02*
X12915000Y-8265000D01*
X12915000Y-8235000D02*
X12885000Y-8265000D01*
X13060000Y-9485000D02*
X13090000Y-9515000D01*
X13090000Y-9485000D02*
X13060000Y-9515000D01*
X13210000Y-9060000D02*
X13240000Y-9090000D01*
X13240000Y-9060000D02*
X13210000Y-9090000D01*
X13585000Y-9860000D02*
X13615000Y-9890000D01*
X13615000Y-9860000D02*
X13585000Y-9890000D01*
X13592775Y-8568521D02*
X13622775Y-8598521D01*
X13622775Y-8568521D02*
X13592775Y-8598521D01*
X13610658Y-8416250D02*
X13640658Y-8446250D01*
X13640658Y-8416250D02*
X13610658Y-8446250D01*
X13660000Y-9810000D02*
X13690000Y-9840000D01*
X13690000Y-9810000D02*
X13660000Y-9840000D01*
X13735000Y-9735000D02*
X13765000Y-9765000D01*
X13765000Y-9735000D02*
X13735000Y-9765000D01*
X13760000Y-7410000D02*
X13790000Y-7440000D01*
X13790000Y-7410000D02*
X13760000Y-7440000D01*
X14035000Y-9135000D02*
X14065000Y-9165000D01*
X14065000Y-9135000D02*
X14035000Y-9165000D01*
X14535000Y-6560000D02*
X14565000Y-6590000D01*
X14565000Y-6560000D02*
X14535000Y-6590000D01*
X14535000Y-6710000D02*
X14565000Y-6740000D01*
X14565000Y-6710000D02*
X14535000Y-6740000D01*
X14596458Y-6761215D02*
X14626458Y-6791215D01*
X14626458Y-6761215D02*
X14596458Y-6791215D01*
X15160000Y-6760000D02*
X15190000Y-6790000D01*
X15190000Y-6760000D02*
X15160000Y-6790000D01*
X15260000Y-6585000D02*
X15290000Y-6615000D01*
X15290000Y-6585000D02*
X15260000Y-6615000D01*
X10810500Y-10361000D02*
G75*
G02*
X10735500Y-10361000I-37500J0D01*
G01*
X10735500Y-10361000D02*
G75*
G02*
X10810500Y-10361000I37500J0D01*
G01*
X10937500Y-10361000D02*
G75*
G02*
X10862500Y-10361000I-37500J0D01*
G01*
X10862500Y-10361000D02*
G75*
G02*
X10937500Y-10361000I37500J0D01*
G01*
X11064500Y-10361000D02*
G75*
G02*
X10989500Y-10361000I-37500J0D01*
G01*
X10989500Y-10361000D02*
G75*
G02*
X11064500Y-10361000I37500J0D01*
G01*
X8880000Y-6635000D02*
X8880000Y-6715000D01*
X8840000Y-6675000D02*
X8920000Y-6675000D01*
X9220000Y-6635000D02*
X9220000Y-6715000D01*
X9180000Y-6675000D02*
X9260000Y-6675000D01*
X9244000Y-11435000D02*
X9244000Y-11515000D01*
X9204000Y-11475000D02*
X9284000Y-11475000D01*
X9263000Y-9360000D02*
X9263000Y-9440000D01*
X9223000Y-9400000D02*
X9303000Y-9400000D01*
X10006000Y-11435000D02*
X10006000Y-11515000D01*
X9966000Y-11475000D02*
X10046000Y-11475000D01*
X10025000Y-9360000D02*
X10025000Y-9440000D01*
X9985000Y-9400000D02*
X10065000Y-9400000D01*
X13709735Y-10435000D02*
X13709735Y-10515000D01*
X13669735Y-10475000D02*
X13749735Y-10475000D01*
X14209735Y-10435000D02*
X14209735Y-10515000D01*
X14169735Y-10475000D02*
X14249735Y-10475000D01*
X14294000Y-9735000D02*
X14294000Y-9815000D01*
X14254000Y-9775000D02*
X14334000Y-9775000D01*
X14463000Y-6360000D02*
X14463000Y-6440000D01*
X14423000Y-6400000D02*
X14503000Y-6400000D01*
X15056000Y-9735000D02*
X15056000Y-9815000D01*
X15016000Y-9775000D02*
X15096000Y-9775000D01*
X15225000Y-6360000D02*
X15225000Y-6440000D01*
X15185000Y-6400000D02*
X15265000Y-6400000D01*
X10102820Y-10906820D02*
X10102820Y-10843180D01*
X10039180Y-10843180D01*
X10039180Y-10906820D01*
X10102820Y-10906820D01*
X10356820Y-10906820D02*
X10356820Y-10843180D01*
X10293180Y-10843180D01*
X10293180Y-10906820D01*
X10356820Y-10906820D01*
X11279820Y-9656820D02*
X11279820Y-9593180D01*
X11216180Y-9593180D01*
X11216180Y-9656820D01*
X11279820Y-9656820D01*
X11506820Y-11181820D02*
X11506820Y-11118180D01*
X11443180Y-11118180D01*
X11443180Y-11181820D01*
X11506820Y-11181820D01*
X11533820Y-9656820D02*
X11533820Y-9593180D01*
X11470180Y-9593180D01*
X11470180Y-9656820D01*
X11533820Y-9656820D01*
X11760820Y-11181820D02*
X11760820Y-11118180D01*
X11697180Y-11118180D01*
X11697180Y-11181820D01*
X11760820Y-11181820D01*
X13104820Y-10006820D02*
X13104820Y-9943180D01*
X13041180Y-9943180D01*
X13041180Y-10006820D01*
X13104820Y-10006820D01*
X13358820Y-10006820D02*
X13358820Y-9943180D01*
X13295180Y-9943180D01*
X13295180Y-10006820D01*
X13358820Y-10006820D01*
X13752820Y-11481820D02*
X13752820Y-11418180D01*
X13689180Y-11418180D01*
X13689180Y-11481820D01*
X13752820Y-11481820D01*
X14006820Y-11481820D02*
X14006820Y-11418180D01*
X13943180Y-11418180D01*
X13943180Y-11481820D01*
X14006820Y-11481820D01*
X14631820Y-10831820D02*
X14631820Y-10768180D01*
X14568180Y-10768180D01*
X14568180Y-10831820D01*
X14631820Y-10831820D01*
X14885820Y-10831820D02*
X14885820Y-10768180D01*
X14822180Y-10768180D01*
X14822180Y-10831820D01*
X14885820Y-10831820D01*
D14*
X11675000Y-8230000D02*
X11730000Y-8175000D01*
X11675000Y-8120000D01*
X11620000Y-8175000D01*
X11675000Y-8230000D01*
X11675000Y-8680000D02*
X11730000Y-8625000D01*
X11675000Y-8570000D01*
X11620000Y-8625000D01*
X11675000Y-8680000D01*
X12325000Y-8230000D02*
X12380000Y-8175000D01*
X12325000Y-8120000D01*
X12270000Y-8175000D01*
X12325000Y-8230000D01*
X12325000Y-8680000D02*
X12380000Y-8625000D01*
X12325000Y-8570000D01*
X12270000Y-8625000D01*
X12325000Y-8680000D01*
D12*
X8409640Y-13156192D02*
X8409640Y-12956192D01*
X8409640Y-12956192D02*
X8457259Y-12956192D01*
X8457259Y-12956192D02*
X8485831Y-12965716D01*
X8485831Y-12965716D02*
X8504878Y-12984764D01*
X8504878Y-12984764D02*
X8514402Y-13003811D01*
X8514402Y-13003811D02*
X8523926Y-13041907D01*
X8523926Y-13041907D02*
X8523926Y-13070478D01*
X8523926Y-13070478D02*
X8514402Y-13108573D01*
X8514402Y-13108573D02*
X8504878Y-13127621D01*
X8504878Y-13127621D02*
X8485831Y-13146669D01*
X8485831Y-13146669D02*
X8457259Y-13156192D01*
X8457259Y-13156192D02*
X8409640Y-13156192D01*
X8609640Y-13156192D02*
X8609640Y-13022859D01*
X8609640Y-13060954D02*
X8619164Y-13041907D01*
X8619164Y-13041907D02*
X8628688Y-13032383D01*
X8628688Y-13032383D02*
X8647735Y-13022859D01*
X8647735Y-13022859D02*
X8666783Y-13022859D01*
X8733450Y-13156192D02*
X8733450Y-13022859D01*
X8733450Y-12956192D02*
X8723926Y-12965716D01*
X8723926Y-12965716D02*
X8733450Y-12975240D01*
X8733450Y-12975240D02*
X8742973Y-12965716D01*
X8742973Y-12965716D02*
X8733450Y-12956192D01*
X8733450Y-12956192D02*
X8733450Y-12975240D01*
X8857259Y-13156192D02*
X8838211Y-13146669D01*
X8838211Y-13146669D02*
X8828688Y-13127621D01*
X8828688Y-13127621D02*
X8828688Y-12956192D01*
X8962021Y-13156192D02*
X8942973Y-13146669D01*
X8942973Y-13146669D02*
X8933450Y-13127621D01*
X8933450Y-13127621D02*
X8933450Y-12956192D01*
X9190592Y-13156192D02*
X9190592Y-12956192D01*
X9190592Y-12956192D02*
X9257259Y-13099049D01*
X9257259Y-13099049D02*
X9323926Y-12956192D01*
X9323926Y-12956192D02*
X9323926Y-13156192D01*
X9504878Y-13156192D02*
X9504878Y-13051430D01*
X9504878Y-13051430D02*
X9495354Y-13032383D01*
X9495354Y-13032383D02*
X9476307Y-13022859D01*
X9476307Y-13022859D02*
X9438211Y-13022859D01*
X9438211Y-13022859D02*
X9419164Y-13032383D01*
X9504878Y-13146669D02*
X9485831Y-13156192D01*
X9485831Y-13156192D02*
X9438211Y-13156192D01*
X9438211Y-13156192D02*
X9419164Y-13146669D01*
X9419164Y-13146669D02*
X9409640Y-13127621D01*
X9409640Y-13127621D02*
X9409640Y-13108573D01*
X9409640Y-13108573D02*
X9419164Y-13089526D01*
X9419164Y-13089526D02*
X9438211Y-13080002D01*
X9438211Y-13080002D02*
X9485831Y-13080002D01*
X9485831Y-13080002D02*
X9504878Y-13070478D01*
X9600116Y-13022859D02*
X9600116Y-13222859D01*
X9600116Y-13032383D02*
X9619164Y-13022859D01*
X9619164Y-13022859D02*
X9657259Y-13022859D01*
X9657259Y-13022859D02*
X9676307Y-13032383D01*
X9676307Y-13032383D02*
X9685831Y-13041907D01*
X9685831Y-13041907D02*
X9695354Y-13060954D01*
X9695354Y-13060954D02*
X9695354Y-13118097D01*
X9695354Y-13118097D02*
X9685831Y-13137145D01*
X9685831Y-13137145D02*
X9676307Y-13146669D01*
X9676307Y-13146669D02*
X9657259Y-13156192D01*
X9657259Y-13156192D02*
X9619164Y-13156192D01*
X9619164Y-13156192D02*
X9600116Y-13146669D01*
X9781069Y-13137145D02*
X9790592Y-13146669D01*
X9790592Y-13146669D02*
X9781069Y-13156192D01*
X9781069Y-13156192D02*
X9771545Y-13146669D01*
X9771545Y-13146669D02*
X9781069Y-13137145D01*
X9781069Y-13137145D02*
X9781069Y-13156192D01*
X9781069Y-13032383D02*
X9790592Y-13041907D01*
X9790592Y-13041907D02*
X9781069Y-13051430D01*
X9781069Y-13051430D02*
X9771545Y-13041907D01*
X9771545Y-13041907D02*
X9781069Y-13032383D01*
X9781069Y-13032383D02*
X9781069Y-13051430D01*
D13*
X8118863Y-13469709D02*
X8148863Y-13499709D01*
X8148863Y-13469709D02*
X8118863Y-13499709D01*
D12*
X8447735Y-13376192D02*
X8466783Y-13376192D01*
X8466783Y-13376192D02*
X8485831Y-13385716D01*
X8485831Y-13385716D02*
X8495354Y-13395240D01*
X8495354Y-13395240D02*
X8504878Y-13414288D01*
X8504878Y-13414288D02*
X8514402Y-13452383D01*
X8514402Y-13452383D02*
X8514402Y-13500002D01*
X8514402Y-13500002D02*
X8504878Y-13538097D01*
X8504878Y-13538097D02*
X8495354Y-13557145D01*
X8495354Y-13557145D02*
X8485831Y-13566669D01*
X8485831Y-13566669D02*
X8466783Y-13576192D01*
X8466783Y-13576192D02*
X8447735Y-13576192D01*
X8447735Y-13576192D02*
X8428688Y-13566669D01*
X8428688Y-13566669D02*
X8419164Y-13557145D01*
X8419164Y-13557145D02*
X8409640Y-13538097D01*
X8409640Y-13538097D02*
X8400116Y-13500002D01*
X8400116Y-13500002D02*
X8400116Y-13452383D01*
X8400116Y-13452383D02*
X8409640Y-13414288D01*
X8409640Y-13414288D02*
X8419164Y-13395240D01*
X8419164Y-13395240D02*
X8428688Y-13385716D01*
X8428688Y-13385716D02*
X8447735Y-13376192D01*
X8600116Y-13557145D02*
X8609640Y-13566669D01*
X8609640Y-13566669D02*
X8600116Y-13576192D01*
X8600116Y-13576192D02*
X8590592Y-13566669D01*
X8590592Y-13566669D02*
X8600116Y-13557145D01*
X8600116Y-13557145D02*
X8600116Y-13576192D01*
X8676307Y-13376192D02*
X8800116Y-13376192D01*
X8800116Y-13376192D02*
X8733450Y-13452383D01*
X8733450Y-13452383D02*
X8762021Y-13452383D01*
X8762021Y-13452383D02*
X8781069Y-13461907D01*
X8781069Y-13461907D02*
X8790592Y-13471430D01*
X8790592Y-13471430D02*
X8800116Y-13490478D01*
X8800116Y-13490478D02*
X8800116Y-13538097D01*
X8800116Y-13538097D02*
X8790592Y-13557145D01*
X8790592Y-13557145D02*
X8781069Y-13566669D01*
X8781069Y-13566669D02*
X8762021Y-13576192D01*
X8762021Y-13576192D02*
X8704878Y-13576192D01*
X8704878Y-13576192D02*
X8685831Y-13566669D01*
X8685831Y-13566669D02*
X8676307Y-13557145D01*
X8923926Y-13376192D02*
X8942973Y-13376192D01*
X8942973Y-13376192D02*
X8962021Y-13385716D01*
X8962021Y-13385716D02*
X8971545Y-13395240D01*
X8971545Y-13395240D02*
X8981069Y-13414288D01*
X8981069Y-13414288D02*
X8990592Y-13452383D01*
X8990592Y-13452383D02*
X8990592Y-13500002D01*
X8990592Y-13500002D02*
X8981069Y-13538097D01*
X8981069Y-13538097D02*
X8971545Y-13557145D01*
X8971545Y-13557145D02*
X8962021Y-13566669D01*
X8962021Y-13566669D02*
X8942973Y-13576192D01*
X8942973Y-13576192D02*
X8923926Y-13576192D01*
X8923926Y-13576192D02*
X8904878Y-13566669D01*
X8904878Y-13566669D02*
X8895354Y-13557145D01*
X8895354Y-13557145D02*
X8885831Y-13538097D01*
X8885831Y-13538097D02*
X8876307Y-13500002D01*
X8876307Y-13500002D02*
X8876307Y-13452383D01*
X8876307Y-13452383D02*
X8885831Y-13414288D01*
X8885831Y-13414288D02*
X8895354Y-13395240D01*
X8895354Y-13395240D02*
X8904878Y-13385716D01*
X8904878Y-13385716D02*
X8923926Y-13376192D01*
X9114402Y-13376192D02*
X9133450Y-13376192D01*
X9133450Y-13376192D02*
X9152497Y-13385716D01*
X9152497Y-13385716D02*
X9162021Y-13395240D01*
X9162021Y-13395240D02*
X9171545Y-13414288D01*
X9171545Y-13414288D02*
X9181069Y-13452383D01*
X9181069Y-13452383D02*
X9181069Y-13500002D01*
X9181069Y-13500002D02*
X9171545Y-13538097D01*
X9171545Y-13538097D02*
X9162021Y-13557145D01*
X9162021Y-13557145D02*
X9152497Y-13566669D01*
X9152497Y-13566669D02*
X9133450Y-13576192D01*
X9133450Y-13576192D02*
X9114402Y-13576192D01*
X9114402Y-13576192D02*
X9095354Y-13566669D01*
X9095354Y-13566669D02*
X9085831Y-13557145D01*
X9085831Y-13557145D02*
X9076307Y-13538097D01*
X9076307Y-13538097D02*
X9066783Y-13500002D01*
X9066783Y-13500002D02*
X9066783Y-13452383D01*
X9066783Y-13452383D02*
X9076307Y-13414288D01*
X9076307Y-13414288D02*
X9085831Y-13395240D01*
X9085831Y-13395240D02*
X9095354Y-13385716D01*
X9095354Y-13385716D02*
X9114402Y-13376192D01*
X9266783Y-13576192D02*
X9266783Y-13442859D01*
X9266783Y-13461907D02*
X9276307Y-13452383D01*
X9276307Y-13452383D02*
X9295354Y-13442859D01*
X9295354Y-13442859D02*
X9323926Y-13442859D01*
X9323926Y-13442859D02*
X9342973Y-13452383D01*
X9342973Y-13452383D02*
X9352497Y-13471430D01*
X9352497Y-13471430D02*
X9352497Y-13576192D01*
X9352497Y-13471430D02*
X9362021Y-13452383D01*
X9362021Y-13452383D02*
X9381069Y-13442859D01*
X9381069Y-13442859D02*
X9409640Y-13442859D01*
X9409640Y-13442859D02*
X9428688Y-13452383D01*
X9428688Y-13452383D02*
X9438212Y-13471430D01*
X9438212Y-13471430D02*
X9438212Y-13576192D01*
X9533450Y-13576192D02*
X9533450Y-13442859D01*
X9533450Y-13461907D02*
X9542973Y-13452383D01*
X9542973Y-13452383D02*
X9562021Y-13442859D01*
X9562021Y-13442859D02*
X9590593Y-13442859D01*
X9590593Y-13442859D02*
X9609640Y-13452383D01*
X9609640Y-13452383D02*
X9619164Y-13471430D01*
X9619164Y-13471430D02*
X9619164Y-13576192D01*
X9619164Y-13471430D02*
X9628688Y-13452383D01*
X9628688Y-13452383D02*
X9647735Y-13442859D01*
X9647735Y-13442859D02*
X9676307Y-13442859D01*
X9676307Y-13442859D02*
X9695354Y-13452383D01*
X9695354Y-13452383D02*
X9704878Y-13471430D01*
X9704878Y-13471430D02*
X9704878Y-13576192D01*
X10095354Y-13366669D02*
X9923926Y-13623811D01*
X10352497Y-13376192D02*
X10371545Y-13376192D01*
X10371545Y-13376192D02*
X10390593Y-13385716D01*
X10390593Y-13385716D02*
X10400116Y-13395240D01*
X10400116Y-13395240D02*
X10409640Y-13414288D01*
X10409640Y-13414288D02*
X10419164Y-13452383D01*
X10419164Y-13452383D02*
X10419164Y-13500002D01*
X10419164Y-13500002D02*
X10409640Y-13538097D01*
X10409640Y-13538097D02*
X10400116Y-13557145D01*
X10400116Y-13557145D02*
X10390593Y-13566669D01*
X10390593Y-13566669D02*
X10371545Y-13576192D01*
X10371545Y-13576192D02*
X10352497Y-13576192D01*
X10352497Y-13576192D02*
X10333450Y-13566669D01*
X10333450Y-13566669D02*
X10323926Y-13557145D01*
X10323926Y-13557145D02*
X10314402Y-13538097D01*
X10314402Y-13538097D02*
X10304878Y-13500002D01*
X10304878Y-13500002D02*
X10304878Y-13452383D01*
X10304878Y-13452383D02*
X10314402Y-13414288D01*
X10314402Y-13414288D02*
X10323926Y-13395240D01*
X10323926Y-13395240D02*
X10333450Y-13385716D01*
X10333450Y-13385716D02*
X10352497Y-13376192D01*
X10504878Y-13557145D02*
X10514402Y-13566669D01*
X10514402Y-13566669D02*
X10504878Y-13576192D01*
X10504878Y-13576192D02*
X10495355Y-13566669D01*
X10495355Y-13566669D02*
X10504878Y-13557145D01*
X10504878Y-13557145D02*
X10504878Y-13576192D01*
X10638212Y-13376192D02*
X10657259Y-13376192D01*
X10657259Y-13376192D02*
X10676307Y-13385716D01*
X10676307Y-13385716D02*
X10685831Y-13395240D01*
X10685831Y-13395240D02*
X10695355Y-13414288D01*
X10695355Y-13414288D02*
X10704878Y-13452383D01*
X10704878Y-13452383D02*
X10704878Y-13500002D01*
X10704878Y-13500002D02*
X10695355Y-13538097D01*
X10695355Y-13538097D02*
X10685831Y-13557145D01*
X10685831Y-13557145D02*
X10676307Y-13566669D01*
X10676307Y-13566669D02*
X10657259Y-13576192D01*
X10657259Y-13576192D02*
X10638212Y-13576192D01*
X10638212Y-13576192D02*
X10619164Y-13566669D01*
X10619164Y-13566669D02*
X10609640Y-13557145D01*
X10609640Y-13557145D02*
X10600116Y-13538097D01*
X10600116Y-13538097D02*
X10590593Y-13500002D01*
X10590593Y-13500002D02*
X10590593Y-13452383D01*
X10590593Y-13452383D02*
X10600116Y-13414288D01*
X10600116Y-13414288D02*
X10609640Y-13395240D01*
X10609640Y-13395240D02*
X10619164Y-13385716D01*
X10619164Y-13385716D02*
X10638212Y-13376192D01*
X10895355Y-13576192D02*
X10781069Y-13576192D01*
X10838212Y-13576192D02*
X10838212Y-13376192D01*
X10838212Y-13376192D02*
X10819164Y-13404764D01*
X10819164Y-13404764D02*
X10800116Y-13423811D01*
X10800116Y-13423811D02*
X10781069Y-13433335D01*
X11085831Y-13576192D02*
X10971545Y-13576192D01*
X11028688Y-13576192D02*
X11028688Y-13376192D01*
X11028688Y-13376192D02*
X11009640Y-13404764D01*
X11009640Y-13404764D02*
X10990593Y-13423811D01*
X10990593Y-13423811D02*
X10971545Y-13433335D01*
X11200116Y-13461907D02*
X11181069Y-13452383D01*
X11181069Y-13452383D02*
X11171545Y-13442859D01*
X11171545Y-13442859D02*
X11162021Y-13423811D01*
X11162021Y-13423811D02*
X11162021Y-13414288D01*
X11162021Y-13414288D02*
X11171545Y-13395240D01*
X11171545Y-13395240D02*
X11181069Y-13385716D01*
X11181069Y-13385716D02*
X11200116Y-13376192D01*
X11200116Y-13376192D02*
X11238212Y-13376192D01*
X11238212Y-13376192D02*
X11257259Y-13385716D01*
X11257259Y-13385716D02*
X11266783Y-13395240D01*
X11266783Y-13395240D02*
X11276307Y-13414288D01*
X11276307Y-13414288D02*
X11276307Y-13423811D01*
X11276307Y-13423811D02*
X11266783Y-13442859D01*
X11266783Y-13442859D02*
X11257259Y-13452383D01*
X11257259Y-13452383D02*
X11238212Y-13461907D01*
X11238212Y-13461907D02*
X11200116Y-13461907D01*
X11200116Y-13461907D02*
X11181069Y-13471430D01*
X11181069Y-13471430D02*
X11171545Y-13480954D01*
X11171545Y-13480954D02*
X11162021Y-13500002D01*
X11162021Y-13500002D02*
X11162021Y-13538097D01*
X11162021Y-13538097D02*
X11171545Y-13557145D01*
X11171545Y-13557145D02*
X11181069Y-13566669D01*
X11181069Y-13566669D02*
X11200116Y-13576192D01*
X11200116Y-13576192D02*
X11238212Y-13576192D01*
X11238212Y-13576192D02*
X11257259Y-13566669D01*
X11257259Y-13566669D02*
X11266783Y-13557145D01*
X11266783Y-13557145D02*
X11276307Y-13538097D01*
X11276307Y-13538097D02*
X11276307Y-13500002D01*
X11276307Y-13500002D02*
X11266783Y-13480954D01*
X11266783Y-13480954D02*
X11257259Y-13471430D01*
X11257259Y-13471430D02*
X11238212Y-13461907D01*
X11352497Y-13376192D02*
X11352497Y-13414288D01*
X11428688Y-13376192D02*
X11428688Y-13414288D01*
X11723926Y-13652383D02*
X11714402Y-13642859D01*
X11714402Y-13642859D02*
X11695355Y-13614288D01*
X11695355Y-13614288D02*
X11685831Y-13595240D01*
X11685831Y-13595240D02*
X11676307Y-13566669D01*
X11676307Y-13566669D02*
X11666783Y-13519049D01*
X11666783Y-13519049D02*
X11666783Y-13480954D01*
X11666783Y-13480954D02*
X11676307Y-13433335D01*
X11676307Y-13433335D02*
X11685831Y-13404764D01*
X11685831Y-13404764D02*
X11695355Y-13385716D01*
X11695355Y-13385716D02*
X11714402Y-13357145D01*
X11714402Y-13357145D02*
X11723926Y-13347621D01*
X11885831Y-13442859D02*
X11885831Y-13576192D01*
X11838212Y-13366669D02*
X11790593Y-13509526D01*
X11790593Y-13509526D02*
X11914402Y-13509526D01*
X11971545Y-13376192D02*
X12095355Y-13376192D01*
X12095355Y-13376192D02*
X12028688Y-13452383D01*
X12028688Y-13452383D02*
X12057259Y-13452383D01*
X12057259Y-13452383D02*
X12076307Y-13461907D01*
X12076307Y-13461907D02*
X12085831Y-13471430D01*
X12085831Y-13471430D02*
X12095355Y-13490478D01*
X12095355Y-13490478D02*
X12095355Y-13538097D01*
X12095355Y-13538097D02*
X12085831Y-13557145D01*
X12085831Y-13557145D02*
X12076307Y-13566669D01*
X12076307Y-13566669D02*
X12057259Y-13576192D01*
X12057259Y-13576192D02*
X12000116Y-13576192D01*
X12000116Y-13576192D02*
X11981069Y-13566669D01*
X11981069Y-13566669D02*
X11971545Y-13557145D01*
X12333450Y-13576192D02*
X12333450Y-13376192D01*
X12419164Y-13576192D02*
X12419164Y-13471430D01*
X12419164Y-13471430D02*
X12409640Y-13452383D01*
X12409640Y-13452383D02*
X12390593Y-13442859D01*
X12390593Y-13442859D02*
X12362021Y-13442859D01*
X12362021Y-13442859D02*
X12342974Y-13452383D01*
X12342974Y-13452383D02*
X12333450Y-13461907D01*
X12542974Y-13576192D02*
X12523926Y-13566669D01*
X12523926Y-13566669D02*
X12514402Y-13557145D01*
X12514402Y-13557145D02*
X12504878Y-13538097D01*
X12504878Y-13538097D02*
X12504878Y-13480954D01*
X12504878Y-13480954D02*
X12514402Y-13461907D01*
X12514402Y-13461907D02*
X12523926Y-13452383D01*
X12523926Y-13452383D02*
X12542974Y-13442859D01*
X12542974Y-13442859D02*
X12571545Y-13442859D01*
X12571545Y-13442859D02*
X12590593Y-13452383D01*
X12590593Y-13452383D02*
X12600117Y-13461907D01*
X12600117Y-13461907D02*
X12609640Y-13480954D01*
X12609640Y-13480954D02*
X12609640Y-13538097D01*
X12609640Y-13538097D02*
X12600117Y-13557145D01*
X12600117Y-13557145D02*
X12590593Y-13566669D01*
X12590593Y-13566669D02*
X12571545Y-13576192D01*
X12571545Y-13576192D02*
X12542974Y-13576192D01*
X12723926Y-13576192D02*
X12704878Y-13566669D01*
X12704878Y-13566669D02*
X12695355Y-13547621D01*
X12695355Y-13547621D02*
X12695355Y-13376192D01*
X12876307Y-13566669D02*
X12857259Y-13576192D01*
X12857259Y-13576192D02*
X12819164Y-13576192D01*
X12819164Y-13576192D02*
X12800117Y-13566669D01*
X12800117Y-13566669D02*
X12790593Y-13547621D01*
X12790593Y-13547621D02*
X12790593Y-13471430D01*
X12790593Y-13471430D02*
X12800117Y-13452383D01*
X12800117Y-13452383D02*
X12819164Y-13442859D01*
X12819164Y-13442859D02*
X12857259Y-13442859D01*
X12857259Y-13442859D02*
X12876307Y-13452383D01*
X12876307Y-13452383D02*
X12885831Y-13471430D01*
X12885831Y-13471430D02*
X12885831Y-13490478D01*
X12885831Y-13490478D02*
X12790593Y-13509526D01*
X12962021Y-13566669D02*
X12981069Y-13576192D01*
X12981069Y-13576192D02*
X13019164Y-13576192D01*
X13019164Y-13576192D02*
X13038212Y-13566669D01*
X13038212Y-13566669D02*
X13047736Y-13547621D01*
X13047736Y-13547621D02*
X13047736Y-13538097D01*
X13047736Y-13538097D02*
X13038212Y-13519049D01*
X13038212Y-13519049D02*
X13019164Y-13509526D01*
X13019164Y-13509526D02*
X12990593Y-13509526D01*
X12990593Y-13509526D02*
X12971545Y-13500002D01*
X12971545Y-13500002D02*
X12962021Y-13480954D01*
X12962021Y-13480954D02*
X12962021Y-13471430D01*
X12962021Y-13471430D02*
X12971545Y-13452383D01*
X12971545Y-13452383D02*
X12990593Y-13442859D01*
X12990593Y-13442859D02*
X13019164Y-13442859D01*
X13019164Y-13442859D02*
X13038212Y-13452383D01*
X13114402Y-13652383D02*
X13123926Y-13642859D01*
X13123926Y-13642859D02*
X13142974Y-13614288D01*
X13142974Y-13614288D02*
X13152498Y-13595240D01*
X13152498Y-13595240D02*
X13162021Y-13566669D01*
X13162021Y-13566669D02*
X13171545Y-13519049D01*
X13171545Y-13519049D02*
X13171545Y-13480954D01*
X13171545Y-13480954D02*
X13162021Y-13433335D01*
X13162021Y-13433335D02*
X13152498Y-13404764D01*
X13152498Y-13404764D02*
X13142974Y-13385716D01*
X13142974Y-13385716D02*
X13123926Y-13357145D01*
X13123926Y-13357145D02*
X13114402Y-13347621D01*
D13*
X8148863Y-13748709D02*
G75*
G02*
X8073863Y-13748709I-37500J0D01*
G01*
X8073863Y-13748709D02*
G75*
G02*
X8148863Y-13748709I37500J0D01*
G01*
D12*
X8447735Y-13640192D02*
X8466783Y-13640192D01*
X8466783Y-13640192D02*
X8485831Y-13649716D01*
X8485831Y-13649716D02*
X8495354Y-13659240D01*
X8495354Y-13659240D02*
X8504878Y-13678288D01*
X8504878Y-13678288D02*
X8514402Y-13716383D01*
X8514402Y-13716383D02*
X8514402Y-13764002D01*
X8514402Y-13764002D02*
X8504878Y-13802097D01*
X8504878Y-13802097D02*
X8495354Y-13821145D01*
X8495354Y-13821145D02*
X8485831Y-13830669D01*
X8485831Y-13830669D02*
X8466783Y-13840192D01*
X8466783Y-13840192D02*
X8447735Y-13840192D01*
X8447735Y-13840192D02*
X8428688Y-13830669D01*
X8428688Y-13830669D02*
X8419164Y-13821145D01*
X8419164Y-13821145D02*
X8409640Y-13802097D01*
X8409640Y-13802097D02*
X8400116Y-13764002D01*
X8400116Y-13764002D02*
X8400116Y-13716383D01*
X8400116Y-13716383D02*
X8409640Y-13678288D01*
X8409640Y-13678288D02*
X8419164Y-13659240D01*
X8419164Y-13659240D02*
X8428688Y-13649716D01*
X8428688Y-13649716D02*
X8447735Y-13640192D01*
X8600116Y-13821145D02*
X8609640Y-13830669D01*
X8609640Y-13830669D02*
X8600116Y-13840192D01*
X8600116Y-13840192D02*
X8590592Y-13830669D01*
X8590592Y-13830669D02*
X8600116Y-13821145D01*
X8600116Y-13821145D02*
X8600116Y-13840192D01*
X8676307Y-13640192D02*
X8809640Y-13640192D01*
X8809640Y-13640192D02*
X8723926Y-13840192D01*
X8981069Y-13640192D02*
X8885831Y-13640192D01*
X8885831Y-13640192D02*
X8876307Y-13735430D01*
X8876307Y-13735430D02*
X8885831Y-13725907D01*
X8885831Y-13725907D02*
X8904878Y-13716383D01*
X8904878Y-13716383D02*
X8952497Y-13716383D01*
X8952497Y-13716383D02*
X8971545Y-13725907D01*
X8971545Y-13725907D02*
X8981069Y-13735430D01*
X8981069Y-13735430D02*
X8990592Y-13754478D01*
X8990592Y-13754478D02*
X8990592Y-13802097D01*
X8990592Y-13802097D02*
X8981069Y-13821145D01*
X8981069Y-13821145D02*
X8971545Y-13830669D01*
X8971545Y-13830669D02*
X8952497Y-13840192D01*
X8952497Y-13840192D02*
X8904878Y-13840192D01*
X8904878Y-13840192D02*
X8885831Y-13830669D01*
X8885831Y-13830669D02*
X8876307Y-13821145D01*
X9114402Y-13640192D02*
X9133450Y-13640192D01*
X9133450Y-13640192D02*
X9152497Y-13649716D01*
X9152497Y-13649716D02*
X9162021Y-13659240D01*
X9162021Y-13659240D02*
X9171545Y-13678288D01*
X9171545Y-13678288D02*
X9181069Y-13716383D01*
X9181069Y-13716383D02*
X9181069Y-13764002D01*
X9181069Y-13764002D02*
X9171545Y-13802097D01*
X9171545Y-13802097D02*
X9162021Y-13821145D01*
X9162021Y-13821145D02*
X9152497Y-13830669D01*
X9152497Y-13830669D02*
X9133450Y-13840192D01*
X9133450Y-13840192D02*
X9114402Y-13840192D01*
X9114402Y-13840192D02*
X9095354Y-13830669D01*
X9095354Y-13830669D02*
X9085831Y-13821145D01*
X9085831Y-13821145D02*
X9076307Y-13802097D01*
X9076307Y-13802097D02*
X9066783Y-13764002D01*
X9066783Y-13764002D02*
X9066783Y-13716383D01*
X9066783Y-13716383D02*
X9076307Y-13678288D01*
X9076307Y-13678288D02*
X9085831Y-13659240D01*
X9085831Y-13659240D02*
X9095354Y-13649716D01*
X9095354Y-13649716D02*
X9114402Y-13640192D01*
X9266783Y-13840192D02*
X9266783Y-13706859D01*
X9266783Y-13725907D02*
X9276307Y-13716383D01*
X9276307Y-13716383D02*
X9295354Y-13706859D01*
X9295354Y-13706859D02*
X9323926Y-13706859D01*
X9323926Y-13706859D02*
X9342973Y-13716383D01*
X9342973Y-13716383D02*
X9352497Y-13735430D01*
X9352497Y-13735430D02*
X9352497Y-13840192D01*
X9352497Y-13735430D02*
X9362021Y-13716383D01*
X9362021Y-13716383D02*
X9381069Y-13706859D01*
X9381069Y-13706859D02*
X9409640Y-13706859D01*
X9409640Y-13706859D02*
X9428688Y-13716383D01*
X9428688Y-13716383D02*
X9438212Y-13735430D01*
X9438212Y-13735430D02*
X9438212Y-13840192D01*
X9533450Y-13840192D02*
X9533450Y-13706859D01*
X9533450Y-13725907D02*
X9542973Y-13716383D01*
X9542973Y-13716383D02*
X9562021Y-13706859D01*
X9562021Y-13706859D02*
X9590593Y-13706859D01*
X9590593Y-13706859D02*
X9609640Y-13716383D01*
X9609640Y-13716383D02*
X9619164Y-13735430D01*
X9619164Y-13735430D02*
X9619164Y-13840192D01*
X9619164Y-13735430D02*
X9628688Y-13716383D01*
X9628688Y-13716383D02*
X9647735Y-13706859D01*
X9647735Y-13706859D02*
X9676307Y-13706859D01*
X9676307Y-13706859D02*
X9695354Y-13716383D01*
X9695354Y-13716383D02*
X9704878Y-13735430D01*
X9704878Y-13735430D02*
X9704878Y-13840192D01*
X10095354Y-13630669D02*
X9923926Y-13887811D01*
X10352497Y-13640192D02*
X10371545Y-13640192D01*
X10371545Y-13640192D02*
X10390593Y-13649716D01*
X10390593Y-13649716D02*
X10400116Y-13659240D01*
X10400116Y-13659240D02*
X10409640Y-13678288D01*
X10409640Y-13678288D02*
X10419164Y-13716383D01*
X10419164Y-13716383D02*
X10419164Y-13764002D01*
X10419164Y-13764002D02*
X10409640Y-13802097D01*
X10409640Y-13802097D02*
X10400116Y-13821145D01*
X10400116Y-13821145D02*
X10390593Y-13830669D01*
X10390593Y-13830669D02*
X10371545Y-13840192D01*
X10371545Y-13840192D02*
X10352497Y-13840192D01*
X10352497Y-13840192D02*
X10333450Y-13830669D01*
X10333450Y-13830669D02*
X10323926Y-13821145D01*
X10323926Y-13821145D02*
X10314402Y-13802097D01*
X10314402Y-13802097D02*
X10304878Y-13764002D01*
X10304878Y-13764002D02*
X10304878Y-13716383D01*
X10304878Y-13716383D02*
X10314402Y-13678288D01*
X10314402Y-13678288D02*
X10323926Y-13659240D01*
X10323926Y-13659240D02*
X10333450Y-13649716D01*
X10333450Y-13649716D02*
X10352497Y-13640192D01*
X10504878Y-13821145D02*
X10514402Y-13830669D01*
X10514402Y-13830669D02*
X10504878Y-13840192D01*
X10504878Y-13840192D02*
X10495355Y-13830669D01*
X10495355Y-13830669D02*
X10504878Y-13821145D01*
X10504878Y-13821145D02*
X10504878Y-13840192D01*
X10638212Y-13640192D02*
X10657259Y-13640192D01*
X10657259Y-13640192D02*
X10676307Y-13649716D01*
X10676307Y-13649716D02*
X10685831Y-13659240D01*
X10685831Y-13659240D02*
X10695355Y-13678288D01*
X10695355Y-13678288D02*
X10704878Y-13716383D01*
X10704878Y-13716383D02*
X10704878Y-13764002D01*
X10704878Y-13764002D02*
X10695355Y-13802097D01*
X10695355Y-13802097D02*
X10685831Y-13821145D01*
X10685831Y-13821145D02*
X10676307Y-13830669D01*
X10676307Y-13830669D02*
X10657259Y-13840192D01*
X10657259Y-13840192D02*
X10638212Y-13840192D01*
X10638212Y-13840192D02*
X10619164Y-13830669D01*
X10619164Y-13830669D02*
X10609640Y-13821145D01*
X10609640Y-13821145D02*
X10600116Y-13802097D01*
X10600116Y-13802097D02*
X10590593Y-13764002D01*
X10590593Y-13764002D02*
X10590593Y-13716383D01*
X10590593Y-13716383D02*
X10600116Y-13678288D01*
X10600116Y-13678288D02*
X10609640Y-13659240D01*
X10609640Y-13659240D02*
X10619164Y-13649716D01*
X10619164Y-13649716D02*
X10638212Y-13640192D01*
X10781069Y-13659240D02*
X10790593Y-13649716D01*
X10790593Y-13649716D02*
X10809640Y-13640192D01*
X10809640Y-13640192D02*
X10857259Y-13640192D01*
X10857259Y-13640192D02*
X10876307Y-13649716D01*
X10876307Y-13649716D02*
X10885831Y-13659240D01*
X10885831Y-13659240D02*
X10895355Y-13678288D01*
X10895355Y-13678288D02*
X10895355Y-13697335D01*
X10895355Y-13697335D02*
X10885831Y-13725907D01*
X10885831Y-13725907D02*
X10771545Y-13840192D01*
X10771545Y-13840192D02*
X10895355Y-13840192D01*
X10990593Y-13840192D02*
X11028688Y-13840192D01*
X11028688Y-13840192D02*
X11047736Y-13830669D01*
X11047736Y-13830669D02*
X11057259Y-13821145D01*
X11057259Y-13821145D02*
X11076307Y-13792573D01*
X11076307Y-13792573D02*
X11085831Y-13754478D01*
X11085831Y-13754478D02*
X11085831Y-13678288D01*
X11085831Y-13678288D02*
X11076307Y-13659240D01*
X11076307Y-13659240D02*
X11066783Y-13649716D01*
X11066783Y-13649716D02*
X11047736Y-13640192D01*
X11047736Y-13640192D02*
X11009640Y-13640192D01*
X11009640Y-13640192D02*
X10990593Y-13649716D01*
X10990593Y-13649716D02*
X10981069Y-13659240D01*
X10981069Y-13659240D02*
X10971545Y-13678288D01*
X10971545Y-13678288D02*
X10971545Y-13725907D01*
X10971545Y-13725907D02*
X10981069Y-13744954D01*
X10981069Y-13744954D02*
X10990593Y-13754478D01*
X10990593Y-13754478D02*
X11009640Y-13764002D01*
X11009640Y-13764002D02*
X11047736Y-13764002D01*
X11047736Y-13764002D02*
X11066783Y-13754478D01*
X11066783Y-13754478D02*
X11076307Y-13744954D01*
X11076307Y-13744954D02*
X11085831Y-13725907D01*
X11266783Y-13640192D02*
X11171545Y-13640192D01*
X11171545Y-13640192D02*
X11162021Y-13735430D01*
X11162021Y-13735430D02*
X11171545Y-13725907D01*
X11171545Y-13725907D02*
X11190593Y-13716383D01*
X11190593Y-13716383D02*
X11238212Y-13716383D01*
X11238212Y-13716383D02*
X11257259Y-13725907D01*
X11257259Y-13725907D02*
X11266783Y-13735430D01*
X11266783Y-13735430D02*
X11276307Y-13754478D01*
X11276307Y-13754478D02*
X11276307Y-13802097D01*
X11276307Y-13802097D02*
X11266783Y-13821145D01*
X11266783Y-13821145D02*
X11257259Y-13830669D01*
X11257259Y-13830669D02*
X11238212Y-13840192D01*
X11238212Y-13840192D02*
X11190593Y-13840192D01*
X11190593Y-13840192D02*
X11171545Y-13830669D01*
X11171545Y-13830669D02*
X11162021Y-13821145D01*
X11352497Y-13640192D02*
X11352497Y-13678288D01*
X11428688Y-13640192D02*
X11428688Y-13678288D01*
X11723926Y-13916383D02*
X11714402Y-13906859D01*
X11714402Y-13906859D02*
X11695355Y-13878288D01*
X11695355Y-13878288D02*
X11685831Y-13859240D01*
X11685831Y-13859240D02*
X11676307Y-13830669D01*
X11676307Y-13830669D02*
X11666783Y-13783049D01*
X11666783Y-13783049D02*
X11666783Y-13744954D01*
X11666783Y-13744954D02*
X11676307Y-13697335D01*
X11676307Y-13697335D02*
X11685831Y-13668764D01*
X11685831Y-13668764D02*
X11695355Y-13649716D01*
X11695355Y-13649716D02*
X11714402Y-13621145D01*
X11714402Y-13621145D02*
X11723926Y-13611621D01*
X11781069Y-13640192D02*
X11904878Y-13640192D01*
X11904878Y-13640192D02*
X11838212Y-13716383D01*
X11838212Y-13716383D02*
X11866783Y-13716383D01*
X11866783Y-13716383D02*
X11885831Y-13725907D01*
X11885831Y-13725907D02*
X11895355Y-13735430D01*
X11895355Y-13735430D02*
X11904878Y-13754478D01*
X11904878Y-13754478D02*
X11904878Y-13802097D01*
X11904878Y-13802097D02*
X11895355Y-13821145D01*
X11895355Y-13821145D02*
X11885831Y-13830669D01*
X11885831Y-13830669D02*
X11866783Y-13840192D01*
X11866783Y-13840192D02*
X11809640Y-13840192D01*
X11809640Y-13840192D02*
X11790593Y-13830669D01*
X11790593Y-13830669D02*
X11781069Y-13821145D01*
X12142974Y-13840192D02*
X12142974Y-13640192D01*
X12228688Y-13840192D02*
X12228688Y-13735430D01*
X12228688Y-13735430D02*
X12219164Y-13716383D01*
X12219164Y-13716383D02*
X12200117Y-13706859D01*
X12200117Y-13706859D02*
X12171545Y-13706859D01*
X12171545Y-13706859D02*
X12152497Y-13716383D01*
X12152497Y-13716383D02*
X12142974Y-13725907D01*
X12352497Y-13840192D02*
X12333450Y-13830669D01*
X12333450Y-13830669D02*
X12323926Y-13821145D01*
X12323926Y-13821145D02*
X12314402Y-13802097D01*
X12314402Y-13802097D02*
X12314402Y-13744954D01*
X12314402Y-13744954D02*
X12323926Y-13725907D01*
X12323926Y-13725907D02*
X12333450Y-13716383D01*
X12333450Y-13716383D02*
X12352497Y-13706859D01*
X12352497Y-13706859D02*
X12381069Y-13706859D01*
X12381069Y-13706859D02*
X12400117Y-13716383D01*
X12400117Y-13716383D02*
X12409640Y-13725907D01*
X12409640Y-13725907D02*
X12419164Y-13744954D01*
X12419164Y-13744954D02*
X12419164Y-13802097D01*
X12419164Y-13802097D02*
X12409640Y-13821145D01*
X12409640Y-13821145D02*
X12400117Y-13830669D01*
X12400117Y-13830669D02*
X12381069Y-13840192D01*
X12381069Y-13840192D02*
X12352497Y-13840192D01*
X12533450Y-13840192D02*
X12514402Y-13830669D01*
X12514402Y-13830669D02*
X12504878Y-13811621D01*
X12504878Y-13811621D02*
X12504878Y-13640192D01*
X12685831Y-13830669D02*
X12666783Y-13840192D01*
X12666783Y-13840192D02*
X12628688Y-13840192D01*
X12628688Y-13840192D02*
X12609640Y-13830669D01*
X12609640Y-13830669D02*
X12600117Y-13811621D01*
X12600117Y-13811621D02*
X12600117Y-13735430D01*
X12600117Y-13735430D02*
X12609640Y-13716383D01*
X12609640Y-13716383D02*
X12628688Y-13706859D01*
X12628688Y-13706859D02*
X12666783Y-13706859D01*
X12666783Y-13706859D02*
X12685831Y-13716383D01*
X12685831Y-13716383D02*
X12695355Y-13735430D01*
X12695355Y-13735430D02*
X12695355Y-13754478D01*
X12695355Y-13754478D02*
X12600117Y-13773526D01*
X12771545Y-13830669D02*
X12790593Y-13840192D01*
X12790593Y-13840192D02*
X12828688Y-13840192D01*
X12828688Y-13840192D02*
X12847736Y-13830669D01*
X12847736Y-13830669D02*
X12857259Y-13811621D01*
X12857259Y-13811621D02*
X12857259Y-13802097D01*
X12857259Y-13802097D02*
X12847736Y-13783049D01*
X12847736Y-13783049D02*
X12828688Y-13773526D01*
X12828688Y-13773526D02*
X12800117Y-13773526D01*
X12800117Y-13773526D02*
X12781069Y-13764002D01*
X12781069Y-13764002D02*
X12771545Y-13744954D01*
X12771545Y-13744954D02*
X12771545Y-13735430D01*
X12771545Y-13735430D02*
X12781069Y-13716383D01*
X12781069Y-13716383D02*
X12800117Y-13706859D01*
X12800117Y-13706859D02*
X12828688Y-13706859D01*
X12828688Y-13706859D02*
X12847736Y-13716383D01*
X12923926Y-13916383D02*
X12933450Y-13906859D01*
X12933450Y-13906859D02*
X12952498Y-13878288D01*
X12952498Y-13878288D02*
X12962021Y-13859240D01*
X12962021Y-13859240D02*
X12971545Y-13830669D01*
X12971545Y-13830669D02*
X12981069Y-13783049D01*
X12981069Y-13783049D02*
X12981069Y-13744954D01*
X12981069Y-13744954D02*
X12971545Y-13697335D01*
X12971545Y-13697335D02*
X12962021Y-13668764D01*
X12962021Y-13668764D02*
X12952498Y-13649716D01*
X12952498Y-13649716D02*
X12933450Y-13621145D01*
X12933450Y-13621145D02*
X12923926Y-13611621D01*
D13*
X8108863Y-13972709D02*
X8108863Y-14052709D01*
X8068863Y-14012709D02*
X8148863Y-14012709D01*
D12*
X8447735Y-13904192D02*
X8466783Y-13904192D01*
X8466783Y-13904192D02*
X8485831Y-13913716D01*
X8485831Y-13913716D02*
X8495354Y-13923240D01*
X8495354Y-13923240D02*
X8504878Y-13942288D01*
X8504878Y-13942288D02*
X8514402Y-13980383D01*
X8514402Y-13980383D02*
X8514402Y-14028002D01*
X8514402Y-14028002D02*
X8504878Y-14066097D01*
X8504878Y-14066097D02*
X8495354Y-14085145D01*
X8495354Y-14085145D02*
X8485831Y-14094669D01*
X8485831Y-14094669D02*
X8466783Y-14104192D01*
X8466783Y-14104192D02*
X8447735Y-14104192D01*
X8447735Y-14104192D02*
X8428688Y-14094669D01*
X8428688Y-14094669D02*
X8419164Y-14085145D01*
X8419164Y-14085145D02*
X8409640Y-14066097D01*
X8409640Y-14066097D02*
X8400116Y-14028002D01*
X8400116Y-14028002D02*
X8400116Y-13980383D01*
X8400116Y-13980383D02*
X8409640Y-13942288D01*
X8409640Y-13942288D02*
X8419164Y-13923240D01*
X8419164Y-13923240D02*
X8428688Y-13913716D01*
X8428688Y-13913716D02*
X8447735Y-13904192D01*
X8600116Y-14085145D02*
X8609640Y-14094669D01*
X8609640Y-14094669D02*
X8600116Y-14104192D01*
X8600116Y-14104192D02*
X8590592Y-14094669D01*
X8590592Y-14094669D02*
X8600116Y-14085145D01*
X8600116Y-14085145D02*
X8600116Y-14104192D01*
X8723926Y-13989907D02*
X8704878Y-13980383D01*
X8704878Y-13980383D02*
X8695354Y-13970859D01*
X8695354Y-13970859D02*
X8685831Y-13951811D01*
X8685831Y-13951811D02*
X8685831Y-13942288D01*
X8685831Y-13942288D02*
X8695354Y-13923240D01*
X8695354Y-13923240D02*
X8704878Y-13913716D01*
X8704878Y-13913716D02*
X8723926Y-13904192D01*
X8723926Y-13904192D02*
X8762021Y-13904192D01*
X8762021Y-13904192D02*
X8781069Y-13913716D01*
X8781069Y-13913716D02*
X8790592Y-13923240D01*
X8790592Y-13923240D02*
X8800116Y-13942288D01*
X8800116Y-13942288D02*
X8800116Y-13951811D01*
X8800116Y-13951811D02*
X8790592Y-13970859D01*
X8790592Y-13970859D02*
X8781069Y-13980383D01*
X8781069Y-13980383D02*
X8762021Y-13989907D01*
X8762021Y-13989907D02*
X8723926Y-13989907D01*
X8723926Y-13989907D02*
X8704878Y-13999430D01*
X8704878Y-13999430D02*
X8695354Y-14008954D01*
X8695354Y-14008954D02*
X8685831Y-14028002D01*
X8685831Y-14028002D02*
X8685831Y-14066097D01*
X8685831Y-14066097D02*
X8695354Y-14085145D01*
X8695354Y-14085145D02*
X8704878Y-14094669D01*
X8704878Y-14094669D02*
X8723926Y-14104192D01*
X8723926Y-14104192D02*
X8762021Y-14104192D01*
X8762021Y-14104192D02*
X8781069Y-14094669D01*
X8781069Y-14094669D02*
X8790592Y-14085145D01*
X8790592Y-14085145D02*
X8800116Y-14066097D01*
X8800116Y-14066097D02*
X8800116Y-14028002D01*
X8800116Y-14028002D02*
X8790592Y-14008954D01*
X8790592Y-14008954D02*
X8781069Y-13999430D01*
X8781069Y-13999430D02*
X8762021Y-13989907D01*
X8923926Y-13904192D02*
X8942973Y-13904192D01*
X8942973Y-13904192D02*
X8962021Y-13913716D01*
X8962021Y-13913716D02*
X8971545Y-13923240D01*
X8971545Y-13923240D02*
X8981069Y-13942288D01*
X8981069Y-13942288D02*
X8990592Y-13980383D01*
X8990592Y-13980383D02*
X8990592Y-14028002D01*
X8990592Y-14028002D02*
X8981069Y-14066097D01*
X8981069Y-14066097D02*
X8971545Y-14085145D01*
X8971545Y-14085145D02*
X8962021Y-14094669D01*
X8962021Y-14094669D02*
X8942973Y-14104192D01*
X8942973Y-14104192D02*
X8923926Y-14104192D01*
X8923926Y-14104192D02*
X8904878Y-14094669D01*
X8904878Y-14094669D02*
X8895354Y-14085145D01*
X8895354Y-14085145D02*
X8885831Y-14066097D01*
X8885831Y-14066097D02*
X8876307Y-14028002D01*
X8876307Y-14028002D02*
X8876307Y-13980383D01*
X8876307Y-13980383D02*
X8885831Y-13942288D01*
X8885831Y-13942288D02*
X8895354Y-13923240D01*
X8895354Y-13923240D02*
X8904878Y-13913716D01*
X8904878Y-13913716D02*
X8923926Y-13904192D01*
X9114402Y-13904192D02*
X9133450Y-13904192D01*
X9133450Y-13904192D02*
X9152497Y-13913716D01*
X9152497Y-13913716D02*
X9162021Y-13923240D01*
X9162021Y-13923240D02*
X9171545Y-13942288D01*
X9171545Y-13942288D02*
X9181069Y-13980383D01*
X9181069Y-13980383D02*
X9181069Y-14028002D01*
X9181069Y-14028002D02*
X9171545Y-14066097D01*
X9171545Y-14066097D02*
X9162021Y-14085145D01*
X9162021Y-14085145D02*
X9152497Y-14094669D01*
X9152497Y-14094669D02*
X9133450Y-14104192D01*
X9133450Y-14104192D02*
X9114402Y-14104192D01*
X9114402Y-14104192D02*
X9095354Y-14094669D01*
X9095354Y-14094669D02*
X9085831Y-14085145D01*
X9085831Y-14085145D02*
X9076307Y-14066097D01*
X9076307Y-14066097D02*
X9066783Y-14028002D01*
X9066783Y-14028002D02*
X9066783Y-13980383D01*
X9066783Y-13980383D02*
X9076307Y-13942288D01*
X9076307Y-13942288D02*
X9085831Y-13923240D01*
X9085831Y-13923240D02*
X9095354Y-13913716D01*
X9095354Y-13913716D02*
X9114402Y-13904192D01*
X9266783Y-14104192D02*
X9266783Y-13970859D01*
X9266783Y-13989907D02*
X9276307Y-13980383D01*
X9276307Y-13980383D02*
X9295354Y-13970859D01*
X9295354Y-13970859D02*
X9323926Y-13970859D01*
X9323926Y-13970859D02*
X9342973Y-13980383D01*
X9342973Y-13980383D02*
X9352497Y-13999430D01*
X9352497Y-13999430D02*
X9352497Y-14104192D01*
X9352497Y-13999430D02*
X9362021Y-13980383D01*
X9362021Y-13980383D02*
X9381069Y-13970859D01*
X9381069Y-13970859D02*
X9409640Y-13970859D01*
X9409640Y-13970859D02*
X9428688Y-13980383D01*
X9428688Y-13980383D02*
X9438212Y-13999430D01*
X9438212Y-13999430D02*
X9438212Y-14104192D01*
X9533450Y-14104192D02*
X9533450Y-13970859D01*
X9533450Y-13989907D02*
X9542973Y-13980383D01*
X9542973Y-13980383D02*
X9562021Y-13970859D01*
X9562021Y-13970859D02*
X9590593Y-13970859D01*
X9590593Y-13970859D02*
X9609640Y-13980383D01*
X9609640Y-13980383D02*
X9619164Y-13999430D01*
X9619164Y-13999430D02*
X9619164Y-14104192D01*
X9619164Y-13999430D02*
X9628688Y-13980383D01*
X9628688Y-13980383D02*
X9647735Y-13970859D01*
X9647735Y-13970859D02*
X9676307Y-13970859D01*
X9676307Y-13970859D02*
X9695354Y-13980383D01*
X9695354Y-13980383D02*
X9704878Y-13999430D01*
X9704878Y-13999430D02*
X9704878Y-14104192D01*
X10095354Y-13894669D02*
X9923926Y-14151811D01*
X10352497Y-13904192D02*
X10371545Y-13904192D01*
X10371545Y-13904192D02*
X10390593Y-13913716D01*
X10390593Y-13913716D02*
X10400116Y-13923240D01*
X10400116Y-13923240D02*
X10409640Y-13942288D01*
X10409640Y-13942288D02*
X10419164Y-13980383D01*
X10419164Y-13980383D02*
X10419164Y-14028002D01*
X10419164Y-14028002D02*
X10409640Y-14066097D01*
X10409640Y-14066097D02*
X10400116Y-14085145D01*
X10400116Y-14085145D02*
X10390593Y-14094669D01*
X10390593Y-14094669D02*
X10371545Y-14104192D01*
X10371545Y-14104192D02*
X10352497Y-14104192D01*
X10352497Y-14104192D02*
X10333450Y-14094669D01*
X10333450Y-14094669D02*
X10323926Y-14085145D01*
X10323926Y-14085145D02*
X10314402Y-14066097D01*
X10314402Y-14066097D02*
X10304878Y-14028002D01*
X10304878Y-14028002D02*
X10304878Y-13980383D01*
X10304878Y-13980383D02*
X10314402Y-13942288D01*
X10314402Y-13942288D02*
X10323926Y-13923240D01*
X10323926Y-13923240D02*
X10333450Y-13913716D01*
X10333450Y-13913716D02*
X10352497Y-13904192D01*
X10504878Y-14085145D02*
X10514402Y-14094669D01*
X10514402Y-14094669D02*
X10504878Y-14104192D01*
X10504878Y-14104192D02*
X10495355Y-14094669D01*
X10495355Y-14094669D02*
X10504878Y-14085145D01*
X10504878Y-14085145D02*
X10504878Y-14104192D01*
X10638212Y-13904192D02*
X10657259Y-13904192D01*
X10657259Y-13904192D02*
X10676307Y-13913716D01*
X10676307Y-13913716D02*
X10685831Y-13923240D01*
X10685831Y-13923240D02*
X10695355Y-13942288D01*
X10695355Y-13942288D02*
X10704878Y-13980383D01*
X10704878Y-13980383D02*
X10704878Y-14028002D01*
X10704878Y-14028002D02*
X10695355Y-14066097D01*
X10695355Y-14066097D02*
X10685831Y-14085145D01*
X10685831Y-14085145D02*
X10676307Y-14094669D01*
X10676307Y-14094669D02*
X10657259Y-14104192D01*
X10657259Y-14104192D02*
X10638212Y-14104192D01*
X10638212Y-14104192D02*
X10619164Y-14094669D01*
X10619164Y-14094669D02*
X10609640Y-14085145D01*
X10609640Y-14085145D02*
X10600116Y-14066097D01*
X10600116Y-14066097D02*
X10590593Y-14028002D01*
X10590593Y-14028002D02*
X10590593Y-13980383D01*
X10590593Y-13980383D02*
X10600116Y-13942288D01*
X10600116Y-13942288D02*
X10609640Y-13923240D01*
X10609640Y-13923240D02*
X10619164Y-13913716D01*
X10619164Y-13913716D02*
X10638212Y-13904192D01*
X10771545Y-13904192D02*
X10895355Y-13904192D01*
X10895355Y-13904192D02*
X10828688Y-13980383D01*
X10828688Y-13980383D02*
X10857259Y-13980383D01*
X10857259Y-13980383D02*
X10876307Y-13989907D01*
X10876307Y-13989907D02*
X10885831Y-13999430D01*
X10885831Y-13999430D02*
X10895355Y-14018478D01*
X10895355Y-14018478D02*
X10895355Y-14066097D01*
X10895355Y-14066097D02*
X10885831Y-14085145D01*
X10885831Y-14085145D02*
X10876307Y-14094669D01*
X10876307Y-14094669D02*
X10857259Y-14104192D01*
X10857259Y-14104192D02*
X10800116Y-14104192D01*
X10800116Y-14104192D02*
X10781069Y-14094669D01*
X10781069Y-14094669D02*
X10771545Y-14085145D01*
X11085831Y-14104192D02*
X10971545Y-14104192D01*
X11028688Y-14104192D02*
X11028688Y-13904192D01*
X11028688Y-13904192D02*
X11009640Y-13932764D01*
X11009640Y-13932764D02*
X10990593Y-13951811D01*
X10990593Y-13951811D02*
X10971545Y-13961335D01*
X11266783Y-13904192D02*
X11171545Y-13904192D01*
X11171545Y-13904192D02*
X11162021Y-13999430D01*
X11162021Y-13999430D02*
X11171545Y-13989907D01*
X11171545Y-13989907D02*
X11190593Y-13980383D01*
X11190593Y-13980383D02*
X11238212Y-13980383D01*
X11238212Y-13980383D02*
X11257259Y-13989907D01*
X11257259Y-13989907D02*
X11266783Y-13999430D01*
X11266783Y-13999430D02*
X11276307Y-14018478D01*
X11276307Y-14018478D02*
X11276307Y-14066097D01*
X11276307Y-14066097D02*
X11266783Y-14085145D01*
X11266783Y-14085145D02*
X11257259Y-14094669D01*
X11257259Y-14094669D02*
X11238212Y-14104192D01*
X11238212Y-14104192D02*
X11190593Y-14104192D01*
X11190593Y-14104192D02*
X11171545Y-14094669D01*
X11171545Y-14094669D02*
X11162021Y-14085145D01*
X11352497Y-13904192D02*
X11352497Y-13942288D01*
X11428688Y-13904192D02*
X11428688Y-13942288D01*
X11723926Y-14180383D02*
X11714402Y-14170859D01*
X11714402Y-14170859D02*
X11695355Y-14142288D01*
X11695355Y-14142288D02*
X11685831Y-14123240D01*
X11685831Y-14123240D02*
X11676307Y-14094669D01*
X11676307Y-14094669D02*
X11666783Y-14047049D01*
X11666783Y-14047049D02*
X11666783Y-14008954D01*
X11666783Y-14008954D02*
X11676307Y-13961335D01*
X11676307Y-13961335D02*
X11685831Y-13932764D01*
X11685831Y-13932764D02*
X11695355Y-13913716D01*
X11695355Y-13913716D02*
X11714402Y-13885145D01*
X11714402Y-13885145D02*
X11723926Y-13875621D01*
X11904878Y-14104192D02*
X11790593Y-14104192D01*
X11847735Y-14104192D02*
X11847735Y-13904192D01*
X11847735Y-13904192D02*
X11828688Y-13932764D01*
X11828688Y-13932764D02*
X11809640Y-13951811D01*
X11809640Y-13951811D02*
X11790593Y-13961335D01*
X11981069Y-13923240D02*
X11990593Y-13913716D01*
X11990593Y-13913716D02*
X12009640Y-13904192D01*
X12009640Y-13904192D02*
X12057259Y-13904192D01*
X12057259Y-13904192D02*
X12076307Y-13913716D01*
X12076307Y-13913716D02*
X12085831Y-13923240D01*
X12085831Y-13923240D02*
X12095355Y-13942288D01*
X12095355Y-13942288D02*
X12095355Y-13961335D01*
X12095355Y-13961335D02*
X12085831Y-13989907D01*
X12085831Y-13989907D02*
X11971545Y-14104192D01*
X11971545Y-14104192D02*
X12095355Y-14104192D01*
X12333450Y-14104192D02*
X12333450Y-13904192D01*
X12419164Y-14104192D02*
X12419164Y-13999430D01*
X12419164Y-13999430D02*
X12409640Y-13980383D01*
X12409640Y-13980383D02*
X12390593Y-13970859D01*
X12390593Y-13970859D02*
X12362021Y-13970859D01*
X12362021Y-13970859D02*
X12342974Y-13980383D01*
X12342974Y-13980383D02*
X12333450Y-13989907D01*
X12542974Y-14104192D02*
X12523926Y-14094669D01*
X12523926Y-14094669D02*
X12514402Y-14085145D01*
X12514402Y-14085145D02*
X12504878Y-14066097D01*
X12504878Y-14066097D02*
X12504878Y-14008954D01*
X12504878Y-14008954D02*
X12514402Y-13989907D01*
X12514402Y-13989907D02*
X12523926Y-13980383D01*
X12523926Y-13980383D02*
X12542974Y-13970859D01*
X12542974Y-13970859D02*
X12571545Y-13970859D01*
X12571545Y-13970859D02*
X12590593Y-13980383D01*
X12590593Y-13980383D02*
X12600117Y-13989907D01*
X12600117Y-13989907D02*
X12609640Y-14008954D01*
X12609640Y-14008954D02*
X12609640Y-14066097D01*
X12609640Y-14066097D02*
X12600117Y-14085145D01*
X12600117Y-14085145D02*
X12590593Y-14094669D01*
X12590593Y-14094669D02*
X12571545Y-14104192D01*
X12571545Y-14104192D02*
X12542974Y-14104192D01*
X12723926Y-14104192D02*
X12704878Y-14094669D01*
X12704878Y-14094669D02*
X12695355Y-14075621D01*
X12695355Y-14075621D02*
X12695355Y-13904192D01*
X12876307Y-14094669D02*
X12857259Y-14104192D01*
X12857259Y-14104192D02*
X12819164Y-14104192D01*
X12819164Y-14104192D02*
X12800117Y-14094669D01*
X12800117Y-14094669D02*
X12790593Y-14075621D01*
X12790593Y-14075621D02*
X12790593Y-13999430D01*
X12790593Y-13999430D02*
X12800117Y-13980383D01*
X12800117Y-13980383D02*
X12819164Y-13970859D01*
X12819164Y-13970859D02*
X12857259Y-13970859D01*
X12857259Y-13970859D02*
X12876307Y-13980383D01*
X12876307Y-13980383D02*
X12885831Y-13999430D01*
X12885831Y-13999430D02*
X12885831Y-14018478D01*
X12885831Y-14018478D02*
X12790593Y-14037526D01*
X12962021Y-14094669D02*
X12981069Y-14104192D01*
X12981069Y-14104192D02*
X13019164Y-14104192D01*
X13019164Y-14104192D02*
X13038212Y-14094669D01*
X13038212Y-14094669D02*
X13047736Y-14075621D01*
X13047736Y-14075621D02*
X13047736Y-14066097D01*
X13047736Y-14066097D02*
X13038212Y-14047049D01*
X13038212Y-14047049D02*
X13019164Y-14037526D01*
X13019164Y-14037526D02*
X12990593Y-14037526D01*
X12990593Y-14037526D02*
X12971545Y-14028002D01*
X12971545Y-14028002D02*
X12962021Y-14008954D01*
X12962021Y-14008954D02*
X12962021Y-13999430D01*
X12962021Y-13999430D02*
X12971545Y-13980383D01*
X12971545Y-13980383D02*
X12990593Y-13970859D01*
X12990593Y-13970859D02*
X13019164Y-13970859D01*
X13019164Y-13970859D02*
X13038212Y-13980383D01*
X13114402Y-14180383D02*
X13123926Y-14170859D01*
X13123926Y-14170859D02*
X13142974Y-14142288D01*
X13142974Y-14142288D02*
X13152498Y-14123240D01*
X13152498Y-14123240D02*
X13162021Y-14094669D01*
X13162021Y-14094669D02*
X13171545Y-14047049D01*
X13171545Y-14047049D02*
X13171545Y-14008954D01*
X13171545Y-14008954D02*
X13162021Y-13961335D01*
X13162021Y-13961335D02*
X13152498Y-13932764D01*
X13152498Y-13932764D02*
X13142974Y-13913716D01*
X13142974Y-13913716D02*
X13123926Y-13885145D01*
X13123926Y-13885145D02*
X13114402Y-13875621D01*
D13*
X8135683Y-14308529D02*
X8135683Y-14244888D01*
X8072043Y-14244888D01*
X8072043Y-14308529D01*
X8135683Y-14308529D01*
D12*
X8447735Y-14168192D02*
X8466783Y-14168192D01*
X8466783Y-14168192D02*
X8485831Y-14177716D01*
X8485831Y-14177716D02*
X8495354Y-14187240D01*
X8495354Y-14187240D02*
X8504878Y-14206288D01*
X8504878Y-14206288D02*
X8514402Y-14244383D01*
X8514402Y-14244383D02*
X8514402Y-14292002D01*
X8514402Y-14292002D02*
X8504878Y-14330097D01*
X8504878Y-14330097D02*
X8495354Y-14349145D01*
X8495354Y-14349145D02*
X8485831Y-14358669D01*
X8485831Y-14358669D02*
X8466783Y-14368192D01*
X8466783Y-14368192D02*
X8447735Y-14368192D01*
X8447735Y-14368192D02*
X8428688Y-14358669D01*
X8428688Y-14358669D02*
X8419164Y-14349145D01*
X8419164Y-14349145D02*
X8409640Y-14330097D01*
X8409640Y-14330097D02*
X8400116Y-14292002D01*
X8400116Y-14292002D02*
X8400116Y-14244383D01*
X8400116Y-14244383D02*
X8409640Y-14206288D01*
X8409640Y-14206288D02*
X8419164Y-14187240D01*
X8419164Y-14187240D02*
X8428688Y-14177716D01*
X8428688Y-14177716D02*
X8447735Y-14168192D01*
X8600116Y-14349145D02*
X8609640Y-14358669D01*
X8609640Y-14358669D02*
X8600116Y-14368192D01*
X8600116Y-14368192D02*
X8590592Y-14358669D01*
X8590592Y-14358669D02*
X8600116Y-14349145D01*
X8600116Y-14349145D02*
X8600116Y-14368192D01*
X8704878Y-14368192D02*
X8742973Y-14368192D01*
X8742973Y-14368192D02*
X8762021Y-14358669D01*
X8762021Y-14358669D02*
X8771545Y-14349145D01*
X8771545Y-14349145D02*
X8790592Y-14320573D01*
X8790592Y-14320573D02*
X8800116Y-14282478D01*
X8800116Y-14282478D02*
X8800116Y-14206288D01*
X8800116Y-14206288D02*
X8790592Y-14187240D01*
X8790592Y-14187240D02*
X8781069Y-14177716D01*
X8781069Y-14177716D02*
X8762021Y-14168192D01*
X8762021Y-14168192D02*
X8723926Y-14168192D01*
X8723926Y-14168192D02*
X8704878Y-14177716D01*
X8704878Y-14177716D02*
X8695354Y-14187240D01*
X8695354Y-14187240D02*
X8685831Y-14206288D01*
X8685831Y-14206288D02*
X8685831Y-14253907D01*
X8685831Y-14253907D02*
X8695354Y-14272954D01*
X8695354Y-14272954D02*
X8704878Y-14282478D01*
X8704878Y-14282478D02*
X8723926Y-14292002D01*
X8723926Y-14292002D02*
X8762021Y-14292002D01*
X8762021Y-14292002D02*
X8781069Y-14282478D01*
X8781069Y-14282478D02*
X8790592Y-14272954D01*
X8790592Y-14272954D02*
X8800116Y-14253907D01*
X8923926Y-14168192D02*
X8942973Y-14168192D01*
X8942973Y-14168192D02*
X8962021Y-14177716D01*
X8962021Y-14177716D02*
X8971545Y-14187240D01*
X8971545Y-14187240D02*
X8981069Y-14206288D01*
X8981069Y-14206288D02*
X8990592Y-14244383D01*
X8990592Y-14244383D02*
X8990592Y-14292002D01*
X8990592Y-14292002D02*
X8981069Y-14330097D01*
X8981069Y-14330097D02*
X8971545Y-14349145D01*
X8971545Y-14349145D02*
X8962021Y-14358669D01*
X8962021Y-14358669D02*
X8942973Y-14368192D01*
X8942973Y-14368192D02*
X8923926Y-14368192D01*
X8923926Y-14368192D02*
X8904878Y-14358669D01*
X8904878Y-14358669D02*
X8895354Y-14349145D01*
X8895354Y-14349145D02*
X8885831Y-14330097D01*
X8885831Y-14330097D02*
X8876307Y-14292002D01*
X8876307Y-14292002D02*
X8876307Y-14244383D01*
X8876307Y-14244383D02*
X8885831Y-14206288D01*
X8885831Y-14206288D02*
X8895354Y-14187240D01*
X8895354Y-14187240D02*
X8904878Y-14177716D01*
X8904878Y-14177716D02*
X8923926Y-14168192D01*
X9114402Y-14168192D02*
X9133450Y-14168192D01*
X9133450Y-14168192D02*
X9152497Y-14177716D01*
X9152497Y-14177716D02*
X9162021Y-14187240D01*
X9162021Y-14187240D02*
X9171545Y-14206288D01*
X9171545Y-14206288D02*
X9181069Y-14244383D01*
X9181069Y-14244383D02*
X9181069Y-14292002D01*
X9181069Y-14292002D02*
X9171545Y-14330097D01*
X9171545Y-14330097D02*
X9162021Y-14349145D01*
X9162021Y-14349145D02*
X9152497Y-14358669D01*
X9152497Y-14358669D02*
X9133450Y-14368192D01*
X9133450Y-14368192D02*
X9114402Y-14368192D01*
X9114402Y-14368192D02*
X9095354Y-14358669D01*
X9095354Y-14358669D02*
X9085831Y-14349145D01*
X9085831Y-14349145D02*
X9076307Y-14330097D01*
X9076307Y-14330097D02*
X9066783Y-14292002D01*
X9066783Y-14292002D02*
X9066783Y-14244383D01*
X9066783Y-14244383D02*
X9076307Y-14206288D01*
X9076307Y-14206288D02*
X9085831Y-14187240D01*
X9085831Y-14187240D02*
X9095354Y-14177716D01*
X9095354Y-14177716D02*
X9114402Y-14168192D01*
X9266783Y-14368192D02*
X9266783Y-14234859D01*
X9266783Y-14253907D02*
X9276307Y-14244383D01*
X9276307Y-14244383D02*
X9295354Y-14234859D01*
X9295354Y-14234859D02*
X9323926Y-14234859D01*
X9323926Y-14234859D02*
X9342973Y-14244383D01*
X9342973Y-14244383D02*
X9352497Y-14263430D01*
X9352497Y-14263430D02*
X9352497Y-14368192D01*
X9352497Y-14263430D02*
X9362021Y-14244383D01*
X9362021Y-14244383D02*
X9381069Y-14234859D01*
X9381069Y-14234859D02*
X9409640Y-14234859D01*
X9409640Y-14234859D02*
X9428688Y-14244383D01*
X9428688Y-14244383D02*
X9438212Y-14263430D01*
X9438212Y-14263430D02*
X9438212Y-14368192D01*
X9533450Y-14368192D02*
X9533450Y-14234859D01*
X9533450Y-14253907D02*
X9542973Y-14244383D01*
X9542973Y-14244383D02*
X9562021Y-14234859D01*
X9562021Y-14234859D02*
X9590593Y-14234859D01*
X9590593Y-14234859D02*
X9609640Y-14244383D01*
X9609640Y-14244383D02*
X9619164Y-14263430D01*
X9619164Y-14263430D02*
X9619164Y-14368192D01*
X9619164Y-14263430D02*
X9628688Y-14244383D01*
X9628688Y-14244383D02*
X9647735Y-14234859D01*
X9647735Y-14234859D02*
X9676307Y-14234859D01*
X9676307Y-14234859D02*
X9695354Y-14244383D01*
X9695354Y-14244383D02*
X9704878Y-14263430D01*
X9704878Y-14263430D02*
X9704878Y-14368192D01*
X10095354Y-14158669D02*
X9923926Y-14415811D01*
X10352497Y-14168192D02*
X10371545Y-14168192D01*
X10371545Y-14168192D02*
X10390593Y-14177716D01*
X10390593Y-14177716D02*
X10400116Y-14187240D01*
X10400116Y-14187240D02*
X10409640Y-14206288D01*
X10409640Y-14206288D02*
X10419164Y-14244383D01*
X10419164Y-14244383D02*
X10419164Y-14292002D01*
X10419164Y-14292002D02*
X10409640Y-14330097D01*
X10409640Y-14330097D02*
X10400116Y-14349145D01*
X10400116Y-14349145D02*
X10390593Y-14358669D01*
X10390593Y-14358669D02*
X10371545Y-14368192D01*
X10371545Y-14368192D02*
X10352497Y-14368192D01*
X10352497Y-14368192D02*
X10333450Y-14358669D01*
X10333450Y-14358669D02*
X10323926Y-14349145D01*
X10323926Y-14349145D02*
X10314402Y-14330097D01*
X10314402Y-14330097D02*
X10304878Y-14292002D01*
X10304878Y-14292002D02*
X10304878Y-14244383D01*
X10304878Y-14244383D02*
X10314402Y-14206288D01*
X10314402Y-14206288D02*
X10323926Y-14187240D01*
X10323926Y-14187240D02*
X10333450Y-14177716D01*
X10333450Y-14177716D02*
X10352497Y-14168192D01*
X10504878Y-14349145D02*
X10514402Y-14358669D01*
X10514402Y-14358669D02*
X10504878Y-14368192D01*
X10504878Y-14368192D02*
X10495355Y-14358669D01*
X10495355Y-14358669D02*
X10504878Y-14349145D01*
X10504878Y-14349145D02*
X10504878Y-14368192D01*
X10638212Y-14168192D02*
X10657259Y-14168192D01*
X10657259Y-14168192D02*
X10676307Y-14177716D01*
X10676307Y-14177716D02*
X10685831Y-14187240D01*
X10685831Y-14187240D02*
X10695355Y-14206288D01*
X10695355Y-14206288D02*
X10704878Y-14244383D01*
X10704878Y-14244383D02*
X10704878Y-14292002D01*
X10704878Y-14292002D02*
X10695355Y-14330097D01*
X10695355Y-14330097D02*
X10685831Y-14349145D01*
X10685831Y-14349145D02*
X10676307Y-14358669D01*
X10676307Y-14358669D02*
X10657259Y-14368192D01*
X10657259Y-14368192D02*
X10638212Y-14368192D01*
X10638212Y-14368192D02*
X10619164Y-14358669D01*
X10619164Y-14358669D02*
X10609640Y-14349145D01*
X10609640Y-14349145D02*
X10600116Y-14330097D01*
X10600116Y-14330097D02*
X10590593Y-14292002D01*
X10590593Y-14292002D02*
X10590593Y-14244383D01*
X10590593Y-14244383D02*
X10600116Y-14206288D01*
X10600116Y-14206288D02*
X10609640Y-14187240D01*
X10609640Y-14187240D02*
X10619164Y-14177716D01*
X10619164Y-14177716D02*
X10638212Y-14168192D01*
X10771545Y-14168192D02*
X10895355Y-14168192D01*
X10895355Y-14168192D02*
X10828688Y-14244383D01*
X10828688Y-14244383D02*
X10857259Y-14244383D01*
X10857259Y-14244383D02*
X10876307Y-14253907D01*
X10876307Y-14253907D02*
X10885831Y-14263430D01*
X10885831Y-14263430D02*
X10895355Y-14282478D01*
X10895355Y-14282478D02*
X10895355Y-14330097D01*
X10895355Y-14330097D02*
X10885831Y-14349145D01*
X10885831Y-14349145D02*
X10876307Y-14358669D01*
X10876307Y-14358669D02*
X10857259Y-14368192D01*
X10857259Y-14368192D02*
X10800116Y-14368192D01*
X10800116Y-14368192D02*
X10781069Y-14358669D01*
X10781069Y-14358669D02*
X10771545Y-14349145D01*
X11076307Y-14168192D02*
X10981069Y-14168192D01*
X10981069Y-14168192D02*
X10971545Y-14263430D01*
X10971545Y-14263430D02*
X10981069Y-14253907D01*
X10981069Y-14253907D02*
X11000116Y-14244383D01*
X11000116Y-14244383D02*
X11047736Y-14244383D01*
X11047736Y-14244383D02*
X11066783Y-14253907D01*
X11066783Y-14253907D02*
X11076307Y-14263430D01*
X11076307Y-14263430D02*
X11085831Y-14282478D01*
X11085831Y-14282478D02*
X11085831Y-14330097D01*
X11085831Y-14330097D02*
X11076307Y-14349145D01*
X11076307Y-14349145D02*
X11066783Y-14358669D01*
X11066783Y-14358669D02*
X11047736Y-14368192D01*
X11047736Y-14368192D02*
X11000116Y-14368192D01*
X11000116Y-14368192D02*
X10981069Y-14358669D01*
X10981069Y-14358669D02*
X10971545Y-14349145D01*
X11257259Y-14234859D02*
X11257259Y-14368192D01*
X11209640Y-14158669D02*
X11162021Y-14301526D01*
X11162021Y-14301526D02*
X11285831Y-14301526D01*
X11352497Y-14168192D02*
X11352497Y-14206288D01*
X11428688Y-14168192D02*
X11428688Y-14206288D01*
X11723926Y-14444383D02*
X11714402Y-14434859D01*
X11714402Y-14434859D02*
X11695355Y-14406288D01*
X11695355Y-14406288D02*
X11685831Y-14387240D01*
X11685831Y-14387240D02*
X11676307Y-14358669D01*
X11676307Y-14358669D02*
X11666783Y-14311049D01*
X11666783Y-14311049D02*
X11666783Y-14272954D01*
X11666783Y-14272954D02*
X11676307Y-14225335D01*
X11676307Y-14225335D02*
X11685831Y-14196764D01*
X11685831Y-14196764D02*
X11695355Y-14177716D01*
X11695355Y-14177716D02*
X11714402Y-14149145D01*
X11714402Y-14149145D02*
X11723926Y-14139621D01*
X11904878Y-14368192D02*
X11790593Y-14368192D01*
X11847735Y-14368192D02*
X11847735Y-14168192D01*
X11847735Y-14168192D02*
X11828688Y-14196764D01*
X11828688Y-14196764D02*
X11809640Y-14215811D01*
X11809640Y-14215811D02*
X11790593Y-14225335D01*
X11981069Y-14187240D02*
X11990593Y-14177716D01*
X11990593Y-14177716D02*
X12009640Y-14168192D01*
X12009640Y-14168192D02*
X12057259Y-14168192D01*
X12057259Y-14168192D02*
X12076307Y-14177716D01*
X12076307Y-14177716D02*
X12085831Y-14187240D01*
X12085831Y-14187240D02*
X12095355Y-14206288D01*
X12095355Y-14206288D02*
X12095355Y-14225335D01*
X12095355Y-14225335D02*
X12085831Y-14253907D01*
X12085831Y-14253907D02*
X11971545Y-14368192D01*
X11971545Y-14368192D02*
X12095355Y-14368192D01*
X12333450Y-14368192D02*
X12333450Y-14168192D01*
X12419164Y-14368192D02*
X12419164Y-14263430D01*
X12419164Y-14263430D02*
X12409640Y-14244383D01*
X12409640Y-14244383D02*
X12390593Y-14234859D01*
X12390593Y-14234859D02*
X12362021Y-14234859D01*
X12362021Y-14234859D02*
X12342974Y-14244383D01*
X12342974Y-14244383D02*
X12333450Y-14253907D01*
X12542974Y-14368192D02*
X12523926Y-14358669D01*
X12523926Y-14358669D02*
X12514402Y-14349145D01*
X12514402Y-14349145D02*
X12504878Y-14330097D01*
X12504878Y-14330097D02*
X12504878Y-14272954D01*
X12504878Y-14272954D02*
X12514402Y-14253907D01*
X12514402Y-14253907D02*
X12523926Y-14244383D01*
X12523926Y-14244383D02*
X12542974Y-14234859D01*
X12542974Y-14234859D02*
X12571545Y-14234859D01*
X12571545Y-14234859D02*
X12590593Y-14244383D01*
X12590593Y-14244383D02*
X12600117Y-14253907D01*
X12600117Y-14253907D02*
X12609640Y-14272954D01*
X12609640Y-14272954D02*
X12609640Y-14330097D01*
X12609640Y-14330097D02*
X12600117Y-14349145D01*
X12600117Y-14349145D02*
X12590593Y-14358669D01*
X12590593Y-14358669D02*
X12571545Y-14368192D01*
X12571545Y-14368192D02*
X12542974Y-14368192D01*
X12723926Y-14368192D02*
X12704878Y-14358669D01*
X12704878Y-14358669D02*
X12695355Y-14339621D01*
X12695355Y-14339621D02*
X12695355Y-14168192D01*
X12876307Y-14358669D02*
X12857259Y-14368192D01*
X12857259Y-14368192D02*
X12819164Y-14368192D01*
X12819164Y-14368192D02*
X12800117Y-14358669D01*
X12800117Y-14358669D02*
X12790593Y-14339621D01*
X12790593Y-14339621D02*
X12790593Y-14263430D01*
X12790593Y-14263430D02*
X12800117Y-14244383D01*
X12800117Y-14244383D02*
X12819164Y-14234859D01*
X12819164Y-14234859D02*
X12857259Y-14234859D01*
X12857259Y-14234859D02*
X12876307Y-14244383D01*
X12876307Y-14244383D02*
X12885831Y-14263430D01*
X12885831Y-14263430D02*
X12885831Y-14282478D01*
X12885831Y-14282478D02*
X12790593Y-14301526D01*
X12962021Y-14358669D02*
X12981069Y-14368192D01*
X12981069Y-14368192D02*
X13019164Y-14368192D01*
X13019164Y-14368192D02*
X13038212Y-14358669D01*
X13038212Y-14358669D02*
X13047736Y-14339621D01*
X13047736Y-14339621D02*
X13047736Y-14330097D01*
X13047736Y-14330097D02*
X13038212Y-14311049D01*
X13038212Y-14311049D02*
X13019164Y-14301526D01*
X13019164Y-14301526D02*
X12990593Y-14301526D01*
X12990593Y-14301526D02*
X12971545Y-14292002D01*
X12971545Y-14292002D02*
X12962021Y-14272954D01*
X12962021Y-14272954D02*
X12962021Y-14263430D01*
X12962021Y-14263430D02*
X12971545Y-14244383D01*
X12971545Y-14244383D02*
X12990593Y-14234859D01*
X12990593Y-14234859D02*
X13019164Y-14234859D01*
X13019164Y-14234859D02*
X13038212Y-14244383D01*
X13114402Y-14444383D02*
X13123926Y-14434859D01*
X13123926Y-14434859D02*
X13142974Y-14406288D01*
X13142974Y-14406288D02*
X13152498Y-14387240D01*
X13152498Y-14387240D02*
X13162021Y-14358669D01*
X13162021Y-14358669D02*
X13171545Y-14311049D01*
X13171545Y-14311049D02*
X13171545Y-14272954D01*
X13171545Y-14272954D02*
X13162021Y-14225335D01*
X13162021Y-14225335D02*
X13152498Y-14196764D01*
X13152498Y-14196764D02*
X13142974Y-14177716D01*
X13142974Y-14177716D02*
X13123926Y-14149145D01*
X13123926Y-14149145D02*
X13114402Y-14139621D01*
D14*
X8093863Y-14595709D02*
X8148863Y-14540709D01*
X8093863Y-14485709D01*
X8038863Y-14540709D01*
X8093863Y-14595709D01*
D12*
X8514402Y-14632192D02*
X8400116Y-14632192D01*
X8457259Y-14632192D02*
X8457259Y-14432192D01*
X8457259Y-14432192D02*
X8438211Y-14460764D01*
X8438211Y-14460764D02*
X8419164Y-14479811D01*
X8419164Y-14479811D02*
X8400116Y-14489335D01*
X8600116Y-14613145D02*
X8609640Y-14622669D01*
X8609640Y-14622669D02*
X8600116Y-14632192D01*
X8600116Y-14632192D02*
X8590592Y-14622669D01*
X8590592Y-14622669D02*
X8600116Y-14613145D01*
X8600116Y-14613145D02*
X8600116Y-14632192D01*
X8800116Y-14632192D02*
X8685831Y-14632192D01*
X8742973Y-14632192D02*
X8742973Y-14432192D01*
X8742973Y-14432192D02*
X8723926Y-14460764D01*
X8723926Y-14460764D02*
X8704878Y-14479811D01*
X8704878Y-14479811D02*
X8685831Y-14489335D01*
X8923926Y-14432192D02*
X8942973Y-14432192D01*
X8942973Y-14432192D02*
X8962021Y-14441716D01*
X8962021Y-14441716D02*
X8971545Y-14451240D01*
X8971545Y-14451240D02*
X8981069Y-14470288D01*
X8981069Y-14470288D02*
X8990592Y-14508383D01*
X8990592Y-14508383D02*
X8990592Y-14556002D01*
X8990592Y-14556002D02*
X8981069Y-14594097D01*
X8981069Y-14594097D02*
X8971545Y-14613145D01*
X8971545Y-14613145D02*
X8962021Y-14622669D01*
X8962021Y-14622669D02*
X8942973Y-14632192D01*
X8942973Y-14632192D02*
X8923926Y-14632192D01*
X8923926Y-14632192D02*
X8904878Y-14622669D01*
X8904878Y-14622669D02*
X8895354Y-14613145D01*
X8895354Y-14613145D02*
X8885831Y-14594097D01*
X8885831Y-14594097D02*
X8876307Y-14556002D01*
X8876307Y-14556002D02*
X8876307Y-14508383D01*
X8876307Y-14508383D02*
X8885831Y-14470288D01*
X8885831Y-14470288D02*
X8895354Y-14451240D01*
X8895354Y-14451240D02*
X8904878Y-14441716D01*
X8904878Y-14441716D02*
X8923926Y-14432192D01*
X9114402Y-14432192D02*
X9133450Y-14432192D01*
X9133450Y-14432192D02*
X9152497Y-14441716D01*
X9152497Y-14441716D02*
X9162021Y-14451240D01*
X9162021Y-14451240D02*
X9171545Y-14470288D01*
X9171545Y-14470288D02*
X9181069Y-14508383D01*
X9181069Y-14508383D02*
X9181069Y-14556002D01*
X9181069Y-14556002D02*
X9171545Y-14594097D01*
X9171545Y-14594097D02*
X9162021Y-14613145D01*
X9162021Y-14613145D02*
X9152497Y-14622669D01*
X9152497Y-14622669D02*
X9133450Y-14632192D01*
X9133450Y-14632192D02*
X9114402Y-14632192D01*
X9114402Y-14632192D02*
X9095354Y-14622669D01*
X9095354Y-14622669D02*
X9085831Y-14613145D01*
X9085831Y-14613145D02*
X9076307Y-14594097D01*
X9076307Y-14594097D02*
X9066783Y-14556002D01*
X9066783Y-14556002D02*
X9066783Y-14508383D01*
X9066783Y-14508383D02*
X9076307Y-14470288D01*
X9076307Y-14470288D02*
X9085831Y-14451240D01*
X9085831Y-14451240D02*
X9095354Y-14441716D01*
X9095354Y-14441716D02*
X9114402Y-14432192D01*
X9266783Y-14632192D02*
X9266783Y-14498859D01*
X9266783Y-14517907D02*
X9276307Y-14508383D01*
X9276307Y-14508383D02*
X9295354Y-14498859D01*
X9295354Y-14498859D02*
X9323926Y-14498859D01*
X9323926Y-14498859D02*
X9342973Y-14508383D01*
X9342973Y-14508383D02*
X9352497Y-14527430D01*
X9352497Y-14527430D02*
X9352497Y-14632192D01*
X9352497Y-14527430D02*
X9362021Y-14508383D01*
X9362021Y-14508383D02*
X9381069Y-14498859D01*
X9381069Y-14498859D02*
X9409640Y-14498859D01*
X9409640Y-14498859D02*
X9428688Y-14508383D01*
X9428688Y-14508383D02*
X9438212Y-14527430D01*
X9438212Y-14527430D02*
X9438212Y-14632192D01*
X9533450Y-14632192D02*
X9533450Y-14498859D01*
X9533450Y-14517907D02*
X9542973Y-14508383D01*
X9542973Y-14508383D02*
X9562021Y-14498859D01*
X9562021Y-14498859D02*
X9590593Y-14498859D01*
X9590593Y-14498859D02*
X9609640Y-14508383D01*
X9609640Y-14508383D02*
X9619164Y-14527430D01*
X9619164Y-14527430D02*
X9619164Y-14632192D01*
X9619164Y-14527430D02*
X9628688Y-14508383D01*
X9628688Y-14508383D02*
X9647735Y-14498859D01*
X9647735Y-14498859D02*
X9676307Y-14498859D01*
X9676307Y-14498859D02*
X9695354Y-14508383D01*
X9695354Y-14508383D02*
X9704878Y-14527430D01*
X9704878Y-14527430D02*
X9704878Y-14632192D01*
X10095354Y-14422669D02*
X9923926Y-14679811D01*
X10352497Y-14432192D02*
X10371545Y-14432192D01*
X10371545Y-14432192D02*
X10390593Y-14441716D01*
X10390593Y-14441716D02*
X10400116Y-14451240D01*
X10400116Y-14451240D02*
X10409640Y-14470288D01*
X10409640Y-14470288D02*
X10419164Y-14508383D01*
X10419164Y-14508383D02*
X10419164Y-14556002D01*
X10419164Y-14556002D02*
X10409640Y-14594097D01*
X10409640Y-14594097D02*
X10400116Y-14613145D01*
X10400116Y-14613145D02*
X10390593Y-14622669D01*
X10390593Y-14622669D02*
X10371545Y-14632192D01*
X10371545Y-14632192D02*
X10352497Y-14632192D01*
X10352497Y-14632192D02*
X10333450Y-14622669D01*
X10333450Y-14622669D02*
X10323926Y-14613145D01*
X10323926Y-14613145D02*
X10314402Y-14594097D01*
X10314402Y-14594097D02*
X10304878Y-14556002D01*
X10304878Y-14556002D02*
X10304878Y-14508383D01*
X10304878Y-14508383D02*
X10314402Y-14470288D01*
X10314402Y-14470288D02*
X10323926Y-14451240D01*
X10323926Y-14451240D02*
X10333450Y-14441716D01*
X10333450Y-14441716D02*
X10352497Y-14432192D01*
X10504878Y-14613145D02*
X10514402Y-14622669D01*
X10514402Y-14622669D02*
X10504878Y-14632192D01*
X10504878Y-14632192D02*
X10495355Y-14622669D01*
X10495355Y-14622669D02*
X10504878Y-14613145D01*
X10504878Y-14613145D02*
X10504878Y-14632192D01*
X10638212Y-14432192D02*
X10657259Y-14432192D01*
X10657259Y-14432192D02*
X10676307Y-14441716D01*
X10676307Y-14441716D02*
X10685831Y-14451240D01*
X10685831Y-14451240D02*
X10695355Y-14470288D01*
X10695355Y-14470288D02*
X10704878Y-14508383D01*
X10704878Y-14508383D02*
X10704878Y-14556002D01*
X10704878Y-14556002D02*
X10695355Y-14594097D01*
X10695355Y-14594097D02*
X10685831Y-14613145D01*
X10685831Y-14613145D02*
X10676307Y-14622669D01*
X10676307Y-14622669D02*
X10657259Y-14632192D01*
X10657259Y-14632192D02*
X10638212Y-14632192D01*
X10638212Y-14632192D02*
X10619164Y-14622669D01*
X10619164Y-14622669D02*
X10609640Y-14613145D01*
X10609640Y-14613145D02*
X10600116Y-14594097D01*
X10600116Y-14594097D02*
X10590593Y-14556002D01*
X10590593Y-14556002D02*
X10590593Y-14508383D01*
X10590593Y-14508383D02*
X10600116Y-14470288D01*
X10600116Y-14470288D02*
X10609640Y-14451240D01*
X10609640Y-14451240D02*
X10619164Y-14441716D01*
X10619164Y-14441716D02*
X10638212Y-14432192D01*
X10876307Y-14498859D02*
X10876307Y-14632192D01*
X10828688Y-14422669D02*
X10781069Y-14565526D01*
X10781069Y-14565526D02*
X10904878Y-14565526D01*
X10962021Y-14432192D02*
X11085831Y-14432192D01*
X11085831Y-14432192D02*
X11019164Y-14508383D01*
X11019164Y-14508383D02*
X11047736Y-14508383D01*
X11047736Y-14508383D02*
X11066783Y-14517907D01*
X11066783Y-14517907D02*
X11076307Y-14527430D01*
X11076307Y-14527430D02*
X11085831Y-14546478D01*
X11085831Y-14546478D02*
X11085831Y-14594097D01*
X11085831Y-14594097D02*
X11076307Y-14613145D01*
X11076307Y-14613145D02*
X11066783Y-14622669D01*
X11066783Y-14622669D02*
X11047736Y-14632192D01*
X11047736Y-14632192D02*
X10990593Y-14632192D01*
X10990593Y-14632192D02*
X10971545Y-14622669D01*
X10971545Y-14622669D02*
X10962021Y-14613145D01*
X11152497Y-14432192D02*
X11276307Y-14432192D01*
X11276307Y-14432192D02*
X11209640Y-14508383D01*
X11209640Y-14508383D02*
X11238212Y-14508383D01*
X11238212Y-14508383D02*
X11257259Y-14517907D01*
X11257259Y-14517907D02*
X11266783Y-14527430D01*
X11266783Y-14527430D02*
X11276307Y-14546478D01*
X11276307Y-14546478D02*
X11276307Y-14594097D01*
X11276307Y-14594097D02*
X11266783Y-14613145D01*
X11266783Y-14613145D02*
X11257259Y-14622669D01*
X11257259Y-14622669D02*
X11238212Y-14632192D01*
X11238212Y-14632192D02*
X11181069Y-14632192D01*
X11181069Y-14632192D02*
X11162021Y-14622669D01*
X11162021Y-14622669D02*
X11152497Y-14613145D01*
X11352497Y-14432192D02*
X11352497Y-14470288D01*
X11428688Y-14432192D02*
X11428688Y-14470288D01*
X11723926Y-14708383D02*
X11714402Y-14698859D01*
X11714402Y-14698859D02*
X11695355Y-14670288D01*
X11695355Y-14670288D02*
X11685831Y-14651240D01*
X11685831Y-14651240D02*
X11676307Y-14622669D01*
X11676307Y-14622669D02*
X11666783Y-14575049D01*
X11666783Y-14575049D02*
X11666783Y-14536954D01*
X11666783Y-14536954D02*
X11676307Y-14489335D01*
X11676307Y-14489335D02*
X11685831Y-14460764D01*
X11685831Y-14460764D02*
X11695355Y-14441716D01*
X11695355Y-14441716D02*
X11714402Y-14413145D01*
X11714402Y-14413145D02*
X11723926Y-14403621D01*
X11885831Y-14498859D02*
X11885831Y-14632192D01*
X11838212Y-14422669D02*
X11790593Y-14565526D01*
X11790593Y-14565526D02*
X11914402Y-14565526D01*
X12142974Y-14632192D02*
X12142974Y-14432192D01*
X12228688Y-14632192D02*
X12228688Y-14527430D01*
X12228688Y-14527430D02*
X12219164Y-14508383D01*
X12219164Y-14508383D02*
X12200117Y-14498859D01*
X12200117Y-14498859D02*
X12171545Y-14498859D01*
X12171545Y-14498859D02*
X12152497Y-14508383D01*
X12152497Y-14508383D02*
X12142974Y-14517907D01*
X12352497Y-14632192D02*
X12333450Y-14622669D01*
X12333450Y-14622669D02*
X12323926Y-14613145D01*
X12323926Y-14613145D02*
X12314402Y-14594097D01*
X12314402Y-14594097D02*
X12314402Y-14536954D01*
X12314402Y-14536954D02*
X12323926Y-14517907D01*
X12323926Y-14517907D02*
X12333450Y-14508383D01*
X12333450Y-14508383D02*
X12352497Y-14498859D01*
X12352497Y-14498859D02*
X12381069Y-14498859D01*
X12381069Y-14498859D02*
X12400117Y-14508383D01*
X12400117Y-14508383D02*
X12409640Y-14517907D01*
X12409640Y-14517907D02*
X12419164Y-14536954D01*
X12419164Y-14536954D02*
X12419164Y-14594097D01*
X12419164Y-14594097D02*
X12409640Y-14613145D01*
X12409640Y-14613145D02*
X12400117Y-14622669D01*
X12400117Y-14622669D02*
X12381069Y-14632192D01*
X12381069Y-14632192D02*
X12352497Y-14632192D01*
X12533450Y-14632192D02*
X12514402Y-14622669D01*
X12514402Y-14622669D02*
X12504878Y-14603621D01*
X12504878Y-14603621D02*
X12504878Y-14432192D01*
X12685831Y-14622669D02*
X12666783Y-14632192D01*
X12666783Y-14632192D02*
X12628688Y-14632192D01*
X12628688Y-14632192D02*
X12609640Y-14622669D01*
X12609640Y-14622669D02*
X12600117Y-14603621D01*
X12600117Y-14603621D02*
X12600117Y-14527430D01*
X12600117Y-14527430D02*
X12609640Y-14508383D01*
X12609640Y-14508383D02*
X12628688Y-14498859D01*
X12628688Y-14498859D02*
X12666783Y-14498859D01*
X12666783Y-14498859D02*
X12685831Y-14508383D01*
X12685831Y-14508383D02*
X12695355Y-14527430D01*
X12695355Y-14527430D02*
X12695355Y-14546478D01*
X12695355Y-14546478D02*
X12600117Y-14565526D01*
X12771545Y-14622669D02*
X12790593Y-14632192D01*
X12790593Y-14632192D02*
X12828688Y-14632192D01*
X12828688Y-14632192D02*
X12847736Y-14622669D01*
X12847736Y-14622669D02*
X12857259Y-14603621D01*
X12857259Y-14603621D02*
X12857259Y-14594097D01*
X12857259Y-14594097D02*
X12847736Y-14575049D01*
X12847736Y-14575049D02*
X12828688Y-14565526D01*
X12828688Y-14565526D02*
X12800117Y-14565526D01*
X12800117Y-14565526D02*
X12781069Y-14556002D01*
X12781069Y-14556002D02*
X12771545Y-14536954D01*
X12771545Y-14536954D02*
X12771545Y-14527430D01*
X12771545Y-14527430D02*
X12781069Y-14508383D01*
X12781069Y-14508383D02*
X12800117Y-14498859D01*
X12800117Y-14498859D02*
X12828688Y-14498859D01*
X12828688Y-14498859D02*
X12847736Y-14508383D01*
X12923926Y-14708383D02*
X12933450Y-14698859D01*
X12933450Y-14698859D02*
X12952498Y-14670288D01*
X12952498Y-14670288D02*
X12962021Y-14651240D01*
X12962021Y-14651240D02*
X12971545Y-14622669D01*
X12971545Y-14622669D02*
X12981069Y-14575049D01*
X12981069Y-14575049D02*
X12981069Y-14536954D01*
X12981069Y-14536954D02*
X12971545Y-14489335D01*
X12971545Y-14489335D02*
X12962021Y-14460764D01*
X12962021Y-14460764D02*
X12952498Y-14441716D01*
X12952498Y-14441716D02*
X12933450Y-14413145D01*
X12933450Y-14413145D02*
X12923926Y-14403621D01*
M02*
