G04 #@! TF.GenerationSoftware,KiCad,Pcbnew,10.0.3*
G04 #@! TF.CreationDate,2026-09-13T20:11:41-04:00*
G04 #@! TF.ProjectId,Keychain,4b657963-6861-4696-9e2e-6b696361645f,rev?*
G04 #@! TF.SameCoordinates,Original*
G04 #@! TF.FileFunction,Copper,L1,Top*
G04 #@! TF.FilePolarity,Positive*
%FSLAX46Y46*%
G04 Gerber Fmt 4.6, Leading zero omitted, Abs format (unit mm)*
G04 Created by KiCad (PCBNEW 10.0.3) date 2026-09-13 20:11:41*
%MOMM*%
%LPD*%
G01*
G04 APERTURE LIST*
G04 Aperture macros list*
%AMRoundRect*
0 Rectangle with rounded corners*
0 $1 Rounding radius*
0 $2 $3 $4 $5 $6 $7 $8 $9 X,Y pos of 4 corners*
0 Add a 4 corners polygon primitive as box body*
4,1,4,$2,$3,$4,$5,$6,$7,$8,$9,$2,$3,0*
0 Add four circle primitives for the rounded corners*
1,1,$1+$1,$2,$3*
1,1,$1+$1,$4,$5*
1,1,$1+$1,$6,$7*
1,1,$1+$1,$8,$9*
0 Add four rect primitives between the rounded corners*
20,1,$1+$1,$2,$3,$4,$5,0*
20,1,$1+$1,$4,$5,$6,$7,0*
20,1,$1+$1,$6,$7,$8,$9,0*
20,1,$1+$1,$8,$9,$2,$3,0*%
G04 Aperture macros list end*
G04 #@! TA.AperFunction,ComponentPad*
%ADD10C,2.000000*%
G04 #@! TD*
G04 #@! TA.AperFunction,ComponentPad*
%ADD11R,1.050000X1.500000*%
G04 #@! TD*
G04 #@! TA.AperFunction,ComponentPad*
%ADD12O,1.050000X1.500000*%
G04 #@! TD*
G04 #@! TA.AperFunction,SMDPad,CuDef*
%ADD13R,1.270000X5.080000*%
G04 #@! TD*
G04 #@! TA.AperFunction,SMDPad,CuDef*
%ADD14C,17.800000*%
G04 #@! TD*
G04 #@! TA.AperFunction,ComponentPad*
%ADD15C,1.500000*%
G04 #@! TD*
G04 #@! TA.AperFunction,ComponentPad*
%ADD16C,1.600000*%
G04 #@! TD*
G04 #@! TA.AperFunction,ComponentPad*
%ADD17RoundRect,0.250000X-0.550000X-0.550000X0.550000X-0.550000X0.550000X0.550000X-0.550000X0.550000X0*%
G04 #@! TD*
G04 #@! TA.AperFunction,ComponentPad*
%ADD18R,1.800000X1.800000*%
G04 #@! TD*
G04 #@! TA.AperFunction,ComponentPad*
%ADD19C,1.800000*%
G04 #@! TD*
G04 #@! TA.AperFunction,SMDPad,CuDef*
%ADD20RoundRect,0.150000X-0.825000X-0.150000X0.825000X-0.150000X0.825000X0.150000X-0.825000X0.150000X0*%
G04 #@! TD*
G04 #@! TA.AperFunction,ViaPad*
%ADD21C,0.600000*%
G04 #@! TD*
G04 #@! TA.AperFunction,Conductor*
%ADD22C,0.200000*%
G04 #@! TD*
G04 APERTURE END LIST*
D10*
G04 #@! TO.P,SW2,2,2_2*
G04 #@! TO.N,Net-(U1-THRES)*
X123250000Y-86250000D03*
X116750000Y-86250000D03*
G04 #@! TO.P,SW2,1,1_1*
G04 #@! TO.N,GND*
X123250000Y-81750000D03*
X116750000Y-81750000D03*
G04 #@! TD*
D11*
G04 #@! TO.P,Q1,1,E_1*
G04 #@! TO.N,GND*
X107730000Y-103610000D03*
D12*
G04 #@! TO.P,Q1,2,B_2*
G04 #@! TO.N,Net-(Q1-B)*
X109000000Y-103610000D03*
G04 #@! TO.P,Q1,3,C_3*
G04 #@! TO.N,Net-(Q1-C)*
X110270000Y-103610000D03*
G04 #@! TD*
D13*
G04 #@! TO.P,BT2,1,+_1*
G04 #@! TO.N,+6V*
X87265000Y-79500000D03*
X109235000Y-79500000D03*
D14*
G04 #@! TO.P,BT2,2,-_2*
G04 #@! TO.N,GND*
X98250000Y-79500000D03*
G04 #@! TD*
D15*
G04 #@! TO.P,R3,1*
G04 #@! TO.N,+6V*
X88800000Y-66750000D03*
G04 #@! TO.P,R3,2*
G04 #@! TO.N,Net-(U1-THRES)*
X92200000Y-66750000D03*
G04 #@! TD*
D16*
G04 #@! TO.P,R4,1*
G04 #@! TO.N,Net-(U1-THRES)*
X152250000Y-64000000D03*
G04 #@! TO.P,R4,2*
G04 #@! TO.N,GND*
X144630000Y-64000000D03*
G04 #@! TD*
G04 #@! TO.P,R2,1*
G04 #@! TO.N,Net-(D6-K)*
X100060000Y-114750000D03*
G04 #@! TO.P,R2,2*
G04 #@! TO.N,Net-(Q1-C)*
X92440000Y-114750000D03*
G04 #@! TD*
D17*
G04 #@! TO.P,C1,1*
G04 #@! TO.N,+6V*
X137097349Y-104750000D03*
D16*
G04 #@! TO.P,C1,2*
G04 #@! TO.N,GND*
X142097349Y-104750000D03*
G04 #@! TD*
D18*
G04 #@! TO.P,D6,1,K_1*
G04 #@! TO.N,Net-(D6-K)*
X100710000Y-108750000D03*
D19*
G04 #@! TO.P,D6,2,A_2*
G04 #@! TO.N,Net-(D5-K)*
X103250000Y-108750000D03*
G04 #@! TD*
D18*
G04 #@! TO.P,D5,1,K_1*
G04 #@! TO.N,Net-(D5-K)*
X114750000Y-111500000D03*
D19*
G04 #@! TO.P,D5,2,A_2*
G04 #@! TO.N,Net-(D4-K)*
X117290000Y-111500000D03*
G04 #@! TD*
D18*
G04 #@! TO.P,D4,1,K_1*
G04 #@! TO.N,Net-(D4-K)*
X112480000Y-96250000D03*
D19*
G04 #@! TO.P,D4,2,A_2*
G04 #@! TO.N,+6V*
X115020000Y-96250000D03*
G04 #@! TD*
D16*
G04 #@! TO.P,R1,1*
G04 #@! TO.N,Net-(D3-K)*
X142940000Y-97750000D03*
G04 #@! TO.P,R1,2*
G04 #@! TO.N,Net-(Q1-C)*
X150560000Y-97750000D03*
G04 #@! TD*
D13*
G04 #@! TO.P,BT1,1,+_1*
G04 #@! TO.N,+6V*
X135765000Y-78500000D03*
X157735000Y-78500000D03*
D14*
G04 #@! TO.P,BT1,2,-_2*
G04 #@! TO.N,GND*
X146750000Y-78500000D03*
G04 #@! TD*
D18*
G04 #@! TO.P,D1,1,K_1*
G04 #@! TO.N,Net-(D1-K)*
X146000000Y-108000000D03*
D19*
G04 #@! TO.P,D1,2,A_2*
G04 #@! TO.N,Net-(D1-A)*
X148540000Y-108000000D03*
G04 #@! TD*
D18*
G04 #@! TO.P,D3,1,K_1*
G04 #@! TO.N,Net-(D3-K)*
X130730000Y-99750000D03*
D19*
G04 #@! TO.P,D3,2,A_2*
G04 #@! TO.N,Net-(D1-K)*
X133270000Y-99750000D03*
G04 #@! TD*
D20*
G04 #@! TO.P,U1,1,GND_1*
G04 #@! TO.N,GND*
X129800000Y-84000000D03*
G04 #@! TO.P,U1,2,TRIG_2*
G04 #@! TO.N,Net-(U1-THRES)*
X129800000Y-85270000D03*
G04 #@! TO.P,U1,3,OUT_3*
G04 #@! TO.N,Net-(U1-OUT)*
X129800000Y-86540000D03*
G04 #@! TO.P,U1,4,~{RST}_4*
G04 #@! TO.N,+6V*
X129800000Y-87810000D03*
G04 #@! TO.P,U1,5,CONT_5*
G04 #@! TO.N,unconnected-(U1-CONT-Pad5)*
X134750000Y-87810000D03*
G04 #@! TO.P,U1,6,THRES_6*
G04 #@! TO.N,Net-(U1-THRES)*
X134750000Y-86540000D03*
G04 #@! TO.P,U1,7,DISCH_7*
G04 #@! TO.N,unconnected-(U1-DISCH-Pad7)*
X134750000Y-85270000D03*
G04 #@! TO.P,U1,8,VCC_8*
G04 #@! TO.N,+6V*
X134750000Y-84000000D03*
G04 #@! TD*
D18*
G04 #@! TO.P,D2,1,K_1*
G04 #@! TO.N,Net-(D1-A)*
X137210000Y-114500000D03*
D19*
G04 #@! TO.P,D2,2,A_2*
G04 #@! TO.N,+6V*
X139750000Y-114500000D03*
G04 #@! TD*
D16*
G04 #@! TO.P,R5,1*
G04 #@! TO.N,Net-(U1-OUT)*
X92630000Y-94000000D03*
G04 #@! TO.P,R5,2*
G04 #@! TO.N,Net-(Q1-B)*
X100250000Y-94000000D03*
G04 #@! TD*
D21*
G04 #@! TO.N,+6V*
X136256580Y-84312499D03*
X136077747Y-85835209D03*
X112500000Y-91500000D03*
X110000000Y-85750000D03*
X137750000Y-74250000D03*
X146114579Y-67762149D03*
X127500000Y-98100000D03*
X126250000Y-98100000D03*
X121500000Y-96900000D03*
X117247017Y-97008949D03*
G04 #@! TO.N,GND*
X145500000Y-67250000D03*
X145500000Y-65750000D03*
G04 #@! TO.N,Net-(U1-THRES)*
X127500000Y-86000000D03*
X128500000Y-85699997D03*
X126250000Y-86750000D03*
X125250000Y-86750000D03*
G04 #@! TO.N,GND*
X125000000Y-82000000D03*
X129000000Y-82500000D03*
X108750000Y-89500000D03*
X106750000Y-94750000D03*
X106250000Y-97750000D03*
G04 #@! TO.N,+6V*
X132250000Y-90750000D03*
X130750000Y-95000000D03*
G04 #@! TO.N,GND*
X140500000Y-91500000D03*
X136750000Y-98250000D03*
G04 #@! TO.N,Net-(D3-K)*
X137500000Y-97500000D03*
G04 #@! TO.N,Net-(Q1-C)*
X117500000Y-96250000D03*
X136000000Y-98750000D03*
X128750000Y-97500000D03*
X94500000Y-112500000D03*
G04 #@! TO.N,Net-(D6-K)*
X102000000Y-112250000D03*
G04 #@! TO.N,GND*
X116500000Y-80000000D03*
X107500000Y-82500000D03*
G04 #@! TO.N,+6V*
X109000000Y-74500000D03*
X101081118Y-70168882D03*
G04 #@! TO.N,Net-(U1-OUT)*
X128500000Y-86500000D03*
X114250000Y-88800003D03*
G04 #@! TO.N,Net-(Q1-B)*
X103750000Y-98250000D03*
G04 #@! TO.N,Net-(U1-THRES)*
X114250000Y-88000000D03*
X109000000Y-87500000D03*
X108250000Y-87000000D03*
X152750000Y-66000000D03*
X151750000Y-67750000D03*
G04 #@! TD*
G04 #@! TO.N,+6V*
D22*
X135765000Y-82985000D02*
X135765000Y-78500000D01*
X134750000Y-84000000D02*
X135765000Y-82985000D01*
X135944081Y-84000000D02*
X134750000Y-84000000D01*
X136256580Y-84312499D02*
X135944081Y-84000000D01*
X135695552Y-87210000D02*
X136077747Y-86827805D01*
X130400000Y-87210000D02*
X135695552Y-87210000D01*
X136077747Y-86827805D02*
X136077747Y-85835209D01*
X129800000Y-87810000D02*
X130400000Y-87210000D01*
X115920000Y-97150000D02*
X115020000Y-96250000D01*
X117448529Y-97150000D02*
X115920000Y-97150000D01*
X118100000Y-96498529D02*
X117448529Y-97150000D01*
X118100000Y-96001471D02*
X118100000Y-96498529D01*
X112500000Y-91500000D02*
X113598529Y-91500000D01*
X110000000Y-80265000D02*
X110000000Y-85750000D01*
X113598529Y-91500000D02*
X118100000Y-96001471D01*
X109235000Y-79500000D02*
X110000000Y-80265000D01*
X135765000Y-76235000D02*
X135765000Y-78500000D01*
X137750000Y-74250000D02*
X135765000Y-76235000D01*
X149022914Y-67762149D02*
X146114579Y-67762149D01*
X157735000Y-76474235D02*
X149022914Y-67762149D01*
X157735000Y-78500000D02*
X157735000Y-76474235D01*
X127500000Y-97901470D02*
X128200735Y-97200735D01*
X127500000Y-98100000D02*
X127500000Y-97901470D01*
X122700000Y-98100000D02*
X126250000Y-98100000D01*
X128200735Y-97200735D02*
X130401471Y-95000000D01*
X121500000Y-96900000D02*
X122700000Y-98100000D01*
X116488068Y-96250000D02*
X117247017Y-97008949D01*
X115020000Y-96250000D02*
X116488068Y-96250000D01*
G04 #@! TO.N,GND*
X145500000Y-84404448D02*
X140500000Y-89404448D01*
X145500000Y-67250000D02*
X145500000Y-84404448D01*
X145500000Y-64870000D02*
X145500000Y-65750000D01*
X144630000Y-64000000D02*
X145500000Y-64870000D01*
G04 #@! TO.N,Net-(U1-THRES)*
X128500284Y-85700281D02*
X129369719Y-85700281D01*
X128500000Y-85699997D02*
X128500284Y-85700281D01*
X129369719Y-85700281D02*
X129800000Y-85270000D01*
X126750000Y-86750000D02*
X127500000Y-86000000D01*
X126250000Y-86750000D02*
X126750000Y-86750000D01*
X124750000Y-86250000D02*
X125250000Y-86750000D01*
X123250000Y-86250000D02*
X124750000Y-86250000D01*
X116750000Y-86250000D02*
X123250000Y-86250000D01*
G04 #@! TO.N,GND*
X129000000Y-83200000D02*
X129800000Y-84000000D01*
X129000000Y-82500000D02*
X129000000Y-83200000D01*
X124750000Y-81750000D02*
X125000000Y-82000000D01*
X123250000Y-81750000D02*
X124750000Y-81750000D01*
X116750000Y-81750000D02*
X123250000Y-81750000D01*
X108750000Y-92750000D02*
X108750000Y-89500000D01*
X106750000Y-94750000D02*
X108750000Y-92750000D01*
X107730000Y-99230000D02*
X106250000Y-97750000D01*
X107730000Y-103610000D02*
X107730000Y-99230000D01*
G04 #@! TO.N,+6V*
X132250000Y-90260000D02*
X129800000Y-87810000D01*
X132250000Y-90750000D02*
X132250000Y-90260000D01*
X128150000Y-97251471D02*
X128200735Y-97200735D01*
X128150000Y-99570000D02*
X128150000Y-97251471D01*
X130401471Y-95000000D02*
X130750000Y-95000000D01*
X133330000Y-104750000D02*
X128150000Y-99570000D01*
X137097349Y-104750000D02*
X133330000Y-104750000D01*
G04 #@! TO.N,GND*
X130470000Y-84670000D02*
X129800000Y-84000000D01*
X135765552Y-84670000D02*
X130470000Y-84670000D01*
X140500000Y-89404448D02*
X135765552Y-84670000D01*
X140500000Y-91500000D02*
X140500000Y-89404448D01*
X136750000Y-99402651D02*
X136750000Y-98250000D01*
X142097349Y-104750000D02*
X136750000Y-99402651D01*
G04 #@! TO.N,Net-(D1-A)*
X138410000Y-115700000D02*
X137210000Y-114500000D01*
X140840000Y-115700000D02*
X138410000Y-115700000D01*
X148540000Y-108000000D02*
X140840000Y-115700000D01*
G04 #@! TO.N,Net-(D1-K)*
X142232093Y-108000000D02*
X133982093Y-99750000D01*
X146000000Y-108000000D02*
X142232093Y-108000000D01*
X133982093Y-99750000D02*
X133270000Y-99750000D01*
G04 #@! TO.N,+6V*
X139750000Y-107402651D02*
X137097349Y-104750000D01*
X139750000Y-114500000D02*
X139750000Y-107402651D01*
G04 #@! TO.N,Net-(D3-K)*
X137750000Y-97750000D02*
X137500000Y-97500000D01*
X142940000Y-97750000D02*
X137750000Y-97750000D01*
G04 #@! TO.N,Net-(Q1-C)*
X134750000Y-97500000D02*
X136000000Y-98750000D01*
X128750000Y-97500000D02*
X134750000Y-97500000D01*
X116300000Y-95050000D02*
X117500000Y-96250000D01*
X111280000Y-95050000D02*
X116300000Y-95050000D01*
X110270000Y-96060000D02*
X111280000Y-95050000D01*
X110270000Y-103610000D02*
X110270000Y-96060000D01*
X92440000Y-114560000D02*
X94500000Y-112500000D01*
X92440000Y-114750000D02*
X92440000Y-114560000D01*
G04 #@! TO.N,Net-(D6-K)*
X100710000Y-110960000D02*
X102000000Y-112250000D01*
X100710000Y-108750000D02*
X100710000Y-110960000D01*
G04 #@! TO.N,Net-(D5-K)*
X112000000Y-108750000D02*
X114750000Y-111500000D01*
X103250000Y-108750000D02*
X112000000Y-108750000D01*
G04 #@! TO.N,Net-(D4-K)*
X112480000Y-106690000D02*
X117290000Y-111500000D01*
X112480000Y-96250000D02*
X112480000Y-106690000D01*
G04 #@! TO.N,GND*
X116500000Y-81500000D02*
X116750000Y-81750000D01*
X116500000Y-80000000D02*
X116500000Y-81500000D01*
X104500000Y-79500000D02*
X107500000Y-82500000D01*
X98250000Y-79500000D02*
X104500000Y-79500000D01*
G04 #@! TO.N,+6V*
X109235000Y-75235000D02*
X109235000Y-79500000D01*
X109000000Y-74500000D02*
X109000000Y-75000000D01*
X109000000Y-75000000D02*
X109235000Y-75235000D01*
X94739235Y-70000000D02*
X100912236Y-70000000D01*
X88800000Y-75939235D02*
X94739235Y-70000000D01*
X100912236Y-70000000D02*
X101081118Y-70168882D01*
X88800000Y-77965000D02*
X88800000Y-75939235D01*
X88800000Y-77965000D02*
X87265000Y-79500000D01*
X88800000Y-66750000D02*
X88800000Y-77965000D01*
G04 #@! TO.N,Net-(U1-OUT)*
X129760000Y-86500000D02*
X129800000Y-86540000D01*
X128500000Y-86500000D02*
X129760000Y-86500000D01*
X97829997Y-88800003D02*
X114250000Y-88800003D01*
X92630000Y-94000000D02*
X97829997Y-88800003D01*
G04 #@! TO.N,Net-(Q1-B)*
X100528945Y-94000000D02*
X103750000Y-97221055D01*
X103750000Y-97221055D02*
X103750000Y-98250000D01*
X100250000Y-94000000D02*
X100528945Y-94000000D01*
G04 #@! TO.N,Net-(U1-THRES)*
X113750000Y-87500000D02*
X114250000Y-88000000D01*
X109000000Y-87500000D02*
X113750000Y-87500000D01*
X108250000Y-76489235D02*
X108250000Y-87000000D01*
X98510765Y-66750000D02*
X108250000Y-76489235D01*
X92200000Y-66750000D02*
X98510765Y-66750000D01*
X152250000Y-64000000D02*
X152250000Y-65500000D01*
X152250000Y-65500000D02*
X152750000Y-66000000D01*
X151750000Y-67750000D02*
X150650000Y-66650000D01*
X150650000Y-66650000D02*
X144001471Y-66650000D01*
X144001471Y-66650000D02*
X128400000Y-82251471D01*
X128400000Y-82251471D02*
X128400000Y-84215552D01*
X128400000Y-84215552D02*
X130054448Y-85870000D01*
X130054448Y-85870000D02*
X134080000Y-85870000D01*
X134080000Y-85870000D02*
X134750000Y-86540000D01*
G04 #@! TD*
M02*
